<svg xmlns="http://www.w3.org/2000/svg" xmlns:xlink="http://www.w3.org/1999/xlink" viewBox="0 0 512 512"><defs><style>.cls-1,.cls-3{fill:#fbd764;}.cls-1,.cls-5,.cls-6{stroke:#000;stroke-miterlimit:10;stroke-width:5px;}.cls-2,.cls-6{fill:#fff;}.cls-4{clip-path:url(#clip-path);}.cls-5{fill:none;}.cls-7{font-size:36px;font-family:Roboto-Bold, Roboto Bold;font-weight:700;letter-spacing:-0.07em;}.cls-8{letter-spacing:-0.01em;}.cls-9{letter-spacing:0.03em;}.cls-10{letter-spacing:0em;}</style><clipPath id="clip-path"><path class="cls-1" d="M216,93l8.08,11c-12.66,24-21.33,36-56,44l8,32h24v-4l32-4C256,215.88,222.33,282.33,192,312l8,8H312l8.08-8C344,219.5,344,106,216,93Z"/></clipPath></defs><title>chess_knight</title><g id="レイヤー_2" data-name="レイヤー 2"><g id="Business_Develop" data-name="Business Develop"><rect class="cls-2" width="512" height="512"/><path class="cls-3" d="M216,93l8.08,11c-12.66,24-21.33,36-56,44l8,32h24v-4l32-4C256,215.88,222.33,282.33,192,312l8,8H312l8.08-8C344,219.5,344,106,216,93Z"/><g class="cls-4"><line class="cls-3" x1="276.75" y1="285.37" x2="356.43" y2="278.2"/><line class="cls-5" x1="276.75" y1="285.37" x2="356.43" y2="278.2"/><line class="cls-3" x1="282.47" y1="265.88" x2="360.97" y2="250.42"/><line class="cls-5" x1="282.47" y1="265.88" x2="360.97" y2="250.42"/><line class="cls-3" x1="286.13" y1="245.89" x2="362.58" y2="222.32"/><line class="cls-5" x1="286.13" y1="245.89" x2="362.58" y2="222.32"/><line class="cls-3" x1="287.68" y1="225.64" x2="361.24" y2="194.2"/><line class="cls-5" x1="287.68" y1="225.64" x2="361.24" y2="194.2"/><line class="cls-3" x1="287.1" y1="205.33" x2="356.98" y2="166.38"/><line class="cls-5" x1="287.1" y1="205.33" x2="356.98" y2="166.38"/><line class="cls-3" x1="284.4" y1="185.19" x2="349.82" y2="139.16"/><line class="cls-5" x1="284.4" y1="185.19" x2="349.82" y2="139.16"/><line class="cls-3" x1="279.61" y1="165.45" x2="339.87" y2="112.83"/><line class="cls-5" x1="279.61" y1="165.45" x2="339.87" y2="112.83"/><line class="cls-3" x1="272.79" y1="146.32" x2="327.21" y2="87.68"/><line class="cls-5" x1="272.79" y1="146.32" x2="327.21" y2="87.68"/><line class="cls-3" x1="264" y1="128" x2="312" y2="64"/><line class="cls-5" x1="264" y1="128" x2="312" y2="64"/></g><path class="cls-5" d="M216,93l8.08,11c-12.66,24-21.33,36-56,44l8,32h24v-4l32-4C256,215.88,222.33,282.33,192,312l8,8H312l8.08-8C344,219.5,344,106,216,93Z"/><rect class="cls-1" x="192" y="336" width="128" height="32"/><rect class="cls-1" x="200" y="320" width="112" height="16"/><path class="cls-5" d="M312,320l8.08-8C344,219.5,344,106,216,93l8.08,11c-12.66,24-21.33,36-56,44l8,32h24v-4l32-4C256,215.88,222.33,282.33,192,312l8,8"/><circle class="cls-6" cx="228" cy="132" r="4"/><line class="cls-5" x1="176.08" y1="152" x2="177.67" y2="160"/><line class="cls-5" x1="320.08" y1="312" x2="192" y2="312"/><text class="cls-7" transform="translate(193.15 432)">T<tspan class="cls-8" x="15.19" y="0">A</tspan><tspan class="cls-9" x="36.68" y="0">C</tspan><tspan class="cls-10" x="58.57" y="0">TICS</tspan></text></g></g></svg>