<?xml version="1.0" encoding="UTF-8"?>
<svg width="9px" height="26px" viewBox="0 0 9 26" version="1.1" xmlns="http://www.w3.org/2000/svg" xmlns:xlink="http://www.w3.org/1999/xlink">
    <!-- Generator: Sketch 52.3 (67297) - http://www.bohemiancoding.com/sketch -->
    <title>images/rocket/dash</title>
    <desc>Created with Sketch.</desc>
    <g id="Page-1" stroke="none" stroke-width="1" fill="none" fill-rule="evenodd">
        <g id="Desktop" transform="translate(-823.000000, -166.000000)" fill="#F3EFD9">
            <g id="sean3" transform="translate(680.000000, 0.000000)">
                <g id="images/rocket/dash" transform="translate(143.000000, 166.000000)">
                    <path d="M8.6,4.89 C8.56005772,5.28540957 8.54003241,5.68257817 8.54,6.08 C8.42494295,7.19017919 8.46533224,8.31098206 8.66,9.41 C8.73862533,9.80484961 8.76218249,10.2086866 8.73,10.61 C8.73,12.61 8.73,14.61 8.73,16.61 C8.72061207,17.009404 8.66012017,17.405962 8.55,17.79 C8.55,17.91 8.35,18.02 8.21,18.08 C8.07,18.14 7.92,18.08 7.88,17.86 C7.43880882,15.890371 7.21414238,13.8784328 7.21,11.86 C7.18259366,11.3007422 7.12584892,10.7433086 7.04,10.19 C6.99310667,10.037758 6.9695065,9.87929966 6.97,9.72 C7.07185755,8.61005275 7.03827744,7.49183508 6.87,6.39 C6.87,5.27 6.87,4.15 6.87,3.02 C6.85256734,2.37744056 7.00797739,1.74198614 7.32,1.18 C7.39422486,1.04047643 7.50046167,0.920531644 7.63,0.83 C7.81700701,0.666368695 8.08094099,0.623673492 8.31,0.72 C8.53864338,0.800834812 8.69110481,1.01749053 8.69,1.26 C8.6,2.5 8.68,3.7 8.6,4.89 Z" id="Path"></path>
                    <path d="M2.29,19 C2.29,20 2.15,21.07 2.18,22.11 C2.21,23.15 1.9,24.11 2.02,25.2 C2.03599825,25.2772937 2.01124378,25.357392 1.95442501,25.4121815 C1.89760625,25.466971 1.81666108,25.4887974 1.74,25.47 C1.66232762,25.4526618 1.59429845,25.4061155 1.55,25.34 C1.41082355,25.059751 1.31634794,24.7594535 1.27,24.45 C1.22415956,23.2560928 1.09720014,22.0666834 0.89,20.89 C0.621630768,19.2376466 0.547794023,17.5595387 0.67,15.89 C0.74,15.09 0.67,14.29 0.75,13.5 C0.793966073,13.2652471 0.889610044,13.0432165 1.03,12.85 C1.12672695,12.7277101 1.27408042,12.6563858 1.43,12.6563858 C1.58591958,12.6563858 1.73327305,12.7277101 1.83,12.85 C1.9580812,13.0463825 2.05269878,13.2626513 2.11,13.49 C2.19177919,14.043164 2.23853893,14.600941 2.25,15.16 C2.25,16.44 2.25,17.72 2.25,19 L2.29,19 Z" id="Path"></path>
                    <path d="M2.14,6.74 C2.14,7.74 2.14,8.66 2.14,9.62 C2.07078488,10.0072406 1.94263052,10.3815863 1.76,10.73 C1.71845366,10.800665 1.64980061,10.8512515 1.57,10.87 C1.50167998,10.8710088 1.43757266,10.8370696 1.4,10.78 C0.740336106,9.49247585 0.495790942,8.03219187 0.7,6.6 C0.81,5.9 0.79,5.17 0.85,4.45 C0.888221459,3.96864542 1.05389422,3.50614229 1.33,3.11 C1.42440382,2.99193616 1.56890894,2.92524149 1.72,2.93 C1.87097354,2.9562205 2.00269644,3.04769473 2.08,3.18 C2.17876101,3.39704658 2.23315915,3.6316386 2.24,3.87 C2.24,4.87 2.24,5.78 2.24,6.74 L2.14,6.74 Z" id="Path"></path>
                    <path d="M6.23,11.68 C6.17,12.2 6.1,12.91 6,13.61 C5.87,14.47 5.72,15.33 5.56,16.18 C5.48999844,16.3096483 5.35717932,16.3931346 5.21,16.4 C5.06786869,16.370826 4.94656123,16.2789265 4.88,16.15 C4.80999013,16.0096547 4.76916751,15.8565699 4.76,15.7 C4.76,15.46 4.71,15.22 4.7,14.99 C4.70193868,13.8793292 4.59813709,12.770996 4.39,11.68 C4.23013918,10.9789984 4.23013918,10.2510016 4.39,9.55 C4.49826627,9.24975767 4.76390459,9.03416715 5.08,8.99 C5.40133936,8.94341475 5.71616253,9.10889872 5.86,9.4 C5.96626084,9.60954351 6.0468435,9.83114582 6.1,10.06 C6.17,10.54 6.18,11 6.23,11.68 Z" id="Path"></path>
                    <path d="M4.31,19.86 C4.31,19.7 4.41,19.39 4.49,19.09 C4.64291166,18.8105347 4.95568273,18.6581591 5.27,18.71 C5.504589,18.7566532 5.69358656,18.9302223 5.76,19.16 C6.08497674,20.1281488 6.12661029,21.1689877 5.88,22.16 C5.7,22.75 5.88,23.44 5.39,23.95 C5.33148246,23.9992497 5.25636386,24.0242892 5.18,24.02 C5.12,24.02 5.02,23.97 5.01,23.92 C4.64039116,22.593726 4.40586448,21.2334713 4.31,19.86 Z" id="Path"></path>
                </g>
            </g>
        </g>
    </g>
</svg>