<?xml version="1.0" encoding="UTF-8"?>
<svg width="44px" height="71px" viewBox="0 0 44 71" version="1.1" xmlns="http://www.w3.org/2000/svg" xmlns:xlink="http://www.w3.org/1999/xlink">
    <!-- Generator: Sketch 52.3 (67297) - http://www.bohemiancoding.com/sketch -->
    <title>images/rocket/fuwa</title>
    <desc>Created with Sketch.</desc>
    <g id="Page-1" stroke="none" stroke-width="1" fill="none" fill-rule="evenodd">
        <g id="Desktop" transform="translate(-456.000000, -179.000000)" fill="#F3EFD9" fill-rule="nonzero">
            <g id="sean2" transform="translate(330.000000, 0.000000)">
                <g id="images/rocket/fuwa" transform="translate(125.000000, 179.000000)">
                    <path d="M4.52,16.19 C4.66045388,15.8265463 4.85978601,15.4886952 5.11,15.19 C6.19359263,13.8256258 7.6332889,12.7873833 9.27,12.19 C9.72553741,12.0074157 10.2094911,11.905887 10.7,11.89 C11.06,11.89 11.42,11.89 11.77,11.89 C12.12,11.89 12.46,11.73 12.27,11.22 C12.0568431,10.5759548 11.9685969,9.89713799 12.01,9.22 C12.0158628,8.9084989 12.0629384,8.59914476 12.15,8.3 C12.456031,7.29388009 13.1866983,6.47187929 14.15,6.05 C14.4761094,5.91080929 14.8100009,5.79060833 15.15,5.69 C15.31,5.63 15.38,5.54 15.36,5.4 C15.36,5 15.26,4.6 15.23,4.2 C15.146362,3.36429848 15.5937616,2.56537075 16.35,2.2 C16.9527622,1.83972706 17.6486108,1.66576493 18.35,1.7 C18.9401863,1.73088712 19.4796153,2.04338395 19.8,2.54 C19.9263054,2.72426922 20.0240734,2.92654771 20.09,3.14 C20.2549727,3.46563688 20.2118117,3.85800939 19.98,4.14 C19.7668452,4.42414897 19.5888832,4.73306412 19.45,5.06 C19.282503,5.42054013 19.0672369,5.75689344 18.81,6.06 L18.21,6.78 C18.1621746,6.82358286 18.1349193,6.88529498 18.1349193,6.95 C18.1349193,7.01470502 18.1621746,7.07641714 18.21,7.12 C18.53,7.28 18.85,7.44 19.21,7.58 C19.5377061,7.72862467 19.8130112,7.97256587 20,8.28 C20.404664,8.80878099 20.7406748,9.38671971 21,10 C21.0508827,10.1188238 21.1182073,10.2299095 21.2,10.33 C21.2384852,10.345568 21.2815148,10.345568 21.32,10.33 C21.32,10.33 21.42,10.33 21.42,10.33 C21.42,10.02 21.48,9.72 21.51,9.41 C21.6475339,7.83191423 22.4982306,6.40303833 23.82,5.53 C23.97,5.44 24.12,5.34 24.28,5.26 C24.450653,5.1912454 24.547538,5.01011254 24.51,4.83 L24.33,3.83 C24.2729915,3.38778391 24.307022,2.93858075 24.43,2.51 C24.504166,2.20138143 24.6938551,1.93295348 24.96,1.76 C25.5604473,1.37298927 26.2093961,1.06700823 26.89,0.85 C27.3187746,0.696360499 27.7931373,0.736498879 28.19,0.96 C28.42,1.09 28.66,1.2 28.9,1.33 C29.3304895,1.54948035 29.6805197,1.8995105 29.9,2.33 C30.1122073,2.76286612 30.1480598,3.26121538 30,3.72 C29.9934586,3.81321872 29.9934586,3.90678128 30,4 C29.9919748,4.17991359 30.0896778,4.34796276 30.25,4.43 L31.25,4.68 C32.3428732,4.9376585 33.3389193,5.50335715 34.12,6.31 C34.3720636,6.56637209 34.5783769,6.86400441 34.73,7.19 C34.8118746,7.39536933 34.9122896,7.59285223 35.03,7.78 C35.2003967,8.08802939 35.3027003,8.42904151 35.33,8.78 C35.5016109,9.61528195 35.4179878,10.4828721 35.09,11.27 C35.0843427,11.3131487 35.0843427,11.3568513 35.09,11.4 C35.0023823,11.8386805 34.7825248,12.2400078 34.46,12.55 C34.2333333,12.8166667 34.0133333,13.0966667 33.8,13.39 C33.7710415,13.4246003 33.7620947,13.4717416 33.7763627,13.5145458 C33.7906308,13.5573499 33.826073,13.5896948 33.87,13.6 L34.87,13.89 C35.3402216,14.0280164 35.7931531,14.2192541 36.22,14.46 C36.68,14.74 37.14,15.02 37.6,15.28 C38.065487,15.5462756 38.5012798,15.8613873 38.9,16.22 C39.2,16.49 39.52,16.74 39.83,16.99 C41.2823581,18.190379 42.4130261,19.7334486 43.12,21.48 C43.7803268,23.0424366 44.1432079,24.7144027 44.19,26.41 C44.2982608,27.2537313 44.2022329,28.111124 43.91,28.91 C43.8842345,28.9952344 43.8641899,29.0820943 43.85,29.17 C43.6668941,30.0426288 43.4127132,30.8988171 43.09,31.73 C42.7654081,32.5643507 42.2018886,33.2844033 41.47,33.8 C40.8914497,34.2958409 40.2406263,34.7004979 39.54,35 C39.1695169,35.1544511 38.8088416,35.3314492 38.46,35.53 C38.3,35.62 38.16,35.73 38.02,35.82 C37.971112,35.8671208 37.9434935,35.9321 37.9434935,36 C37.9434935,36.0679 37.971112,36.1328792 38.02,36.18 C38.3935452,36.4192207 38.7846625,36.6298223 39.19,36.81 C40.4424056,37.6083573 41.4740189,38.7087448 42.19,40.01 C42.52,40.64 42.81,41.29 43.13,41.93 C43.5456683,42.6715566 43.8139315,43.4865335 43.92,44.33 C43.9509916,44.6402995 44.0766739,44.9335581 44.28,45.17 C44.4112601,45.3006053 44.4576862,45.4940475 44.4,45.67 C44.3250628,45.9710901 44.2848013,46.2797618 44.28,46.59 C44.2527461,47.2609326 44.1792383,47.9291857 44.06,48.59 C43.91,49.33 43.65,50.05 43.43,50.77 C43.0437546,52.0114145 42.3567236,53.1381453 41.43,54.05 C40.99,54.49 40.43,54.73 40.03,55.28 C39.9712433,55.3485992 39.8953223,55.4003635 39.81,55.43 C38.81,55.91 37.91,56.43 36.94,56.86 C36.3331583,57.1380101 35.7084363,57.375204 35.07,57.57 C34.35,57.8 33.62,57.99 32.91,58.27 C32.6977449,58.3310158 32.4800498,58.3712057 32.26,58.39 C30.8835496,58.5299779 29.4964504,58.5299779 28.12,58.39 C28.0324727,58.3781706 27.9456718,58.3614781 27.86,58.34 C26.8907829,58.1885251 25.9370052,57.9509173 25.01,57.63 C24.7550218,57.5500085 24.4942463,57.4898296 24.23,57.45 C23.9959239,57.4326656 23.7911932,57.6062417 23.77,57.84 C23.7597208,57.9697968 23.7597208,58.1002032 23.77,58.23 C23.9630084,59.0114382 24.0071104,59.8222374 23.9,60.62 C23.77,61.68 23.56,62.73 23.34,63.78 C23.1377785,64.5868633 22.7699944,65.342864 22.26,66 C21.8426458,66.4620436 21.4771347,66.9683939 21.17,67.51 L19.72,68.69 C19.62,68.77 19.54,68.88 19.44,68.97 C19.3390437,69.0588892 19.228337,69.1360484 19.11,69.2 C18.56,69.49 18.01,69.79 17.45,70.07 C17.299406,70.1622533 17.1334205,70.226615 16.96,70.26 C16.3035896,70.389481 15.6582943,70.57003 15.03,70.8 C14.7711374,70.8734229 14.5070318,70.9269127 14.24,70.96 C12.951546,71.0980539 11.6485734,70.9407396 10.43,70.5 C10.0525862,70.3738639 9.69036222,70.2061676 9.35,70 C8.50724277,69.5010245 7.71954064,68.9144378 7,68.25 C6.66455691,67.8919476 6.27269609,67.5912957 5.84,67.36 C5.44396678,67.1584664 5.12960792,66.8264469 4.95,66.42 C4.78,66.11 4.59,65.81 4.42,65.49 C4.03038286,64.8400855 3.74999486,64.13067 3.59,63.39 C3.52918674,63.1266542 3.40952775,62.8804985 3.24,62.67 C2.95678595,62.2167893 2.76012399,61.7149622 2.66,61.19 C2.49,60.48 2.75,59.77 2.66,59.06 C2.65521771,58.9696902 2.68367665,58.880756 2.74,58.81 C2.86804012,58.5763173 2.95592892,58.3227919 3,58.06 C3.1,57.49 3.28,56.93 3.34,56.36 C3.51093914,55.7611608 3.7351682,55.1788346 4.01,54.62 C4.3098977,53.7327271 4.71263892,52.8836144 5.21,52.09 C5.48278374,51.5762893 5.86927461,51.1316538 6.34,50.79 C6.44767707,50.7122014 6.55115551,50.628751 6.65,50.54 C6.88,50.33 6.88,50.13 6.65,50.01 C6.5754359,49.9660931 6.49866834,49.9260405 6.42,49.89 C4.94625121,49.2206814 3.66634516,48.1884991 2.7,46.89 C1.98727701,46.0762036 1.52840318,45.071548 1.38,44 C1.37660496,43.7296534 1.30432794,43.4646376 1.17,43.23 C1.00080874,42.9660097 0.95002726,42.6431846 1.03,42.34 C1.09943823,42.0334494 1.14953703,41.7228369 1.18,41.41 C1.21782085,40.7004089 1.31144338,39.9948963 1.46,39.3 C1.50357381,39.1268046 1.52375322,38.9485532 1.52,38.77 C1.51496517,38.1445916 1.55506932,37.5196352 1.64,36.9 C1.65983892,36.5476901 1.7626307,36.2050508 1.94,35.9 C2.05,35.7 2.14,35.5 2.23,35.3 C2.55302576,34.6092733 3.04061712,34.0083684 3.65,33.55 C4.09318075,33.1717842 4.592479,32.8647833 5.13,32.64 C5.47040861,32.5289805 5.77677774,32.3327666 6.02,32.07 C6.41,31.64 6.79,31.2 7.17,30.76 C7.20644273,30.7048396 7.21851758,30.6370893 7.20337543,30.5727352 C7.18823328,30.5083811 7.14721533,30.4531232 7.09,30.42 C6.82544395,30.2536651 6.57464138,30.0663992 6.34,29.86 C5.72598174,29.252053 5.45264493,28.3796219 5.61,27.53 C5.80309076,26.7900106 6.16602838,26.1052226 6.67,25.53 C7.05927673,25.1003663 7.37668835,24.610742 7.61,24.08 C7.63527907,23.9482232 7.58517333,23.8133231 7.48,23.73 C7.22,23.57 6.94,23.42 6.69,23.24 C6.15,22.84 5.6,22.45 5.1,22.01 C4.57672683,21.5770287 4.25482588,20.9476943 4.21,20.27 C4.21,20 4.21,19.74 4.21,19.49 C4.01040827,18.382315 4.11761,17.2411352 4.52,16.19 Z M16.82,6 L16.9,6.07 L16.97,6.14 L16.88,6.14 L16.82,6 Z M33.82,31.7 C34.2679822,31.4979056 34.6594549,31.1888482 34.96,30.8 C35.1312102,30.5978205 35.2726406,30.3722053 35.38,30.13 C35.55,29.66 35.77,29.23 35.97,28.79 C36.3498751,27.9362756 36.6252038,27.0397786 36.79,26.12 C36.9189963,25.2827307 36.8713071,24.4277305 36.65,23.61 C36.58,23.35 36.47,23.1 36.4,22.85 C36.2901529,22.3447006 35.8131862,22.0064878 35.3,22.07 C35.24,22.07 35.12,22.16 35.12,22.22 C35.0849796,22.3915644 35.0849796,22.5684356 35.12,22.74 C35.4270889,23.7639816 35.5622554,24.8317977 35.52,25.9 C35.5136429,26.5796821 35.4023304,27.2543035 35.19,27.9 C35.03,28.46 34.88,29.01 34.7,29.56 C34.6175286,29.7633315 34.5206145,29.9605015 34.41,30.15 C34.2250285,30.5046543 34.0581478,30.8684541 33.91,31.24 C33.8615339,31.4090134 33.8379528,31.5841868 33.84,31.76 C33.7110406,31.8082099 33.6138973,31.9165621 33.58,32.05 C33.447908,32.090663 33.3507568,32.2033584 33.33,32.34 C33.1953061,32.3673382 33.0964163,32.4827096 33.09,32.62 L32.99,32.62 C32.99,32.69 32.99,32.67 33.07,32.55 C33.2028534,32.5195733 33.30025,32.4059439 33.31,32.27 C33.4419717,32.2352924 33.5404066,32.1250454 33.56,31.99 L33.82,31.7 Z M41.5,41.37 C41.5067109,41.1929408 41.419213,41.0255535 41.27,40.93 C40.94,40.72 40.59,40.53 40.27,40.34 C39.95,40.15 39.71,40.08 39.45,39.93 C39.148071,39.7527723 38.7990186,39.6724902 38.45,39.7 L37.66,39.77 C37.5543698,39.6964599 37.440201,39.6360176 37.32,39.59 C37.26,39.59 37.17,39.59 37.1,39.66 C37.1516727,39.7065067 37.2132144,39.7406965 37.28,39.76 C37.4131513,39.7698535 37.5468487,39.7698535 37.68,39.76 C37.7587876,39.8716476 37.8707577,39.9556252 38,40 C39,40.37 40.06,40.79 41.06,41.25 C41.1892246,41.2700797 41.3207754,41.2700797 41.45,41.25 C41.4917546,41.3795982 41.6048795,41.4732188 41.74,41.49 C41.7567007,41.5275161 41.7804663,41.561467 41.81,41.59 C41.88,41.59 41.81,41.53 41.72,41.51 C41.6684951,41.412246 41.570204,41.3479788 41.46,41.34 L41.5,41.37 Z M15.5,8.88 C14.8900261,8.96338804 14.3576454,9.33568224 14.07,9.88 C14.055413,9.91867012 14.055413,9.96132988 14.07,10 C14.12,10.1 14.19,10.1 14.28,10 C14.61,9.71 14.95,9.43 15.28,9.13 C15.3604153,9.02894323 15.4276234,8.91804986 15.48,8.8 C15.6150158,8.76390241 15.7141896,8.64886084 15.73,8.51 C15.9426548,8.51297522 16.1392797,8.39731353 16.24,8.21 L16.33,8.21 L16.26,8.28 C16.049634,8.2853377 15.856874,8.39872593 15.75,8.58 C15.6209573,8.61323362 15.5232237,8.7187859 15.5,8.85 L15.5,8.88 Z M16.76,23.4 C16.76,23.4 16.82,23.4 16.86,23.4 C16.9,23.4 16.64,23.33 16.53,23.31 L16.33,23.17 C16.33,23.17 16.26,23.17 16.23,23.17 L16.55,23.26 C16.6161797,23.3121574 16.6864009,23.3589716 16.76,23.4 Z M25.35,5.51 C25.271707,5.50132208 25.1930467,5.52277489 25.13,5.57 C25.07,5.57 25.13,5.7 25.13,5.76 C25.1952658,5.81328397 25.2698657,5.85397482 25.35,5.88 C25.47,5.88 25.59,5.88 25.71,5.94 C25.8515458,6.10362569 26.0652271,6.18609916 26.28,6.16 C26.3812244,6.45656627 26.5527833,6.72419803 26.78,6.94 C27.654742,7.95591493 28.256926,9.17748816 28.53,10.49 C28.65,11.01 28.8,11.49 28.95,12.04 C29.1479747,12.6325231 29.1926979,13.2655272 29.08,13.88 C29.0504866,14.0083249 29.0504866,14.1416751 29.08,14.27 C29.1007857,14.354819 29.1599555,14.4250831 29.24,14.46 C29.4892816,14.5655802 29.7707184,14.5655802 30.02,14.46 C30.1298592,14.3919667 30.2032988,14.2781353 30.22,14.15 C30.2035614,13.7536666 30.1567576,13.359177 30.08,12.97 C30.0058706,12.5761137 29.9022455,12.1883552 29.77,11.81 C29.6019055,11.34971 29.4976042,10.8685781 29.46,10.38 C29.3586771,9.48681882 29.0126198,8.63897834 28.46,7.93 C28.1620618,7.49867608 27.8274895,7.09384356 27.46,6.72 C27.1321922,6.41100947 26.7004388,6.23616719 26.25,6.23 C26.1084542,6.06637431 25.8947729,5.98390084 25.68,6.01 C25.6532993,5.8012472 25.5314459,5.61662097 25.35,5.51 Z M22.23,30.68 C22.2651309,30.6950081 22.3048691,30.6950081 22.34,30.68 C22.3769062,30.6563359 22.4050144,30.6212006 22.42,30.58 C22.42,30.41 22.42,30.23 22.49,30.05 C22.4968327,29.982673 22.4722996,29.9159476 22.4234813,29.869082 C22.3746629,29.8222165 22.3069922,29.8004261 22.24,29.81 C22.1,29.81 21.97,29.81 21.84,29.81 L21.54,29.56 C21.5265746,29.4299717 21.4963217,29.3022371 21.45,29.18 C21.1770569,28.6236741 20.8415556,28.1002922 20.45,27.62 C20.39,27.56 20.35,27.47 20.28,27.42 C19.2672151,26.5503796 18.1563615,25.8019797 16.97,25.19 C16.7532135,25.1055146 16.5288648,25.0418933 16.3,25 C15.3866667,24.82 14.4666667,24.66 13.54,24.52 C13.1005308,24.448263 12.6548995,24.4214581 12.21,24.44 C11.5022134,24.4933726 10.791463,24.3874434 10.13,24.13 C9.82808473,24.0236502 9.49350344,24.0682611 9.23,24.25 C9.16,24.25 9.13,24.38 9.08,24.45 C9.03,24.52 9.14,24.51 9.17,24.51 C10.3624712,24.6307458 11.5369556,24.8891324 12.67,25.28 L12.8,25.28 C13.58,25.6 14.47,25.59 15.23,25.97 C15.9581501,26.3055882 16.7062252,26.5961353 17.47,26.84 C18.354401,27.1452865 19.1772799,27.6058277 19.9,28.2 C20.28,28.51 20.63,28.85 21.01,29.2 C21.1855728,29.3314574 21.3692717,29.4516967 21.56,29.56 L21.85,29.81 C21.8540087,30.1394112 21.9910659,30.4531999 22.23,30.68 Z M19.92,26.13 C19.92,26.13 20,26.13 20.02,26.07 C20.04,26.01 20.02,25.99 20.02,25.97 C19.7517282,25.5585213 19.309315,25.2930733 18.82,25.25 C18.7611493,25.1945698 18.697575,25.1443795 18.63,25.1 C18.63,25.1 18.56,25.1 18.52,25.1 C18.48,25.1 18.72,25.2 18.83,25.2 C19.39,25.88 19.41,25.9 19.92,26.13 Z M17.61,22.43 C17.565058,22.4366577 17.5250653,22.4621075 17.5,22.5 C17.5,22.5 17.5,22.59 17.56,22.61 C18.2214594,22.9836335 18.987996,23.1277986 19.74,23.02 C19.8602304,23.3029072 20.1428401,23.4820261 20.45,23.47 C20.529353,23.4615808 20.6034466,23.4262982 20.66,23.37 C20.72,23.32 20.59,23.11 20.48,23.1 C20.37,23.09 19.98,23.1 19.73,23.04 C19.0944812,22.6419695 18.3598747,22.4305968 17.61,22.43 Z M12.08,12.67 L13.58,13.44 C13.68,13.44 13.76,13.44 13.79,13.33 C13.7997424,13.2905932 13.7997424,13.2494068 13.79,13.21 C13.7143887,12.9083702 13.4668397,12.6804679 13.16,12.63 C12.7702557,12.6100263 12.3797443,12.6100263 11.99,12.63 C11.9346374,12.5746838 11.8743928,12.52448 11.81,12.48 C11.7759659,12.4603504 11.7340341,12.4603504 11.7,12.48 C11.62,12.55 11.65,12.6 11.77,12.6 L12,12.6 C12,12.6 12.05,12.66 12.08,12.67 Z M12.93,8.27 C12.93,8.36 12.99,8.34 13.02,8.2 C13.65,7.74 14.17,7.2 14.79,6.67 C14.8039295,6.63465628 14.8039295,6.59534372 14.79,6.56 C14.7638426,6.52490998 14.7236641,6.50299446 14.68,6.5 C14.4157944,6.47682796 14.1532051,6.55956158 13.95,6.73 C13.6455904,7.0420427 13.3648156,7.37629837 13.11,7.73 C13.02,7.85 13.05,8.06 13.02,8.23 L12.93,8.27 Z M40.93,39.65 C40.8089619,39.4669107 40.6787977,39.2900209 40.54,39.12 C39.84,38.07 39.84,38.32 38.82,38.67 C38.76,38.67 38.74,38.81 38.71,38.89 C38.68,38.97 38.71,38.96 38.78,38.98 L41.07,39.98 L41.07,40.07 L41,40.01 C41.0141668,39.8904181 41.0141668,39.7695819 41,39.65 L40.93,39.65 Z M15.6,11.56 L15.68,11.5 C15.8119168,11.484792 15.9403579,11.4476117 16.06,11.39 C16.63,11.06 17.21,10.73 17.75,10.39 C18.293785,10.0192122 18.8617141,9.68513625 19.45,9.39 C19.5,9.39 19.52,9.28 19.54,9.21 C19.56,9.14 19.47,9.21 19.43,9.21 C18.8059663,9.23044499 18.1999723,9.42436307 17.68,9.77 C17.0599246,10.0909168 16.4932239,10.5058227 16,11 C15.8361853,11.1502634 15.7271075,11.3508257 15.69,11.57 L15.6,11.56 Z M39.24,33.29 C38.5246824,32.9212808 37.7424995,32.7002292 36.94,32.64 C36.8544501,32.6203244 36.7655499,32.6203244 36.68,32.64 C36.0837171,32.8176345 35.4702944,32.9316037 34.85,32.98 C34.73,32.98 34.68,33.05 34.72,33.11 C34.7407425,33.1494254 34.776983,33.1784177 34.82,33.19 C35.4801914,33.3039562 36.1506117,33.3475336 36.82,33.32 C37.3533101,33.279573 37.8894491,33.3406522 38.4,33.5 C38.7760151,33.6425034 39.1796144,33.6972288 39.58,33.66 C40.02,33.94 40.02,33.94 40.38,33.6 C40.5053325,33.5782548 40.6266869,33.5378033 40.74,33.48 C41.2368914,33.1492031 41.6344215,32.689451 41.89,32.15 C42.01,32.03 42.19,31.93 42.25,31.78 C42.3576779,31.4898794 42.4445642,31.1924609 42.51,30.89 C42.514437,30.7579481 42.4396818,30.6359791 42.32,30.58 L41.59,30.27 C41.4726881,30.2087516 41.3484729,30.1617513 41.22,30.13 C39.9576677,29.8696916 38.6535344,29.8901754 37.4,30.19 C37.0632347,30.2940657 36.7505101,30.4640247 36.48,30.69 C36.48,30.69 36.41,30.78 36.42,30.79 C36.43,30.8 36.54,30.91 36.6,30.91 L37.66,30.91 C38.500055,30.9052302 39.3392218,30.9654095 40.17,31.09 C40.8867756,31.1738998 41.526769,31.5784933 41.91,32.19 C41.5088846,32.1921161 41.1101777,32.1279176 40.73,32 C39.8730866,31.785191 38.9934162,31.6743928 38.11,31.67 C37.8463157,31.6805511 37.5846623,31.7208055 37.33,31.79 C37.3257057,31.8164938 37.3257057,31.8435062 37.33,31.87 C37.6576101,31.9773506 37.9915905,32.0641855 38.33,32.13 C38.8988032,32.2244238 39.4408882,32.4392123 39.92,32.76 C40.2379272,32.9325871 40.4197595,33.2804403 40.38,33.64 L39.55,33.7 C39.5023975,33.5289671 39.3915866,33.3824108 39.24,33.29 Z M31.44,14.87 C31.44,14.87 31.44,14.87 31.44,14.81 C31.44,14.75 31.37,14.75 31.33,14.75 C31.07,14.75 30.82,14.75 30.66,15 C29.7138001,15.0701681 28.8093538,15.4180321 28.06,16 C27.6188948,16.237129 27.2441708,16.5809125 26.97,17 C26.9290895,17.0747698 26.9290895,17.1652302 26.97,17.24 C27.0902838,17.4298946 27.2875413,17.5577466 27.51,17.59 C27.5964667,17.6041177 27.684681,17.5783885 27.75,17.52 C27.8913324,17.3507803 28.018432,17.1701651 28.13,16.98 C28.4106831,16.5184372 28.8210917,16.149765 29.31,15.92 C29.63,15.77 29.94,15.6 30.26,15.43 C30.4272112,15.3669441 30.5634365,15.2414735 30.64,15.08 L31.44,14.87 Z M20.51,40.05 C20.51,40.05 20.51,39.92 20.51,39.84 C20.4772647,39.8310707 20.4427353,39.8310707 20.41,39.84 C20.3678531,39.8477014 20.3292934,39.868734 20.3,39.9 C20.24,40.01 20.19,40.13 20.13,40.24 L19.76,40.4 C19.5962906,40.4918253 19.3903932,40.4540074 19.27,40.31 C19.02,40 18.8,39.66 18.56,39.31 C18.4430077,39.1675484 18.2406508,39.1296065 18.08,39.22 C17.4795848,39.5980685 16.9049831,40.015657 16.36,40.47 C16.36,40.47 16.36,40.56 16.36,40.6 C16.3776215,40.6359463 16.4108221,40.661769 16.45,40.67 C16.6214478,40.7061563 16.7985522,40.7061563 16.97,40.67 C17.6102208,40.4044396 18.3297792,40.4044396 18.97,40.67 L19.73,40.93 C19.9135889,40.9460063 20.0822003,40.8279783 20.13,40.65 C20.1452317,40.5204462 20.1452317,40.3895538 20.13,40.26 C20.2646337,40.2055004 20.392218,40.1349933 20.51,40.05 Z M38.16,26.59 C38.16,26.67 38.22,26.59 38.24,26.52 C38.4546561,26.47328 38.6653056,26.4097508 38.87,26.33 C39.99,25.79 41.15,25.33 42.31,24.89 C42.3847804,24.8475988 42.4495763,24.7896235 42.5,24.72 C42.5,24.72 42.5,24.63 42.44,24.61 C42.38,24.59 42.22,24.43 42.1,24.42 C41.5667774,24.357313 41.0274371,24.4658815 40.56,24.73 C40.2088872,24.9212163 39.8484377,25.0947661 39.48,25.25 C39.0408499,25.4663142 38.6549703,25.7770669 38.35,26.16 C38.28,26.25 38.29,26.41 38.26,26.53 C38.23,26.65 38.16,26.58 38.16,26.59 Z M19.48,17.43 C19.3404363,17.0908975 18.9948851,16.8835668 18.63,16.92 C17.7397529,16.9756962 16.8614593,17.154047 16.02,17.45 C15.5702693,17.5829671 15.2510026,17.9820504 15.22,18.45 C15.216823,18.5349903 15.2538773,18.6165096 15.32,18.67 C15.387646,18.7235893 15.4750938,18.7454512 15.56,18.73 C15.7333811,18.685986 15.9011434,18.6222363 16.06,18.54 C16.4534635,18.3244659 16.8650333,18.1437767 17.29,18 C17.9244864,17.737458 18.6286735,17.6952068 19.29,17.88 C19.4229146,17.8949444 19.5570854,17.8949444 19.69,17.88 L19.81,18.18 C19.88,18.03 19.76,17.97 19.67,17.9 C19.6200409,17.7382532 19.5564807,17.5810253 19.48,17.43 Z M14.33,15.51 C14.2568989,15.110383 14.0354291,14.7531736 13.71,14.51 C13.4979072,14.3507601 13.2942953,14.1805272 13.1,14 C12.9097586,13.8126684 12.6761655,13.6752607 12.42,13.6 C11.849494,13.3548518 11.2400873,13.2126569 10.62,13.18 C10.4013483,13.1739605 10.1878921,13.1119893 10,13 C9.5661699,12.7486529 9.02273321,12.7883198 8.63,13.1 C8.63,13.1 8.53,13.18 8.54,13.18 C8.55,13.18 8.62,13.34 8.69,13.36 C8.90004127,13.4284048 9.11369991,13.4851578 9.33,13.53 C10.1507346,13.7207511 10.9486343,13.9990102 11.71,14.36 C12.5427147,14.7113355 13.2673496,15.2772408 13.81,16 C13.9556456,16.228263 14.1797038,16.3954175 14.44,16.47 L14.44,16.72 C14.44,16.72 14.44,16.82 14.51,16.82 C14.58,16.82 14.65,16.73 14.58,16.64 C14.5253297,16.5799097 14.4611376,16.5292318 14.39,16.49 C14.39,16.13 14.39,15.81 14.33,15.51 Z M31.83,6.16 C32.7446658,6.80024325 33.3501222,7.79362685 33.5,8.9 C33.5921391,9.32795229 33.6489967,9.76274533 33.67,10.2 C33.6768107,10.880759 33.5651461,11.5575139 33.34,12.2 C33.2927747,12.3675499 33.2560368,12.53788 33.23,12.71 C33.23,12.71 33.14,12.71 33.14,12.77 C33.14,12.83 33.14,12.77 33.21,12.7 C33.6512299,12.4667743 34.0028506,12.0940564 34.21,11.64 C34.5134413,11.0476384 34.7162098,10.4089175 34.81,9.75 C34.8355957,9.62125988 34.8355957,9.48874012 34.81,9.36 C34.6631249,8.59964707 34.3892987,7.86944408 34,7.2 C33.8445937,6.93453312 33.6527251,6.69217279 33.43,6.48 C32.82727,5.95629782 32.1173772,5.57063491 31.35,5.35 C31.1742391,5.32470071 30.9957609,5.32470071 30.82,5.35 L30.82,5.27 L30.88,5.33 C31.1591817,5.64684566 31.4785492,5.92587204 31.83,6.16 Z M12.45,23 C12.4354495,23.0317455 12.4354495,23.0682545 12.45,23.1 C12.45,23.1 12.53,23.16 12.56,23.1 C12.7670855,23.0153857 12.9299569,22.8488949 13.01,22.64 C13.2218953,22.5782414 13.4290926,22.5013779 13.63,22.41 C15.444917,21.4022785 17.6134937,21.2520899 19.55,22 L19.67,22 C20.54,22.28 20.8,22 20.61,21.08 C20.5756171,20.8538196 20.4231164,20.6631936 20.21,20.58 C19.9002474,20.4210868 19.5580938,20.3355484 19.21,20.33 C18.9904539,20.3499862 18.7695461,20.3499862 18.55,20.33 C17.2567984,20.2092813 15.9584814,20.4997403 14.84,21.16 C14.4401713,21.3575343 14.0557552,21.5848413 13.69,21.84 C13.3717571,22.0098421 13.1368869,22.3025266 13.04,22.65 C12.7962802,22.6576131 12.5735176,22.7897604 12.45,23 Z M3.2,36.9 L3.27,36.83 C3.69501528,36.5628766 4.04040185,36.1864052 4.27,35.74 C4.56582688,35.2436456 4.98643561,34.8333798 5.49,34.55 C5.76141494,34.393046 6.01607226,34.2087545 6.25,34 C6.93037273,33.429619 7.70542528,32.9828639 8.54,32.68 C8.83,32.56 9.12,32.45 9.41,32.32 C9.48,32.32 9.52,32.2 9.57,32.14 C9.62,32.08 9.49,31.89 9.34,31.85 C9.13355244,31.7721588 8.91879078,31.7184683 8.7,31.69 C8.39031167,31.6703413 8.07968833,31.6703413 7.77,31.69 C7.54567115,31.6967109 7.33478432,31.7985183 7.19,31.97 C6.74021451,32.5235105 6.15444354,32.9507787 5.49,33.21 C4.6809665,33.5871023 3.96421456,34.1366121 3.39,34.82 C3.11255298,35.1681063 2.93921545,35.5875831 2.89,36.03 C2.89076952,36.1163748 2.93136188,36.1975595 3,36.25 C3.18377706,36.3775321 3.303955,36.5778287 3.33,36.8 L3.2,36.9 Z M28.74,43.71 C28.15,44.24 27.56,44.79 26.92,45.27 C26.3595565,45.7120908 25.8467793,46.2114621 25.39,46.76 C24.9,47.33 24.39,47.91 23.91,48.48 C23.0668936,49.4596965 22.3294804,50.5255937 21.71,51.66 C21.6439059,51.7744784 21.6439059,51.9155216 21.71,52.03 C21.8590143,52.1267219 22.0509857,52.1267219 22.2,52.03 C22.2766036,51.9820152 22.3471166,51.9249333 22.41,51.86 C22.5366032,51.7375711 22.6474572,51.5998433 22.74,51.45 C23.1204739,50.7921531 23.5769376,50.1812973 24.1,49.63 C24.599067,49.1240979 25.0355294,48.5600541 25.4,47.95 C25.4621208,47.8280435 25.5552383,47.7245797 25.67,47.65 C26.11,47.35 26.43,46.9 26.84,46.56 C27.76,45.79 28.55,44.87 29.48,44.11 C29.54,44.06 29.63,43.98 29.63,43.91 C29.63,43.84 29.52,43.78 29.48,43.7 C29.44,43.62 29.33,43.39 29.25,43.24 C29.47,43.24 29.7,43.24 29.92,43.24 C30.4657039,43.2178894 30.9661145,42.93034 31.26,42.47 C31.4009211,42.2459471 31.5885224,42.0549349 31.81,41.91 C32.75,41.3 33.67,40.68 34.6,40.06 L35.28,39.63 C35.39,39.56 35.56,39.51 35.6,39.41 C35.85,38.8 36.37,38.75 36.92,38.69 C37.1381412,38.6473236 37.3498812,38.5767436 37.55,38.48 L39,38 C39,38 39.1,37.93 39.09,37.91 C39.069943,37.8264412 39.0324577,37.7480629 38.98,37.68 C38.729514,37.3978439 38.3528536,37.2622462 37.98,37.32 C37.6712155,37.3447862 37.367867,37.4155675 37.08,37.53 C36.160235,37.8806547 35.2843553,38.3370517 34.47,38.89 C33.7675824,39.280591 33.1216443,39.7650445 32.55,40.33 C32.3711456,40.5284798 32.1618655,40.6972541 31.93,40.83 C31.2016855,41.3405625 30.5130527,41.9055089 29.87,42.52 C29.5859344,42.7401508 29.3537807,43.0201008 29.19,43.34 C29.09,43.43 28.91,43.56 28.74,43.71 Z M38.16,16.57 C37.8543397,16.3128481 37.4904402,16.1343314 37.1,16.05 C35.5408279,15.6759327 33.9434097,15.4846452 32.34,15.48 C31.8916247,15.4576845 31.4439574,15.5362826 31.03,15.71 C30.51,15.95 29.98,16.2 29.47,16.46 C29.1557243,16.6329819 28.8854283,16.8759062 28.68,17.17 C28.5860092,17.2687832 28.5418776,17.4048558 28.56,17.54 C28.56,17.63 28.72,17.65 28.91,17.54 C29.41,17.37 29.91,17.21 30.42,17.01 C30.7058774,16.8877235 31.0099514,16.8133942 31.32,16.79 C32.25,16.71 33.18,16.61 34.12,16.55 C35.1886184,16.4681317 36.2624216,16.6147144 37.27,16.98 C37.905475,17.1848855 38.5240147,17.4389883 39.12,17.74 C39.2487401,17.7655957 39.3812599,17.7655957 39.51,17.74 C39.51,17.74 39.51,17.83 39.57,17.83 C39.63,17.83 39.57,17.83 39.49,17.76 C39.1135084,17.2944268 38.6644118,16.8926036 38.16,16.57 Z M30.48,35.73 C29.2567894,36.3723121 27.9864516,36.9205632 26.68,37.37 C26.2581359,37.5168055 25.8654587,37.7368401 25.52,38.02 L22.75,40.1 C22.5715866,40.2332957 22.4132957,40.3915866 22.28,40.57 C21.4649378,41.6873587 20.7457144,42.8715684 20.13,44.11 C19.8609763,44.7719805 19.5259516,45.4051771 19.13,46 C18.99,46.17 19.22,46.56 19.48,46.61 C19.5678778,46.6214529 19.6568923,46.6000894 19.73,46.55 C19.8692299,46.4461425 19.987917,46.3172823 20.08,46.17 C20.4019762,45.5809286 20.7949026,45.0335182 21.25,44.54 C21.4349897,44.3466056 21.5961385,44.1317405 21.73,43.9 C22.2632546,43.0122679 22.9389471,42.2183293 23.73,41.55 C25.028391,40.3282675 26.3938402,39.1798213 27.82,38.11 C28.380349,37.6759715 29.0089038,37.3380388 29.68,37.11 C29.8506785,37.057966 30.0125078,36.9804228 30.16,36.88 C31.0073387,36.3826994 31.9290908,36.024803 32.89,35.82 C33.0187401,35.7944043 33.1512599,35.7944043 33.28,35.82 C33.3223963,35.8269865 33.3611726,35.8481372 33.39,35.88 C33.39,35.97 33.39,36.08 33.32,36.12 C32.9923974,36.351239 32.6217613,36.5144549 32.23,36.6 C31.7584488,36.7344479 31.3075768,36.9329662 30.89,37.19 C30.8143923,37.2409928 30.7340158,37.28453 30.65,37.32 C30.1146284,37.5402733 29.5906373,37.78725 29.08,38.06 C28.59,38.36 28.17,38.77 27.71,39.06 C27.118039,39.4554681 26.5714132,39.914902 26.08,40.43 C25.5485721,40.9902462 24.9806656,41.5147246 24.38,42 C23.7734072,42.5248325 23.2417727,43.130492 22.8,43.8 C22.6,44.09 22.37,44.37 22.16,44.65 L20.74,46.65 C20.3146814,47.2665648 19.9780607,47.9398063 19.74,48.65 C19.6454217,48.8563455 19.6454217,49.0936545 19.74,49.3 C19.7618406,49.3283422 19.7943974,49.3464294 19.83,49.35 C19.8721469,49.3422986 19.9107066,49.321266 19.94,49.29 C20.25,48.8 20.59,48.29 20.87,47.82 C21.5819309,46.5836342 22.4197133,45.4241434 23.37,44.36 C23.9686912,43.6286572 24.6386572,42.9586912 25.37,42.36 C25.99,41.86 26.55,41.27 27.18,40.78 C28.0825974,40.105073 29.0242338,39.4839937 30,38.92 C30.57,38.58 31.14,38.23 31.69,37.84 C32.1375817,37.5500658 32.605458,37.2927338 33.09,37.07 C33.6587418,36.8252943 34.1826163,36.4873108 34.64,36.07 C34.75,35.95 34.74,35.79 34.64,35.75 C34.26,35.64 33.87,35.55 33.49,35.42 C33.0108257,35.2547254 32.4955839,35.2236034 32,35.33 C31.4662972,35.3219023 30.9405844,35.4602478 30.48,35.73 Z M25,50.09 C24.831589,50.1604363 24.7241613,50.3275461 24.73,50.51 C24.7451002,50.6426139 24.8343097,50.7550955 24.96,50.8 C25.041389,50.8414998 25.1293595,50.8685676 25.22,50.88 C26.2260687,51.0803513 27.1879946,51.4597024 28.06,52 C29.46,52.77 30.85,53.56 32.21,54.42 C32.93,54.88 33.55,55.42 34.21,55.96 C34.298362,56.0532784 34.3544468,56.1724586 34.37,56.3 C34.37,56.37 34.3,56.45 34.25,56.52 C34.2089178,56.5397533 34.1610822,56.5397533 34.12,56.52 C33.6264818,56.3196543 33.1675419,56.0429405 32.76,55.7 C31.0308892,54.439228 29.2014429,53.3221621 27.29,52.36 C26.5433304,51.9610623 25.7460912,51.665041 24.92,51.48 C24.7020185,51.4387204 24.4815312,51.4119947 24.26,51.4 C23.8884148,51.3968649 23.5662121,51.6563008 23.49,52.02 C23.49,52.14 23.49,52.34 23.61,52.38 C23.8544286,52.4847831 24.1048704,52.5749421 24.36,52.65 C25.3970359,52.9198662 26.4026272,53.2986389 27.36,53.78 C28.1219273,54.1463518 28.8370566,54.6029601 29.49,55.14 C29.88,55.44 30.24,55.78 30.62,56.08 C31.15,56.49 31.7,56.88 32.24,57.26 C32.5320435,57.4641899 32.9054564,57.5127336 33.24,57.39 C34.3812601,57.0151715 35.499807,56.5744306 36.59,56.07 C36.6444328,56.032713 36.6769735,55.9709791 36.6769735,55.905 C36.6769735,55.8390209 36.6444328,55.777287 36.59,55.74 C36.33,55.57 36.07,55.4 35.82,55.22 C35.5518109,55.0606873 35.2945708,54.883626 35.05,54.69 C34.3916676,54.157792 33.6891187,53.6827352 32.95,53.27 C32.37,52.93 31.81,52.57 31.24,52.22 L31.01,52.09 C29.71,51.51 28.47,50.8 27.11,50.34 C26.7830733,50.2197701 26.4491204,50.1195842 26.11,50.04 C25.8289154,49.9946204 25.5447216,49.9712162 25.26,49.97 L25,50.09 Z M21.22,11.59 C21.1805746,11.6107425 21.1515823,11.646983 21.14,11.69 C20.7681417,12.9387122 19.9493516,14.0066993 18.84,14.69 C18.7290637,14.763179 18.6282037,14.850591 18.54,14.95 C18.5039763,15.0259447 18.5039763,15.1140553 18.54,15.19 C18.5661488,15.2744874 18.6233133,15.345943 18.7,15.39 C19.4887521,15.9015158 20.0891192,16.6563633 20.41,17.54 C20.54,17.82 20.63,18.12 20.75,18.41 C21.0388618,19.0616605 21.2114647,19.7588412 21.26,20.47 C21.3076198,21.043771 21.4425053,21.6069176 21.66,22.14 C21.66,22.14 21.72,22.23 21.75,22.23 C21.78,22.23 21.95,22.23 21.99,22.16 C22.2790291,21.7892426 22.5461509,21.401916 22.79,21 C23.1445678,20.3790883 23.6590883,19.8645678 24.28,19.51 C24.8746483,19.1137552 25.5078753,18.7787145 26.17,18.51 C26.3299168,18.4336385 26.4808446,18.3397279 26.62,18.23 C26.6532761,18.2023102 26.6747351,18.1629686 26.68,18.12 C26.68,18.12 26.62,18.04 26.59,18.04 C26.233166,18.0374186 25.8959915,17.8761613 25.67,17.6 C25.4656653,17.3618034 25.1990413,17.1852083 24.9,17.09 L24.77,17.09 C23.6530191,16.7296745 22.7548275,15.8901403 22.32,14.8 C21.8749741,13.9760781 21.6155773,13.0647761 21.56,12.13 C21.5404086,11.9548156 21.49666,11.7831866 21.43,11.62 C21.43,11.62 21.35,11.62 21.31,11.62 C21.27,11.62 21.23,11.56 21.21,11.59 L21.22,11.59 Z M35.73,36.26 C35.53,36.36 35.33,36.46 35.14,36.58 C33.92,37.31 32.68,38.03 31.48,38.79 C30.28,39.55 28.94,40.46 27.74,41.38 C27.5917264,41.475347 27.4512824,41.582352 27.32,41.7 C26.6346993,42.4140226 25.9031161,43.0821352 25.13,43.7 C24.9996798,43.8236706 24.8793073,43.9574178 24.77,44.1 C23.5999742,45.4438065 22.5430416,46.8820377 21.61,48.4 C21.44,48.67 21.29,48.94 21.11,49.2 C20.7066292,49.8416008 20.4189359,50.5489879 20.26,51.29 C20.2455237,51.3321243 20.2455237,51.3778757 20.26,51.42 C20.26,51.5 20.32,51.6 20.39,51.64 C20.4671646,51.670122 20.5528354,51.670122 20.63,51.64 C20.7102081,51.6015937 20.7816821,51.5471373 20.84,51.48 C20.9342556,51.3833662 21.0119611,51.2718757 21.07,51.15 C21.685719,49.9598779 22.4705289,48.865186 23.4,47.9 C23.97,47.27 24.5,46.61 25.09,46 C25.68,45.39 26.26,44.91 26.85,44.36 C27.0195007,44.2204671 27.179833,44.0701556 27.33,43.91 C28.5695413,42.5612098 29.9546512,41.35385 31.46,40.31 C32.27,39.69 33.09,39.07 33.94,38.5 C34.7606499,37.9351911 35.6231469,37.4337393 36.52,37 C36.6740945,36.917268 36.8155332,36.8128728 36.94,36.69 C36.9537258,36.6511775 36.9537258,36.6088225 36.94,36.57 C36.6908081,36.3165194 36.3550724,36.1665099 36,36.15 C35.9040375,36.1795853 35.8104394,36.216356 35.72,36.26 L35.73,36.26 Z M17.89,65.19 C17.576992,64.7057827 17.3597361,64.1660375 17.25,63.6 C17.1399132,63.1179814 16.905463,62.6732156 16.57,62.31 C15.8437815,61.3513494 15.2203554,60.3190094 14.71,59.23 C14.2745657,58.4588174 13.7937193,57.7141734 13.27,57 C12.55,55.93 11.68,55 10.9,54 C10.7328708,53.7908946 10.5114695,53.6317624 10.26,53.54 C10.0128652,53.4243289 9.7271348,53.4243289 9.48,53.54 C9.36,53.6 9.23,53.64 9.11,53.69 C9.04673881,53.7077298 8.9971261,53.7568832 8.97880863,53.8199767 C8.96049115,53.8830702 8.97606851,53.9511497 9.02,54 C10.02,55.08 10.88,56.28 11.77,57.44 C12.0397182,57.7954561 12.2836736,58.1697439 12.5,58.56 C13.32,59.94 14.12,61.32 14.92,62.71 C15.39,63.91 16.16,64.97 16.52,66.22 C16.5834519,66.4326973 16.6637044,66.6400164 16.76,66.84 C16.9919439,67.3260727 17.1277675,67.8523889 17.16,68.39 C17.1598561,68.5672207 17.1903031,68.7431364 17.25,68.91 C17.3058513,69.0274246 17.4129416,69.1123583 17.54,69.14 C18.0517832,69.184944 18.5143566,68.8347716 18.61,68.33 C18.61,68.15 18.61,67.97 18.61,67.75 C18.5046658,66.8644013 18.2617418,66.0006716 17.89,65.19 Z M30.89,44.1 C30.4613266,44.3618 30.0849554,44.7008731 29.78,45.1 C29.78,45.1 29.78,45.28 29.78,45.33 C29.8788255,45.416376 29.9946447,45.4810984 30.12,45.52 C31,45.83 31.92,46.05 32.77,46.43 C33.8709957,46.9186854 35.0035392,47.3329491 36.16,47.67 C36.8366633,47.9135632 37.476132,48.2501257 38.06,48.67 C39.32,49.5 40.58,50.35 41.85,51.18 C42.0141297,51.2594076 42.2117116,51.2035693 42.31,51.05 C42.4926134,50.647266 42.626882,50.2243198 42.71,49.79 C42.71,49.66 42.71,49.6 42.5,49.53 C42.29,49.46 42.3,49.53 42.25,49.46 C41.8225141,49.0077054 41.3424336,48.6081978 40.82,48.27 C40.09,47.75 39.35,47.27 38.61,46.76 C37.7466034,46.201934 36.7972518,45.78976 35.8,45.54 C35.29,45.39 34.8,45.23 34.28,45.03 C33.37,44.68 32.42,44.41 31.49,44.1 L31.2,44.1 C31.1067207,44.0955071 31.0132793,44.0955071 30.92,44.1 L30.89,44.1 Z M25.43,20.1 C25.2161654,20.1642089 24.9844346,20.1193578 24.81,19.98 C24.7363416,19.9349522 24.6436584,19.9349522 24.57,19.98 C24.3767152,20.1601395 24.1931238,20.3504069 24.02,20.55 C24.0062742,20.5888225 24.0062742,20.6311775 24.02,20.67 C24.02,20.73 24.14,20.81 24.2,20.82 C24.3281997,20.8505965 24.4618003,20.8505965 24.59,20.82 C25.1799579,20.6056203 25.8023114,20.4940026 26.43,20.49 L26.83,20.49 C28.0633869,20.3060678 29.3196772,20.3433163 30.54,20.6 C30.9349504,20.6806549 31.3449723,20.573532 31.65,20.31 C31.87,20.13 31.97,20.15 32.19,20.43 C32.3192398,20.612333 32.5058336,20.7461173 32.72,20.81 L33.11,20.89 C34.470446,21.1497887 35.8080164,21.5176206 37.11,21.99 L37.24,21.99 C38.8822736,22.3823811 40.4779776,22.9489231 42,23.68 C42.2433835,23.7929773 42.4939224,23.8898523 42.75,23.97 C42.81,23.97 42.9,23.97 42.97,23.87 C43.04,23.77 42.97,23.79 42.97,23.75 C42.9254426,23.3005978 42.6740403,22.8976147 42.29,22.66 C42.0944099,22.5563125 41.9041687,22.4428352 41.72,22.32 C40.9012985,21.6944626 39.9812639,21.2141504 39,20.9 C38.4485068,20.7300616 37.9103663,20.5194849 37.39,20.27 C37.2708358,20.2092736 37.1424282,20.1687238 37.01,20.15 C36.31,19.99 35.62,19.86 34.93,19.65 C34.4600285,19.5216705 33.97685,19.4478515 33.49,19.43 C32.5966667,19.37 31.7066667,19.33 30.82,19.31 C30.2,19.31 29.58,19.31 28.95,19.31 L28.16,19.37 C27.2343873,19.4846046 26.3271082,19.7164648 25.46,20.06 L25.43,20.1 Z M12.07,50.9 C11.8522451,50.9446373 11.631756,50.974704 11.41,50.99 C10.3823637,51.1010045 9.37374647,51.3464347 8.41,51.72 C7.8161223,51.9159817 7.25615945,52.2027097 6.75,52.57 C6.6350341,52.6322698 6.50962907,52.6729417 6.38,52.69 C6.34105029,52.7029632 6.29894971,52.7029632 6.26,52.69 C6.21976988,52.6691393 6.19027279,52.6321972 6.17883378,52.5883477 C6.16739477,52.5444982 6.17508691,52.4978546 6.2,52.46 C6.37996711,52.1519748 6.63441812,51.8940853 6.94,51.71 C7.16,51.55 7.39,51.41 7.59,51.24 C7.59,51.24 7.59,51.09 7.59,51.02 C7.59,50.95 7.52,50.95 7.49,50.96 C7.2345216,51.0418534 6.98408769,51.1386879 6.74,51.25 C6.37040831,51.4147914 6.07479143,51.7104083 5.91,52.08 C5.74031636,52.4265008 5.54650619,52.7606563 5.33,53.08 C5.08656823,53.455021 4.92630529,53.8778424 4.86,54.32 C4.84703675,54.3589497 4.84703675,54.4010503 4.86,54.44 C4.88261606,54.478575 4.92034268,54.5059258 4.96403808,54.5154248 C5.00773349,54.5249238 5.0534102,54.5157042 5.09,54.49 C5.73,54.16 6.36,53.84 6.99,53.49 C7.11639063,53.4425469 7.20273154,53.3248093 7.21,53.19 C7.21,53.01 7.34,52.94 7.48,52.99 C8.14005467,53.1862654 8.84814805,53.1437798 9.48,52.87 C9.89894103,52.7209522 10.3363554,52.6301046 10.78,52.6 C11.2251331,52.5732961 11.6669355,52.5063564 12.1,52.4 C12.4264876,52.3170204 12.7635459,52.2833146 13.1,52.3 C13.2789308,52.3203607 13.4601491,52.2998454 13.63,52.24 C14.0162398,52.1289318 14.4199452,52.0916145 14.82,52.13 C15.62,52.13 16.42,52.19 17.22,52.28 C17.6643518,52.3309047 18.0970196,52.4559727 18.5,52.65 C18.7873531,52.7682447 19.0853841,52.8586586 19.39,52.92 C19.44,52.92 19.53,52.85 19.58,52.8 C19.5995658,52.7623926 19.5995658,52.7176074 19.58,52.68 C19.099647,52.1485085 18.5706811,51.663065 18,51.23 C17.8505988,51.1303576 17.6893546,51.0497355 17.52,50.99 C16.4186311,50.6105713 15.2519704,50.4575109 14.09,50.54 L12.07,50.9 Z M30.54,17.73 C30.0981449,17.8008478 29.6816747,17.9832686 29.33,18.26 C29.3198387,18.2993547 29.3198387,18.3406453 29.33,18.38 C29.3166667,18.412 29.3166667,18.448 29.33,18.48 C29.86,18.55 30.39,18.64 30.91,18.68 C31.71,18.68 32.51,18.74 33.31,18.8 C34.3739993,18.8364347 35.4261661,19.0354021 36.43,19.39 C37.14,19.66 37.86,19.87 38.58,20.1 C39.2199031,20.2926008 39.8395013,20.5471385 40.43,20.86 L42.09,21.72 C42.18,21.72 42.26,21.72 42.31,21.72 C42.3237258,21.6811775 42.3237258,21.6388225 42.31,21.6 C42.0030949,20.8105157 41.5782674,20.0721251 41.05,19.41 C40.8421462,19.11909 40.5308681,18.9187271 40.18,18.85 C39.8377504,18.7648129 39.5032456,18.6510812 39.18,18.51 C38.56,18.27 37.95,17.99 37.33,17.76 C36.0329856,17.2839077 34.6437718,17.1128222 33.27,17.26 C32.3514773,17.3623379 31.4398639,17.5192823 30.54,17.73 Z M21.25,31 C21.2695658,30.9623926 21.2695658,30.9176074 21.25,30.88 C21.0177911,30.4508536 20.7171829,30.0624273 20.36,29.73 C19.1394997,28.5494729 17.6652819,27.663574 16.05,27.14 C14.87,26.75 13.67,26.41 12.5,26 C11.648937,25.7450738 10.7842457,25.5380821 9.91,25.38 C9.56540583,25.2837786 9.20700911,25.2465865 8.85,25.27 C8.45522808,25.3207096 8.06658847,25.4111689 7.69,25.54 C7.35073604,25.6652336 7.07897104,25.926128 6.94,26.26 C6.89980116,26.3922386 6.97008981,26.5328159 7.1,26.58 C7.48637245,26.6790733 7.88166138,26.7393716 8.28,26.76 C8.90638282,26.7786518 9.52939876,26.8590409 10.14,27 L13.14,27.52 C13.7503313,27.6456872 14.3396042,27.8578254 14.89,28.15 C16.25,28.82 17.57,29.56 18.98,30.15 C19.2614056,30.2773823 19.5351974,30.4209561 19.8,30.58 C20.2213239,30.8187734 20.6630673,31.0195659 21.12,31.18 C21.2,31.07 21.24,31.05 21.25,31 Z M6.63,27.51 C6.56,27.51 6.51,27.63 6.46,27.7 C6.41,27.77 6.46,28 6.58,28.05 C6.65578351,28.0979292 6.73618652,28.1381307 6.82,28.17 C7.29830417,28.2733276 7.78257259,28.3468029 8.27,28.39 C8.861302,28.4164556 9.44491527,28.5345276 10,28.74 C10.71,29 11.46,29.13 12.17,29.38 C12.8465106,29.6049606 13.5340736,29.7952086 14.23,29.95 C14.44,29.95 14.65,30.09 14.87,30.13 C15.347847,30.2424504 15.7994601,30.4461856 16.2,30.73 C17.0165347,31.267359 17.8840649,31.7228962 18.79,32.09 C19.8309404,32.5073741 20.73967,33.1984233 21.42,34.09 C21.58,34.31 21.75,34.51 21.92,34.71 C21.9582576,34.726697 22.0017424,34.726697 22.04,34.71 C22.1158553,34.6886312 22.182603,34.6429617 22.23,34.58 C22.3589562,34.2980098 22.4205787,33.9898972 22.41,33.68 C22.4084417,33.2869229 22.2235267,32.9170929 21.91,32.68 C21.2827078,32.19473 20.6133902,31.7663668 19.91,31.4 L18.61,30.73 C18.1828865,30.4940018 17.7421074,30.28363 17.29,30.1 C16.7545191,29.8799746 16.2305157,29.6329921 15.72,29.36 C15.28,29.14 14.84,28.93 14.4,28.73 C13.6082372,28.3713799 12.7700632,28.1256502 11.91,28 C10.73,27.81 9.54,27.62 8.35,27.45 C8.01692427,27.4314672 7.68307573,27.4314672 7.35,27.45 C7.07,27.44 6.84,27.46 6.63,27.51 Z M20.06,66.06 C19.87,65.52 19.67,64.98 19.47,64.44 C19.3715864,64.2420646 19.2944868,64.0342309 19.24,63.82 C19.121637,63.2046858 18.8801358,62.6196406 18.53,62.1 C17.92,60.97 17.22,59.89 16.66,58.73 C16.2848931,58.0198545 15.8743766,57.3289853 15.43,56.66 C15.3087788,56.4745097 15.17514,56.2974383 15.03,56.13 C14.69,55.72 14.33,55.33 14.03,54.9 C13.5006538,54.2416126 12.8611879,53.6799653 12.14,53.24 C12.05,53.18 11.88,53.24 11.75,53.24 C11.62,53.24 11.51,53.45 11.56,53.54 C11.6504141,53.7406847 11.7609817,53.9316651 11.89,54.11 C12.22,54.53 12.57,54.93 12.89,55.33 C13.5475936,56.1156671 14.1522587,56.9441585 14.7,57.81 C15.06,58.36 15.29,59 15.65,59.56 C16.15,60.35 16.6,61.17 17.09,61.97 C17.4550241,62.5281548 17.7568774,63.1251534 17.99,63.75 C18.0296262,63.8740639 18.0798098,63.9945044 18.14,64.11 C18.7358257,65.2056309 19.1926846,66.371293 19.5,67.58 C19.5,67.58 19.56,67.67 19.59,67.67 C19.6747444,67.6596851 19.7546579,67.6249401 19.82,67.57 C20.0492266,67.2880261 20.1698474,66.9332591 20.16,66.57 C20.1369081,66.3981511 20.1035147,66.2278444 20.06,66.06 Z M38.8,54.51 C38.2830539,53.9152291 37.6756021,53.4056445 37,53 C35.31,52 33.58,51.07 31.82,50.22 C31.2643272,49.9259985 30.6622094,49.7298028 30.04,49.64 C29.4660388,49.5516424 28.9072793,49.3833414 28.38,49.14 C27.8468117,48.9102691 27.2901999,48.7392618 26.72,48.63 C26.4962451,48.6027152 26.2760762,48.7031431 26.15,48.89 C26.0759368,49.0059824 26.0971325,49.1585913 26.2,49.25 C26.312883,49.3206526 26.4337212,49.3777151 26.56,49.42 C27.9829673,49.8035304 29.350813,50.3681449 30.63,51.1 C31.99,51.86 33.36,52.6 34.7,53.4 C35.46,53.85 36.14,54.4 36.86,54.97 C37.028019,55.1191862 37.1495263,55.313598 37.21,55.53 C37.29,55.73 37.37,55.75 37.51,55.7 C37.9741523,55.5429351 38.4073215,55.3060457 38.79,55 C38.8448413,54.9341059 38.8887344,54.8598252 38.92,54.78 C38.9027304,54.6815261 38.8615216,54.5888063 38.8,54.51 Z M16,53.13 C15.9317831,53.1750605 15.8876571,53.2486037 15.88,53.33 C15.9125481,53.4550926 15.966695,53.5735391 16.04,53.68 C16.65,54.5 17.27,55.31 17.87,56.13 C19.0412225,57.6972965 20.1326103,59.3226967 21.14,61 C21.52,61.65 21.8,62.35 22.14,63 C22.23,63.18 22.37,63.28 22.43,63.21 C22.5150979,63.1160242 22.5828175,63.0076729 22.63,62.89 C22.7188062,62.6850014 22.7364087,62.456169 22.68,62.24 C22.5513721,61.954976 22.4996554,61.6412283 22.53,61.33 C22.5477561,60.3465731 22.2840672,59.3785575 21.77,58.54 C21.39,57.84 20.95,57.17 20.53,56.54 C20.4578164,56.4281508 20.374018,56.3242408 20.28,56.23 L18.23,54.14 C18.02,53.92 17.84,53.66 17.64,53.42 C17.4805803,53.2020163 17.2298982,53.0693022 16.96,53.06 L16.34,53.06 C16.2232516,53.061547 16.1078646,53.0853031 16,53.13 Z M7,29.2 C7.00064534,29.2892085 7.04095969,29.3735021 7.11,29.43 C7.59508495,29.8301438 8.17875894,30.0926244 8.8,30.19 C9.5,30.31 10.15,30.63 10.8,30.78 C11.0978032,30.8714401 11.3832676,30.9990595 11.65,31.16 C12.602524,31.7168859 13.607325,32.1790944 14.65,32.54 C14.9043918,32.6278313 15.151766,32.7348039 15.39,32.86 C15.7904184,33.052246 16.2010288,33.2224991 16.62,33.37 C17.2081089,33.5740029 17.7689658,33.8493937 18.29,34.19 C18.9982949,34.6356864 19.6673758,35.1408424 20.29,35.7 L21.12,36.38 C21.2172109,36.4752857 21.3727891,36.4752857 21.47,36.38 C21.5485288,36.2691669 21.5485288,36.1208331 21.47,36.01 C21.16,35.52 20.89,35.01 20.54,34.55 C19.9244355,33.7789077 19.1176754,33.1824568 18.2,32.82 C17.2469554,32.4452695 16.343529,31.954934 15.51,31.36 C15.075757,31.0458343 14.5709476,30.8432237 14.04,30.77 C13.155698,30.6373053 12.292015,30.391979 11.47,30.04 C10.732633,29.7348266 9.95995636,29.5231804 9.17,29.41 C8.64,29.35 8.17,29.2 7.6,29.1 C7.43011069,29.0913244 7.25988931,29.0913244 7.09,29.1 C7.07,29.11 7,29.15 7,29.2 Z M12.58,46.88 C12.32,46.96 12.09,47.11 11.84,47.18 C11.2308835,47.3249814 10.6694639,47.6246348 10.21,48.05 C9.542262,48.4094992 9.0747523,49.0537055 8.94,49.8 C8.92380547,49.8418203 8.92380547,49.8881797 8.94,49.93 C9.00226628,49.9836784 9.07861515,50.0183824 9.16,50.03 C9.24825269,50.0306015 9.33489163,50.0063426 9.41,49.96 C9.66015714,49.8696317 9.90402843,49.7627292 10.14,49.64 C10.8615634,49.2963906 11.6028639,48.9958634 12.36,48.74 C12.4373127,48.69536 12.5219743,48.6648818 12.61,48.65 C13.8241751,48.378743 15.0660354,48.2512006 16.31,48.27 C16.7552057,48.2918353 17.1895611,48.4149597 17.58,48.63 C17.74,48.71 17.89,48.8 18.06,48.87 C18.181053,48.9307976 18.3253177,48.9225564 18.4386597,48.8483689 C18.5520016,48.7741815 18.6172802,48.645267 18.61,48.51 C18.6203515,48.3768676 18.6203515,48.2431324 18.61,48.11 C18.56,47.85 18.45,47.6 18.41,47.34 C18.3751326,46.9276334 18.0746801,46.5865792 17.67,46.5 C17.546367,46.4509613 17.4193742,46.4108583 17.29,46.38 C16.72,46.31 16.15,46.24 15.58,46.19 C15.453562,46.1792366 15.326438,46.1792366 15.2,46.19 C14.2892881,46.3307316 13.3948683,46.5618738 12.53,46.88 L12.58,46.88 Z M15.99,38.3 C15.75,38.5 15.49,38.67 15.23,38.85 C14.3848323,39.3693517 13.6313398,40.0248564 13,40.79 C12.6081418,41.2717347 12.1838199,41.7261266 11.73,42.15 C11.2886524,42.5264055 10.9075664,42.9681954 10.6,43.46 C10.4030946,43.7573995 10.1823695,44.0383223 9.94,44.3 C9.12824536,45.2546091 8.57403003,46.4009054 8.33,47.63 C8.188714,48.1895994 8.08184712,48.7573297 8.01,49.33 C8.01,49.46 8.01,49.5 8.09,49.42 C8.26979862,49.223331 8.4243281,49.0049741 8.55,48.77 C9.2744885,47.2377769 10.2514394,45.8382694 11.44,44.63 C12.12,43.87 12.79,43.09 13.44,42.3 C14.4606832,41.1172581 15.6304377,40.071874 16.92,39.19 C17.1282444,39.0302628 17.3253673,38.8565274 17.51,38.67 C17.62,38.57 17.51,38.3 17.43,38.19 C17.256641,38.0477454 17.0325854,37.982697 16.81,38.01 C16.4951714,38.0030278 16.1876796,38.1055251 15.94,38.3 L15.99,38.3 Z M21.07,62.3 C20.33,60.99 19.59,59.66 18.75,58.4 C18.157307,57.4569167 17.4884066,56.5639346 16.75,55.73 C16.5293607,55.5122244 16.3377756,55.266861 16.18,55 C15.81,54.32 15.18,53.85 14.79,53.21 C14.6973742,53.1117089 14.5738299,53.0481719 14.44,53.03 C14.1806506,52.9652207 13.9093494,52.9652207 13.65,53.03 C13.5917219,53.0593192 13.5486362,53.1120077 13.5314711,53.1749467 C13.5143059,53.2378856 13.5246763,53.3051531 13.56,53.36 C13.7470513,53.6101826 13.9508521,53.8473934 14.17,54.07 C14.8727464,54.7504768 15.5120539,55.4935463 16.08,56.29 C16.3038602,56.5688108 16.4919857,56.8745147 16.64,57.2 C17.076099,58.0727713 17.5601727,58.920735 18.09,59.74 C18.56,60.6 19.09,61.43 19.51,62.31 C19.86,63.02 20.12,63.78 20.43,64.52 C20.57,64.85 20.71,65.18 20.87,65.52 C20.944081,65.6289636 21.0436253,65.7182102 21.16,65.78 C21.24,65.83 21.46,65.65 21.54,65.46 C21.6172242,65.2984381 21.6710961,65.1267213 21.7,64.95 C21.7116249,64.8035637 21.7116249,64.6564363 21.7,64.51 C21.6662143,63.7181511 21.42481,62.9491059 21,62.28 L21.07,62.3 Z M27.22,47.64 C27.22,47.64 27.17,47.71 27.14,47.75 C27.1116604,47.7864162 27.1030853,47.8344584 27.1170763,47.8784303 C27.1310674,47.9224021 27.1658275,47.9566558 27.21,47.97 C28.0924746,48.4071794 29.0217693,48.7426648 29.98,48.97 C31.4478979,49.3420956 32.8529792,49.9283885 34.15,50.71 C34.69,51.01 35.23,51.34 35.78,51.63 C37.1300762,52.3172836 38.4038048,53.1452072 39.58,54.1 C39.6540808,54.1856684 39.7617435,54.234902 39.875,54.234902 C39.9882565,54.234902 40.0959192,54.1856684 40.17,54.1 C40.3,53.98 40.42,53.85 40.54,53.72 C40.572207,53.6877015 40.5991961,53.6505916 40.62,53.61 C40.6985288,53.4991669 40.6985288,53.3508331 40.62,53.24 C40.19,52.93 39.78,52.58 39.32,52.31 C37.47,51.24 35.62,50.17 33.75,49.14 C32.7820823,48.5803784 31.722179,48.1977296 30.62,48.01 C29.91,47.91 29.23,47.71 28.53,47.57 C28.258276,47.5306052 27.9844696,47.5072315 27.71,47.5 L27.22,47.64 Z M3.6,47 C3.65923038,47.063682 3.73564519,47.1088362 3.82,47.13 C3.85247719,47.1406842 3.88752281,47.1406842 3.92,47.13 C4.09744651,46.5803064 4.33206354,46.0507423 4.62,45.55 C4.78565244,45.2280309 4.92607385,44.8936942 5.04,44.55 C5.3954829,43.5864564 5.92796242,42.69786 6.61,41.93 C6.94,41.57 7.25,41.19 7.61,40.82 C7.75495313,40.6516995 7.91568643,40.4976635 8.09,40.36 C9.37,39.36 10.52,38.26 11.86,37.36 C12.2089477,37.1265679 12.314365,36.6609746 12.1,36.3 C12.03532,36.1809712 11.9044662,36.1135616 11.77,36.13 C11.1463744,36.3458846 10.5518576,36.6381047 10,37 C9.13,37.7 8.24,38.37 7.4,39.1 C6.60676047,39.8084295 5.93161054,40.638864 5.4,41.56 C4.81,42.56 4.4,43.61 3.85,44.65 C3.72260198,44.9353745 3.61566543,45.22945 3.53,45.53 C3.51635823,45.6897092 3.51635823,45.8502908 3.53,46.01 C3.7,46.34 3.42,46.69 3.6,47 Z M15.13,70 C15.4304509,69.9198202 15.7219549,69.8092497 16,69.67 C16.1985687,69.5567852 16.3121256,69.3375029 16.29,69.11 C16.29,68.92 16.15,68.72 16,68.73 C15.7340631,68.7291829 15.4689385,68.759387 15.21,68.82 C14.2649607,69.0806815 13.290266,69.2184831 12.31,69.23 C11.8189103,69.2443832 11.3288589,69.1767899 10.86,69.03 C10.8,69.03 10.76,68.92 10.71,68.87 C10.66,68.82 10.77,68.8 10.81,68.79 C10.8967412,68.7589801 10.9879029,68.7420982 11.08,68.74 C12.4981897,68.6264567 13.907709,68.422711 15.3,68.13 C15.4740126,68.0904185 15.6445619,68.0369128 15.81,67.97 C15.9180426,67.9396655 16.0071524,67.8631267 16.0534441,67.7608992 C16.0997358,67.6586717 16.0984751,67.5412104 16.05,67.44 C15.98,67.23 15.92,67.02 15.83,66.81 C15.7740627,66.6875412 15.6544713,66.6065277 15.52,66.6 C15.2561438,66.5671296 14.9884397,66.6123264 14.75,66.73 L14.52,66.87 C13.7247952,67.3670609 12.8306286,67.6844559 11.9,67.8 C11.8136381,67.8102784 11.7263619,67.8102784 11.64,67.8 L11.37,67.8 C10.1256008,67.8368744 8.88102349,67.7328801 7.66,67.49 C7.66,67.49 7.58,67.49 7.55,67.55 C7.51596786,67.5785002 7.4963068,67.6206103 7.4963068,67.665 C7.4963068,67.7093897 7.51596786,67.7514998 7.55,67.78 C8.23566218,68.3400414 8.94995827,68.864081 9.69,69.35 C10.1114033,69.5969072 10.5660281,69.7821247 11.04,69.9 C11.9332168,70.1879758 12.8752215,70.2933987 13.81,70.21 C14.25,70.15 14.7,70.11 15.13,70 Z M4.72,63.43 C4.61,63.43 4.48,63.59 4.5,63.71 C4.52389764,63.8422386 4.55731797,63.9725779 4.6,64.1 C4.68931537,64.4046421 4.93919743,64.6353024 5.25,64.7 L7.6,65.22 C8.73879816,65.4282616 9.90369137,65.4518971 11.05,65.29 C11.2737944,65.2747999 11.495178,65.2345483 11.71,65.17 C12.59,64.86 13.47,64.53 14.34,64.17 C14.4428115,64.12452 14.5224377,64.0388184 14.5602493,63.9329462 C14.5980608,63.8270739 14.5907401,63.7103199 14.54,63.61 C14.4223827,63.371241 14.2887441,63.1407144 14.14,62.92 C14.0866183,62.8525097 14.0060213,62.8122112 13.92,62.81 C13.1728717,62.9180767 12.4318707,63.0649418 11.7,63.25 C11.0640171,63.4530389 10.4115484,63.6002626 9.75,63.69 C9.18020159,63.7800375 8.59979841,63.7800375 8.03,63.69 C7.24917551,63.5162307 6.44944712,63.4423063 5.65,63.47 L4.72,63.43 Z M2.63,45 C2.69,45 2.78,45 2.81,44.9 C3.06,44.43 3.32,43.96 3.54,43.48 C4.00442727,42.5180589 4.5287921,41.5862259 5.11,40.69 C5.51621775,40.0529546 6.01886972,39.4828326 6.6,39 C7.6,38.2 8.46,37.36 9.48,36.63 C10.1580991,36.1281007 10.8851154,35.6959113 11.65,35.34 C11.8133607,35.2589627 11.9166927,35.0923561 11.9166927,34.91 C11.9166927,34.7276439 11.8133607,34.5610373 11.65,34.48 C11.5184214,34.3579265 11.334788,34.3092074 11.16,34.35 C9.54606071,34.8642477 8.05516203,35.7050056 6.78,36.82 C6.64730198,36.9413331 6.52673314,37.0752985 6.42,37.22 C5.46224438,38.4939686 4.59031845,39.8302536 3.81,41.22 C3.21788639,42.3135231 2.80593474,43.4953517 2.59,44.72 C2.6,44.79 2.61,44.87 2.63,45 Z M5,48 C5.09069645,48.353368 5.36663203,48.6293036 5.72,48.72 C5.85480681,48.7342238 5.98732978,48.6774282 6.07,48.57 C6.14039569,48.407261 6.20051374,48.2402664 6.25,48.07 C6.47849051,47.0767444 6.81377487,46.1111255 7.25,45.19 C7.37,44.96 7.44,44.69 7.54,44.45 C7.88937924,43.5284351 8.38211617,42.6678329 9,41.9 C10.07,40.64 11.16,39.41 12.31,38.24 C12.3534555,38.1680063 12.3710907,38.0833575 12.36,38 C12.36,37.89 12.15,37.88 12.01,38 C10.93,38.71 10.01,39.57 8.95,40.36 C8.77394315,40.495996 8.615996,40.6539432 8.48,40.83 C7.98,41.4 7.48,41.96 6.99,42.54 C6.4530429,43.1942365 6.0242844,43.9302156 5.72,44.72 C5.56040804,45.1595686 5.36993302,45.587302 5.15,46 C4.91431079,46.3791066 4.81222644,46.8261657 4.86,47.27 C4.88760759,47.5166045 4.93441634,47.7606786 5,48 Z M2.1,42.17 C2.1,42.28 2.19,42.33 2.27,42.32 C2.35,42.31 2.37,42.32 2.38,42.26 C2.68,41.72 3,41.18 3.25,40.61 C3.69981567,39.7421779 4.22517813,38.9156522 4.82,38.14 C5.1,37.73 5.43,37.37 5.73,36.98 C6.57960214,35.9431383 7.65316179,35.1123262 8.87,34.55 C9.63,34.18 10.41,33.84 11.17,33.48 C11.2765449,33.3980211 11.3204917,33.2581904 11.28,33.13 C11.2454081,33.0466056 11.1981889,32.969031 11.14,32.9 C10.955846,32.6974593 10.6769974,32.609603 10.41,32.67 L9.13,33 C8.9585167,33.0492033 8.79389431,33.1197557 8.64,33.21 C7.66812246,33.7548978 6.7267213,34.3524538 5.82,35 C5.22313165,35.4692818 4.71511504,36.0416472 4.32,36.69 C3.49148263,37.951808 2.78814593,39.291497 2.22,40.69 C2.0408967,41.102049 1.98867359,41.5581308 2.07,42 C2.07,42 2.08,42.08 2.1,42.17 Z M28.42,46.23 C28.32,46.23 28.23,46.49 28.28,46.57 C28.33,46.65 28.38,46.74 28.45,46.76 C29.205019,47.0190636 29.9864765,47.1934661 30.78,47.28 C31.6235643,47.3713783 32.4381547,47.6406362 33.17,48.07 C34.9228804,48.9575965 36.6285083,49.9355789 38.28,51 C39.14,51.55 40.04,52 40.93,52.55 C41.0078771,52.5896547 41.0928541,52.6134483 41.18,52.62 C41.3196455,52.636051 41.4547712,52.5645139 41.52,52.44 C41.5522238,52.3632449 41.5522238,52.2767551 41.52,52.2 C41.4,51.97 41.26,51.74 41.12,51.52 C41.0660146,51.4445313 40.9981362,51.3800468 40.92,51.33 C39.6251648,50.3194544 38.2544475,49.4101005 36.82,48.61 C36.5375722,48.4809884 36.2469412,48.370749 35.95,48.28 C34.43,47.78 32.95,47.28 31.42,46.69 C30.84,46.46 30.24,46.29 29.64,46.11 C29.429713,46.0574021 29.215781,46.0206325 29,46 C28.82,46.05 28.62,46.13 28.42,46.23 Z M32.96,24.23 C32.8854106,23.2908799 32.537811,22.394073 31.96,21.65 C31.8853785,21.5407431 31.7761992,21.4597391 31.65,21.42 C31.3217067,21.3302296 30.9875671,21.2634017 30.65,21.22 C30.5234891,21.2298285 30.4022521,21.2748594 30.3,21.35 C30.3,21.35 30.3,21.52 30.3,21.59 C31.1712174,23.2966994 31.6009668,25.1944727 31.55,27.11 C31.527146,28.1346338 31.3345332,29.1483852 30.98,30.11 C30.817673,30.47372 30.6904295,30.8521021 30.6,31.24 C30.5511143,31.5100046 30.6644913,31.7836731 30.89,31.94 C30.9251309,31.9550081 30.9648691,31.9550081 31,31.94 C31,31.94 31.07,31.94 31.1,31.86 C31.7673929,30.7541455 32.2915895,29.5679827 32.66,28.33 C32.9960493,27.3161256 33.1119618,26.2422311 33,25.18 C33,24.66 33,24.44 33,24.21 L32.96,24.23 Z M43.23,45.31 C43.1497844,45.0498718 42.9841973,44.8243916 42.76,44.67 C42.098996,44.2137375 41.3997162,43.815583 40.67,43.48 C39.93,43.18 39.21,42.83 38.48,42.48 C37.9498515,42.2443054 37.3921297,42.0763169 36.82,41.98 C36.0333333,41.8466667 35.2433333,41.7266667 34.45,41.62 C34.2310323,41.5898592 34.0089677,41.5898592 33.79,41.62 C33.6598651,41.6490958 33.5393623,41.7110686 33.44,41.8 C33.3725097,41.8533817 33.3322112,41.9339787 33.33,42.02 C33.3472221,42.1059022 33.4023561,42.1794141 33.48,42.22 C33.91,42.36 34.33,42.48 34.76,42.6 C35.49,42.8 36.23,42.95 36.94,43.2 C38.293256,43.6589153 39.563088,44.3343579 40.7,45.2 C41.44,45.78 42.19,46.32 42.94,46.88 C43.0172933,46.9191282 43.1083457,46.9202742 43.1865993,46.8831037 C43.2648529,46.8459333 43.3214934,46.7746332 43.34,46.69 C43.34,46.47 43.34,46.25 43.41,45.99 C43.48,45.73 43.31,45.54 43.23,45.29 L43.23,45.31 Z M12.83,45.37 C12.760125,45.4269211 12.659875,45.4269211 12.59,45.37 C12.51,45.31 12.54,45.1 12.64,45.03 C12.7028834,44.9650667 12.7733964,44.9079848 12.85,44.86 C13.6166099,44.4027746 14.4977781,44.1738097 15.39,44.2 C16.2812245,44.1897345 17.1632288,44.3811773 17.97,44.76 C18.07865,44.8451102 18.23135,44.8451102 18.34,44.76 C18.4882779,44.6236572 18.5726603,44.4314341 18.5726603,44.23 C18.5726603,44.0285659 18.4882779,43.8363428 18.34,43.7 C17.5041337,43.0090586 16.3773156,42.7836949 15.34,43.1 C14.61,43.27 13.9,43.53 13.18,43.76 C13.0959659,43.7872232 13.0202519,43.8354049 12.96,43.9 C12.0614915,44.7597255 11.260029,45.7154444 10.57,46.75 C10.5502467,46.7910822 10.5502467,46.8389178 10.57,46.88 C10.593518,46.9149086 10.6291502,46.9398512 10.67,46.95 C10.97,46.88 11.28,46.83 11.57,46.74 C12.29,46.52 13.02,46.29 13.73,46.04 C14.6600558,45.7300068 15.6495492,45.6409866 16.62,45.78 C17.06,45.85 17.51,45.87 17.95,45.9 C17.9921767,45.8914046 18.0265191,45.8608781 18.04,45.82 C18.0655051,45.7804196 18.0655051,45.7295804 18.04,45.69 C17.6411341,45.3326527 17.1484601,45.0967242 16.62,45.01 C16.4443838,44.980631 16.2707268,44.9405563 16.1,44.89 C15.7991621,44.8054424 15.4808379,44.8054424 15.18,44.89 C14.9723789,44.9368985 14.7619385,44.9703017 14.55,44.99 C13.9551329,44.9586062 13.3623451,45.082678 12.83,45.35 L12.83,45.37 Z M9.5,59.63 C9.19849321,59.7058668 8.8904262,59.7527465 8.58,59.77 C7.7817066,59.7751589 6.98376184,59.7350947 6.19,59.65 C5.43749379,59.6000761 4.68250621,59.6000761 3.93,59.65 L3.8,59.65 C3.67434751,59.6975865 3.57816126,59.8011717 3.54,59.93 C3.4806166,60.055462 3.50888901,60.2049018 3.61,60.3 C3.69551138,60.4020943 3.79678833,60.4898676 3.91,60.56 C4.45136412,60.8735893 5.06441641,61.0423509 5.69,61.05 C6.44166559,61.097698 7.18972154,61.191205 7.93,61.33 C8.28078022,61.39007 8.63921978,61.39007 8.99,61.33 C9.99,61.12 10.99,60.89 11.99,60.66 C12.1175376,60.6255635 12.2389755,60.571591 12.35,60.5 C12.4165522,60.4446204 12.4594702,60.3659373 12.47,60.28 C12.5136919,60.0131738 12.4196498,59.7423325 12.22,59.56 C12.1304742,59.4612143 12.0110508,59.3944777 11.88,59.37 C11.53,59.37 11.17,59.37 10.88,59.37 L9.5,59.63 Z M43.11,47.57 C42.0877198,47.0389813 41.1197855,46.4093217 40.22,45.69 C38.8476602,44.7077403 37.304835,43.9888854 35.67,43.57 C34.6426739,43.28339 33.6013014,43.0497488 32.55,42.87 C32.3681158,42.8390853 32.1857876,42.9223221 32.09,43.08 C32.0238879,43.1463412 32.0238879,43.2536588 32.09,43.32 C32.1444121,43.389678 32.2124662,43.447524 32.29,43.49 C33.2,43.85 34.1,44.21 35.04,44.49 C36.8825313,45.0091133 38.6261953,45.8302574 40.2,46.92 C41.0997961,47.4910394 41.9525112,48.1330837 42.75,48.84 C42.8193923,48.8740007 42.9006077,48.8740007 42.97,48.84 C43.1823186,48.5528536 43.2722122,48.1932791 43.22,47.84 C43.2,47.72 43.17,47.6 43.11,47.57 Z M12,61.29 C11.3156861,61.4865825 10.6110804,61.6040168 9.9,61.64 L8.97,61.72 C8.08645633,61.845997 7.18696899,61.8018713 6.32,61.59 C5.62612434,61.4482497 4.9176194,61.3911663 4.21,61.42 C4.21,61.42 4.12,61.49 4.13,61.51 C4.23,61.81 4.32,62.1 4.44,62.38 C4.48673665,62.4564329 4.56254079,62.5105787 4.65,62.53 C5.10772664,62.7007198 5.58459014,62.8148984 6.07,62.87 C6.77863767,62.9177128 7.48344422,63.0112416 8.18,63.15 C8.75026942,63.2349452 9.33179814,63.2043384 9.89,63.06 C11.07,62.8 12.22,62.48 13.36,62.12 C13.6,62.04 13.66,61.83 13.53,61.58 C13.4,61.33 13.16,61.12 12.62,61.18 C12.4100468,61.194816 12.2022357,61.2316857 12,61.29 Z M27.63,21.2 C27.63,21.2 27.63,21.29 27.63,21.31 C27.7358557,21.4524192 27.8528928,21.5861759 27.98,21.71 C28.6948759,22.3912571 29.1508702,23.2997108 29.27,24.28 C29.4,24.97 29.43,25.68 29.61,26.38 C29.7358117,26.9161882 29.7115937,27.4766627 29.54,28 C29.3878242,28.6574309 29.2908204,29.3264226 29.25,30 C29.240726,30.2272734 29.3607667,30.4402489 29.56,30.55 C29.6698128,30.6316709 29.8201872,30.6316709 29.93,30.55 C29.93,30.55 30,30.49 30.02,30.45 C30.5267028,29.6077962 30.7930068,28.6428763 30.79,27.66 C30.7850752,26.3212359 30.6848217,24.9845218 30.49,23.66 C30.3988688,23.0669891 30.1805433,22.5007074 29.85,22 C29.7813257,21.8826882 29.6894547,21.7806094 29.58,21.7 L28.34,21 C28.27,21 28.16,21 28.02,21 L27.63,21.2 Z M14,66.4 C14.394795,66.1950658 14.8151716,66.0437302 15.25,65.95 C15.3253066,65.9115611 15.3800879,65.8421714 15.4,65.76 C15.3956326,65.4492211 15.2783361,65.1506483 15.07,64.92 C15.0058079,64.8570866 14.9198725,64.8212802 14.83,64.82 C14.6542298,64.8186454 14.479155,64.8422131 14.31,64.89 C13.709805,65.0455729 13.1242681,65.2530203 12.56,65.51 C12.0733786,65.7360434 11.5462532,65.8618734 11.01,65.88 C10.57,65.88 10.12,65.93 9.68,65.97 C8.79443846,66.0453087 7.90251967,65.9743606 7.04,65.76 C6.57,65.64 6.04,65.59 5.6,65.51 C5.6,65.51 5.51,65.51 5.49,65.57 C5.47,65.63 5.42,65.75 5.49,65.8 C5.67862711,66.2093624 6.04921612,66.5058336 6.49,66.6 C7.39062899,66.8431908 8.3108014,67.0071488 9.24,67.09 C9.87356088,67.1789349 10.5164391,67.1789349 11.15,67.09 C12.1439676,67.112945 13.1265984,66.8750449 14,66.4 Z M27.74,28.89 C27.7830037,29.1583421 27.96602,29.3832996 28.22,29.48 C28.2911622,29.5210855 28.3788378,29.5210855 28.45,29.48 C28.550009,29.3348779 28.6212935,29.171942 28.66,29 C28.75,28.52 28.81,28 28.88,27.56 C28.8999794,27.3805544 28.8999794,27.1994456 28.88,27.02 C28.83,26.36 28.81,25.69 28.7,25.02 C28.5979235,24.2702223 28.3607547,23.5451633 28,22.88 C27.6348735,22.3168344 27.1625829,21.8309527 26.61,21.45 C26.4674713,21.346632 26.2960652,21.2906626 26.12,21.29 C25.8537623,21.301401 25.589225,21.3382353 25.33,21.4 C25.2478286,21.4199121 25.1784389,21.4746934 25.14,21.55 C25.1155378,21.6333299 25.1342965,21.7233713 25.19,21.79 C25.2715694,21.8949626 25.3694859,21.9861262 25.48,22.06 C26.078822,22.4538495 26.5265015,23.0390054 26.75,23.72 C26.75,23.81 26.82,23.89 26.86,23.97 C27.2785865,24.8095234 27.5040916,25.7320442 27.52,26.67 C27.52,26.89 27.52,27.11 27.52,27.33 C27.62,27.83 27.66,28.36 27.74,28.89 Z M23.84,6.27 C23.84,6.27 23.77,6.27 23.75,6.36 C23.7302467,6.40108223 23.7302467,6.44891777 23.75,6.49 C23.8277321,6.59772944 23.9222706,6.69226792 24.03,6.77 C25.0069682,7.41077189 25.7396781,8.36188575 26.11,9.47 C26.43,10.47 26.79,11.39 27.11,12.37 C27.3067755,12.8898705 27.3552445,13.4541891 27.25,14 C27.1447328,14.43346 27.1655504,14.8879774 27.31,15.31 C27.3344167,15.4031342 27.424639,15.4632823 27.52,15.45 C27.839975,15.4311586 28.1148117,15.2160689 28.21,14.91 C28.27,14.65 28.3,14.39 28.37,14.13 C28.4848518,13.6941052 28.4848518,13.2358948 28.37,12.8 C28.2679305,12.555883 28.1941175,12.3008926 28.15,12.04 C28.0490577,11.1071073 27.792151,10.1977928 27.39,9.35 C27.1180146,8.73998443 26.7828508,8.16015119 26.39,7.62 C26.036107,7.09982197 25.5074654,6.72374136 24.9,6.56 L24.15,6.35 C24.0516337,6.30685764 23.9469592,6.27984486 23.84,6.27 Z M7.05,48.66 C7.13,48.73 7.24,48.73 7.26,48.66 C7.51,47.9 7.74,47.13 7.98,46.37 C8.02675237,46.1974958 8.09039333,46.0300196 8.17,45.87 C8.71589031,44.7991011 9.41303385,43.8123231 10.24,42.94 C10.3438487,42.8544036 10.4408135,42.7607823 10.53,42.66 C11.1938779,41.7681434 11.9332722,40.9350702 12.74,40.17 C13.4181245,39.3926165 14.2064986,38.7187925 15.08,38.17 C15.2774952,38.0703765 15.4436113,37.9181033 15.56,37.73 C15.5946593,37.6738772 15.6035541,37.6055747 15.5844246,37.5424471 C15.565295,37.4793195 15.5199824,37.4274435 15.46,37.4 C15.1706067,37.2699465 14.8393933,37.2699465 14.55,37.4 C13.9698055,37.6721074 13.4444454,38.048333 13,38.51 C12.29,39.24 11.51,39.91 10.87,40.71 C10.23,41.51 9.48,42.45 8.81,43.34 C8.56405975,43.6399127 8.36820176,43.9775989 8.23,44.34 C7.95366767,44.9441229 7.71651066,45.5654075 7.52,46.2 C7.42191276,46.5408199 7.3016565,46.8748651 7.16,47.2 C7.1,47.41 7.04,47.62 7,47.84 C6.96,48.06 7,48.28 6.93,48.46 C6.86,48.64 7,48.64 7.05,48.66 Z M23.13,29 C23.132974,29.1754701 23.1564671,29.3499898 23.2,29.52 C23.2242535,29.6085518 23.2865122,29.6817973 23.37,29.72 C23.58,29.79 23.79,29.84 24.01,29.89 C25.6669966,30.2545542 27.2387118,30.9334809 28.64,31.89 C29.1071548,32.2296066 29.5422976,32.6111933 29.94,33.03 C30.360535,33.4334007 30.6674839,33.9403838 30.83,34.5 C30.83,34.5 30.88,34.57 30.9,34.61 C30.9844994,34.7129045 31.1238906,34.7527306 31.25,34.71 C31.37,34.71 31.49,34.49 31.47,34.41 C31.4654897,34.3204731 31.4451767,34.23245 31.41,34.15 C30.7915796,32.8639029 29.9050572,31.7250625 28.81,30.81 C28.5785814,30.6009913 28.323516,30.4197606 28.05,30.27 C27.4120024,29.9591643 26.8114685,29.5767014 26.26,29.13 C26.1966819,29.0664257 26.1171231,29.0214577 26.03,29 C25.36,28.93 24.78,28.54 24.11,28.48 C23.9936166,28.4685021 23.8763834,28.4685021 23.76,28.48 C23.29,28.44 23.12,28.64 23.13,29 Z M26.52,24.63 C26.3339651,24.0627774 26.0893097,23.5164922 25.79,23 C25.6825794,22.8041802 25.5234647,22.6416064 25.33,22.53 C24.8990206,22.3237831 24.4546892,22.1467187 24,22 C23.691352,21.9234644 23.3646487,21.9895392 23.11,22.18 C22.9655841,22.2897079 22.9158528,22.4844888 22.99,22.65 C23.0648289,22.756791 23.1484534,22.8571404 23.24,22.95 L23.96,23.55 C24.2759422,23.7979235 24.5293852,24.1164396 24.7,24.48 C24.8390794,24.8246802 25.0028376,25.1588805 25.19,25.48 C25.5197679,26.0159893 25.6993695,26.6307795 25.71,27.26 C25.71,27.43 25.71,27.61 25.76,27.79 C25.7951856,28.0628166 25.9868941,28.2897368 26.25,28.37 L26.49,28.47 C26.6714272,28.498166 26.8487331,28.3992046 26.92,28.23 C26.9577749,28.1030102 26.9812536,27.9722 26.99,27.84 C26.99,27.53 26.99,27.22 26.92,26.9 C26.9279984,26.1121026 26.7924541,25.3293342 26.52,24.59 L26.52,24.63 Z M34.81,24.33 C34.6315225,23.6725921 34.4945853,23.0046058 34.4,22.33 C34.3358226,21.9674677 34.0595217,21.6793254 33.7,21.6 C33.6140125,21.5846555 33.5259875,21.5846555 33.44,21.6 C33.2561397,21.60541 33.1099204,21.7560601 33.11,21.94 C33.1344729,22.116554 33.1746318,22.2905757 33.23,22.46 C33.442518,22.9987543 33.5576398,23.5709773 33.57,24.15 C33.57,24.91 33.66,25.67 33.71,26.42 C33.7406124,27.4035607 33.5598798,28.3822444 33.18,29.29 C32.99,29.83 32.7,30.29 32.47,30.87 C32.31,31.24 32.18,31.61 32.04,31.99 C32.025413,32.0286701 32.025413,32.0713299 32.04,32.11 C32.1,32.18 32.17,32.11 32.25,32.11 C32.9679392,31.4378796 33.5162721,30.605099 33.85,29.68 C34.3217492,28.4297831 34.6570284,27.1322524 34.85,25.81 C34.8643397,25.5635417 34.8643397,25.3164583 34.85,25.07 C34.853621,24.8094072 34.8402593,24.5488553 34.81,24.29 L34.81,24.33 Z M31,57.63 C31.0405215,57.6182563 31.0735864,57.5888652 31.09,57.55 C31.0898897,57.5049555 31.0719066,57.4617961 31.04,57.43 C30.29,56.81 29.52,56.2 28.76,55.58 C28.1576866,55.0656101 27.4840221,54.6412015 26.76,54.32 C25.792851,53.8666359 24.7893216,53.49533 23.76,53.21 C23.5437924,53.1598284 23.3217105,53.1396391 23.1,53.15 C22.9759628,53.1820997 22.860102,53.2400301 22.76,53.32 C22.7091269,53.3617885 22.6796424,53.4241642 22.6796424,53.49 C22.6796424,53.5558358 22.7091269,53.6182115 22.76,53.66 L24.31,54.43 C25.8522694,55.2336831 27.3510229,56.1182481 28.8,57.08 L29.6,57.55 C29.9525537,57.7375084 30.3611448,57.7908029 30.75,57.7 L31,57.63 Z M12.72,20.91 C12.38,20.39 12.04,19.91 11.72,19.37 C11.6070793,19.2307506 11.4677408,19.1152016 11.31,19.03 C10.6925705,18.6521315 10.0549532,18.3082856 9.4,18 C8.70389768,17.7063891 7.96379029,17.5306558 7.21,17.48 C6.94553175,17.4720109 6.68175252,17.448638 6.42,17.41 C6.20036993,17.3744493 5.97515631,17.4131579 5.78,17.52 L5.19,17.84 C4.96111517,17.9884506 4.84928548,18.2640309 4.91,18.53 C4.91,18.72 5.12,18.88 5.27,18.82 C6.29225474,18.5003054 7.38774526,18.5003054 8.41,18.82 C9.15210921,18.9742442 9.84133912,19.3188591 10.41,19.82 C10.81,20.18 11.2,20.55 11.6,20.89 C11.8492565,21.1434203 12.058335,21.4334324 12.22,21.75 C12.22,21.75 12.38,21.75 12.44,21.75 C12.622446,21.6167624 12.7418393,21.4141556 12.77,21.19 C12.76,21.08 12.77,21 12.72,20.91 Z M12.62,35.23 C12.7421091,35.9604027 13.4016377,36.4767442 14.14,36.42 C14.8936301,36.421374 15.6425029,36.5394395 16.36,36.77 C17.4230345,37.0200608 18.3603152,37.6449146 19,38.53 C19.18,38.73 19.34,38.94 19.51,39.15 C19.6154751,39.2334982 19.7645249,39.2334982 19.87,39.15 C20.0177967,39.0425598 20.0682013,38.8451418 19.99,38.68 C19.538596,37.9571799 19.008715,37.2864444 18.41,36.68 C17.9863999,36.2827045 17.4813671,35.9824147 16.93,35.8 C16.0843085,35.4063887 15.2121922,35.0722445 14.32,34.8 C13.89,34.69 13.49,34.49 13.07,34.34 C12.65,34.19 12.57,34.4 12.63,34.89 C12.6170177,35.0028437 12.6136723,35.1165883 12.62,35.23 Z M30.02,34.13 C29.76,33.77 29.5,33.42 29.22,33.07 C29.0811553,32.8994572 28.9234889,32.7451455 28.75,32.61 C28.0481862,31.99235 27.2330959,31.5168806 26.35,31.21 C25.94,31.03 25.52,30.89 25.11,30.7 C24.6980492,30.5372634 24.2623479,30.4426926 23.82,30.42 C23.4958337,30.3808524 23.1941732,30.5920147 23.12,30.91 C23.1047683,31.0395538 23.1047683,31.1704462 23.12,31.3 C23.1381063,31.4331399 23.2203002,31.5489586 23.34,31.61 C23.82,31.67 24.34,31.75 24.79,31.78 C25.5896118,31.8540921 26.352124,32.1521651 26.99,32.64 C27.4988603,33.0038494 27.9534082,33.4381952 28.34,33.93 C28.4680493,34.1061191 28.6156592,34.2671481 28.78,34.41 C29.1278353,34.7043823 29.6132373,34.7742802 30.03,34.59 C30.09,34.59 30.11,34.45 30.14,34.38 C30.1066763,34.2898664 30.0594369,34.2055102 30,34.13 L30.02,34.13 Z M5.75,16 C5.57955552,16.0550691 5.45049477,16.1955176 5.41,16.37 C5.37760346,16.4993329 5.45240218,16.6313306 5.58,16.67 C5.70956955,16.6849611 5.84043045,16.6849611 5.97,16.67 C6.67737253,16.612572 7.38937555,16.6665627 8.08,16.83 C8.87842243,16.9201825 9.64335146,17.2014568 10.31,17.65 C11.3787693,18.1104299 12.3067976,18.8452627 13,19.78 C13,19.78 13.09,19.78 13.11,19.78 C13.13,19.78 13.26,19.68 13.26,19.62 C13.3207742,19.1692445 13.1778495,18.7148174 12.87,18.38 C12.292151,17.7080036 11.6182113,17.1250457 10.87,16.65 C9.82807474,16.0447609 8.63361285,15.7530899 7.43,15.81 C7.21,15.81 6.99,15.81 6.53,15.87 C6.45,15.91 6.1,16 5.75,16 Z M8.75,59.18 C9.41,59.04 10.06,58.91 10.75,58.76 C10.9219915,58.7116805 11.089323,58.6480945 11.25,58.57 C11.3590523,58.5413442 11.4459255,58.4589926 11.4803638,58.3516261 C11.5148021,58.2442596 11.4920381,58.1267414 11.42,58.04 L11.15,57.74 C11.0052764,57.5671441 10.7842913,57.4772518 10.56,57.5 C10.2222155,57.5319002 9.88770666,57.5921118 9.56,57.68 C8.86800069,57.8589306 8.16218072,57.9793549 7.45,58.04 C6.83,58.12 6.21,58.14 5.59,58.19 C5.14367384,58.2184667 4.69558475,58.1814067 4.26,58.08 C4.02572076,58.0566345 3.81621464,58.2260224 3.79,58.46 C3.78095457,58.5460844 3.80609391,58.6322764 3.86,58.7 C3.95700488,58.7867626 4.07371252,58.848549 4.2,58.88 C4.8922473,59.0601099 5.60470623,59.1508476 6.32,59.15 C6.71,59.15 7.11,59.2 7.51,59.22 L8.25,59.22 L8.75,59.18 Z M26.13,36 C25.51,36.33 24.95,36.77 24.28,37.05 C24.05,37.15 23.9,37.41 23.68,37.57 C23.46,37.73 23,37.99 22.68,38.22 C22.2459084,38.4760753 21.8978107,38.8555018 21.68,39.31 C21.5317946,39.6325031 21.3287873,39.9268637 21.08,40.18 C20.7810566,40.5122576 20.5893633,40.9270121 20.53,41.37 C20.5155237,41.4121243 20.5155237,41.4578757 20.53,41.5 C20.58,41.61 20.65,41.62 20.73,41.5 C20.94,41.22 21.16,40.94 21.36,40.65 C21.997418,39.7902562 22.787157,39.0547483 23.69,38.48 C24.39,38.01 25.1,37.56 25.82,37.12 C26.0920844,36.9677696 26.3806068,36.8469927 26.68,36.76 C27.3163615,36.57086 27.9249567,36.2985052 28.49,35.95 C28.5702361,35.9072975 28.6415267,35.8495861 28.7,35.78 C28.7477224,35.7095993 28.7689783,35.6245759 28.76,35.54 C28.76,35.47 28.66,35.37 28.6,35.36 C28.4436024,35.3470141 28.2863976,35.3470141 28.13,35.36 C27.4209188,35.4059974 26.7340545,35.625794 26.13,36 Z M6.82,57.73 C7.64,57.52 8.47,57.4 9.31,57.26 C9.60702021,57.1798245 9.89264311,57.062215 10.16,56.91 C10.2224025,56.8545271 10.25563,56.7733044 10.25,56.69 C10.1070832,56.3621614 9.85173476,56.0961734 9.53,55.94 C9.44919069,55.9109941 9.36080931,55.9109941 9.28,55.94 C8.23880403,56.1743583 7.17695251,56.3049962 6.11,56.33 C5.49068918,56.3735935 4.87927002,56.4945336 4.29,56.69 C4.11838835,56.7561906 4.00115851,56.9164047 3.99,57.1 C3.96966452,57.3250901 4.0998971,57.5367181 4.31,57.62 C5.00353766,57.7646195 5.71198766,57.825056 6.42,57.8 C6.55501091,57.787552 6.68878543,57.7641414 6.82,57.73 Z M6.58,14.73 C6.52,14.73 6.51,14.88 6.5,14.96 C6.49,15.04 6.5,15.03 6.58,15.03 C6.98,15.03 7.38,15.03 7.78,15.03 C8.53432913,15.0181914 9.28307251,15.1611333 9.98,15.45 L10.35,15.61 C11.7847186,16.1220335 13.0111095,17.0919014 13.84,18.37 C13.8763992,18.42397 13.9331605,18.4608389 13.9972673,18.4721518 C14.0613741,18.4834648 14.1273264,18.4682513 14.18,18.43 C14.2643177,18.3256223 14.2835891,18.1830137 14.23,18.06 C14.2161087,18.0172266 14.195884,17.9767771 14.17,17.94 L13.97,17.77 C13.8218967,17.6663769 13.7211442,17.5080516 13.69,17.33 C13.6,16.62 13.06,16.18 12.69,15.64 C12.6285791,15.5789645 12.5576565,15.5283055 12.48,15.49 C11.5049497,14.9560011 10.4714182,14.5365484 9.4,14.24 C9.26835437,14.210027 9.13464596,14.1899708 9,14.18 L8.34,14.18 C7.71772324,14.2117919 7.11302803,14.3973234 6.58,14.72 L6.58,14.73 Z M35,40.52 C34.93,40.52 34.88,40.63 34.83,40.7 C34.78,40.77 34.89,40.96 35.02,41 C35.1010555,41.0359856 35.1846066,41.066064 35.27,41.09 C35.3552344,41.1157655 35.4420943,41.1358101 35.53,41.15 C36.06,41.23 36.58,41.3 37.1,41.41 C37.6273646,41.4981692 38.1371732,41.6703562 38.61,41.92 C38.9654879,42.1044863 39.3329843,42.2648484 39.71,42.4 C40.6167329,42.7619038 41.4957496,43.1897143 42.34,43.68 C42.4192609,43.6953789 42.5007391,43.6953789 42.58,43.68 C42.66,43.68 42.71,43.44 42.65,43.31 C42.6065691,43.1845117 42.53858,43.0689301 42.45,42.97 C41.7231807,42.3207824 40.8957414,41.7939231 40,41.41 C39.17,41.09 38.33,40.8 37.5,40.5 C36.9020254,40.3512639 36.282277,40.3106246 35.67,40.38 C35.54,40.41 35.28,40.45 35,40.52 Z M38.72,28.52 C38.0876862,28.7203944 37.4829754,28.9992333 36.92,29.35 C36.86,29.35 36.84,29.48 36.8,29.55 C36.8396182,29.5578158 36.8803818,29.5578158 36.92,29.55 C37.3654411,29.555136 37.8084844,29.4841138 38.23,29.34 C38.7387762,29.1869109 39.2759123,29.1526984 39.8,29.24 C39.9298138,29.2498397 40.0601862,29.2498397 40.19,29.24 C40.9505017,29.2486153 41.691511,29.4817027 42.32,29.91 C42.3877644,29.9673002 42.4715977,30.0022308 42.56,30.01 C42.6396496,30.0047012 42.712872,29.9644289 42.76,29.9 C42.96173,29.4096982 43.0995282,28.8954755 43.17,28.37 C43.23,28.03 43,27.79 42.62,27.81 L41.3,27.9 C40.418134,27.9250773 39.5491974,28.1185514 38.74,28.47 L38.72,28.52 Z M24.85,12.32 C24.7127603,11.3932177 24.3711861,10.5085405 23.85,9.73 C23.5173122,9.20114385 23.0472522,8.77255976 22.49,8.49 C22.4092943,8.48261975 22.3303148,8.51646811 22.28,8.58 C22.1254456,8.90356742 22.1559698,9.28511935 22.36,9.58 C22.5328174,9.83895093 22.7268158,10.0831213 22.94,10.31 C23.8469616,11.3666792 24.2614883,12.7593436 24.08,14.14 C23.9930927,14.6248584 23.9662238,15.1185738 24,15.61 C24.0219843,15.738597 24.0771332,15.8592351 24.16,15.96 C24.2606545,16.0369233 24.3765711,16.0914723 24.5,16.12 C24.61,16.12 24.74,16.01 24.78,15.88 C24.9776535,15.2742052 25.0524469,14.6350618 25,14 C25,13.73 25,13.47 24.94,13.24 C24.88,13.01 24.87,12.63 24.85,12.32 Z M11.48,32.13 C11.48,32.13 11.48,32.22 11.48,32.24 C11.84,32.64 11.96,33.24 12.48,33.48 C12.9301054,33.6605334 13.3952355,33.8010763 13.87,33.9 C14.045535,33.9384663 14.2164922,33.9954521 14.38,34.07 C15.48,34.66 16.72,34.92 17.79,35.56 C18.5041059,35.8234135 19.1260796,36.2890251 19.58,36.9 C19.8619205,37.3088381 20.2307156,37.6503149 20.66,37.9 C20.71,37.9 20.81,37.9 20.89,37.83 C20.97,37.76 20.89,37.76 20.94,37.72 C20.9498378,37.677225 20.9498378,37.632775 20.94,37.59 C20.9087718,37.5070951 20.8649212,37.4295132 20.81,37.36 C20.5081318,36.9966204 20.1733796,36.6618682 19.81,36.36 C19.33,36.02 18.9,35.64 18.44,35.29 C18.1977292,35.0962495 17.9402279,34.9223525 17.67,34.77 C16.8601138,34.3086074 16.0139812,33.9139685 15.14,33.59 C13.966186,33.1791064 12.8260857,32.677596 11.73,32.09 C11.686799,32.0852114 11.643201,32.0852114 11.6,32.09 C11.46,32.03 11.42,32.0433333 11.48,32.13 Z M31.73,10.8 C31.6789385,10.4903649 31.5811574,10.190278 31.44,9.91 C30.9213923,8.77420397 30.1800848,7.75405599 29.26,6.91 C28.95,6.6 28.6,6.33 28.26,6.04 C28.17,5.97 28.09,5.97 28.04,6.04 C28.0204342,6.07760736 28.0204342,6.12239264 28.04,6.16 C28.1458557,6.30241918 28.2628928,6.43617592 28.39,6.56 C29.2726307,7.38760278 29.8799794,8.46617019 30.13,9.65 C30.34,10.65 30.57,11.55 30.8,12.5 C30.86,12.76 30.93,13.01 31.01,13.27 C31.0982171,13.4280511 31.2693554,13.5213993 31.45,13.51 C31.6275427,13.4754319 31.7705783,13.3439938 31.82,13.17 C31.863435,13.0444214 31.8870513,12.9128453 31.89,12.78 C31.89,12.43 31.84,12.07 31.82,11.72 C31.81,11.42 31.76,11.11 31.73,10.8 Z M18.66,50.55 C18.81,50.61 18.95,50.55 18.95,50.41 C18.9671836,50.2752174 18.9048078,50.142669 18.79,50.07 C18.6705568,50.0163015 18.5467814,49.9728128 18.42,49.94 C17.97,49.77 17.51,49.61 17.06,49.43 C16.81,49.33 16.58,49.19 16.33,49.09 C15.9669182,48.9255566 15.5658422,48.8633207 15.17,48.91 C14.68315,48.9278515 14.1999715,49.0016705 13.73,49.13 C13.407329,49.2418917 13.0708854,49.3091804 12.73,49.33 C12.0996917,49.3770124 11.4975561,49.6102095 11,50 C10.968734,50.0292934 10.9477014,50.0678531 10.94,50.11 C10.94,50.19 10.94,50.26 11.09,50.25 L13.34,50.06 C15.1256204,49.7540033 16.9603145,49.9229883 18.66,50.55 Z M26.27,15.93 C26.32,15.31 26.36,14.69 26.46,14.07 C26.5441211,13.5431499 26.4960131,13.0036534 26.32,12.5 C26.0285137,11.4779358 25.6710981,10.4758359 25.25,9.5 C24.8715567,8.69979488 24.2928722,8.01088485 23.57,7.5 C23.4589969,7.42737768 23.3320327,7.38276863 23.2,7.37 C23.13,7.37 23.05,7.43 22.99,7.49 C22.93,7.55 22.99,7.57 22.99,7.61 C23.0178485,7.6924181 23.0583312,7.77000988 23.11,7.84 C23.39,8.13 23.65,8.44 23.95,8.7 C24.9269353,9.63318202 25.5371478,10.8855367 25.67,12.23 C25.74,12.76 25.79,13.3 25.84,13.83 C25.9400004,14.5406803 25.8503021,15.2651667 25.58,15.93 C25.58,16.01 25.58,16.1 25.51,16.19 C25.477539,16.3438843 25.5078598,16.50436 25.5942295,16.6357921 C25.6805991,16.7672241 25.8158685,16.8587336 25.97,16.89 C26.11,16.89 26.38,16.78 26.38,16.64 C26.38,16.5 26.38,16.38 26.38,16.45 C26.3247364,16.2811278 26.2878563,16.1067853 26.27,15.93 Z M41.73,25.85 C40.7196,26.1951864 39.7367901,26.6163906 38.79,27.11 C38.4649309,27.2655261 38.1984847,27.5214546 38.03,27.84 C38.0031311,27.8887471 37.9926155,27.9448304 38,28 C38.07,28 38.17,28.09 38.23,28.07 C38.398194,28.0117587 38.5592266,27.9345972 38.71,27.84 C39.0169827,27.6621564 39.3574623,27.5497981 39.71,27.51 C40.2006872,27.4771094 40.6866293,27.3933263 41.16,27.26 C41.3777268,27.2152743 41.6022732,27.2152743 41.82,27.26 C42.2152625,27.3141051 42.6175152,27.2834248 43,27.17 C43.1246076,27.1373221 43.229803,27.0538912 43.29,26.94 C43.4090678,26.6127003 43.3873486,26.2507147 43.23,25.94 C43.185943,25.8633133 43.1144874,25.8061488 43.03,25.78 C42.86,25.78 42.68,25.78 42.48,25.7 C42.28,25.62 42,25.77 41.73,25.85 Z M32.55,8.16 C32.510917,8.03255156 32.4424056,7.91608224 32.35,7.82 C31.970077,7.32218413 31.5145622,6.88691445 31,6.53 C30.66,6.33 30.36,6.05 30,5.82 C29.8521232,5.72267575 29.6902599,5.64848843 29.52,5.6 C29.46,5.6 29.36,5.6 29.29,5.68 C29.22,5.76 29.29,5.77 29.29,5.79 C29.4022175,6.03052401 29.5543701,6.25029994 29.74,6.44 C31.2789586,7.74661592 32.303283,9.55779146 32.63,11.55 C32.63,11.55 32.68,11.61 32.7,11.64 C32.7403741,11.6145417 32.7745417,11.5803741 32.8,11.54 C32.9988141,11.0246488 33.0675077,10.4682304 33,9.92 C32.9344482,9.31492087 32.7829222,8.72228556 32.55,8.16 Z M5.25,19.61 C5.12404493,19.6561066 5.04020946,19.7758715 5.04,19.91 C5.04,20.02 5.04,20.12 5.17,20.11 C5.56,20.11 5.95,20.02 6.34,19.95 C6.92106538,19.8880406 7.50844061,19.9704792 8.05,20.19 C8.38316618,20.3187674 8.68124381,20.5243381 8.92,20.79 C9.55,21.41 10.17,22.05 10.8,22.68 C10.8778159,22.7209526 10.9690551,22.7280789 11.0522857,22.6997048 C11.1355164,22.6713307 11.2034033,22.6099569 11.24,22.53 C11.284406,22.4084105 11.304783,22.2793561 11.3,22.15 C11.2858988,22.0165654 11.2450887,21.8873333 11.18,21.77 C11.080309,21.5694248 10.9523367,21.3842018 10.8,21.22 C10.42,20.85 10.02,20.49 9.61,20.15 C9.42598408,20.0123929 9.21963139,19.9075251 9,19.84 C8.62,19.7 8.24,19.59 7.85,19.48 C7.29734345,19.3689477 6.73192799,19.335292 6.17,19.38 L5.25,19.61 Z M24.39,25.19 C24.22,24.88 24.08,24.56 23.91,24.25 C23.6535903,23.7824368 23.2332872,23.4262478 22.73,23.25 C22.6451164,23.2254522 22.5539339,23.2359716 22.4768698,23.2792027 C22.3998056,23.3224338 22.343298,23.3947649 22.32,23.48 C22.2759214,23.6471428 22.2759214,23.8228572 22.32,23.99 C22.4689098,24.2616013 22.6465982,24.5163997 22.85,24.75 C23.3567409,25.4197073 23.6713503,26.214874 23.76,27.05 L23.82,27.45 C23.8847903,27.6688927 24.0921524,27.8140462 24.32,27.8 C24.4753589,27.8233506 24.6326589,27.7723237 24.7447268,27.6622219 C24.8567947,27.5521201 24.9105975,27.3957478 24.89,27.24 C24.89,27.11 24.89,26.98 24.89,26.78 C24.8440478,26.2193338 24.6732064,25.676058 24.39,25.19 Z M16.29,42.34 C17.0818692,42.1824801 17.9036165,42.3598616 18.56,42.83 C18.6553452,42.8888621 18.7702582,42.9071848 18.8791811,42.8808931 C18.988104,42.8546014 19.0820052,42.7858752 19.14,42.69 C19.2426511,42.5479818 19.3266694,42.393388 19.39,42.23 C19.4244459,42.146756 19.4244459,42.053244 19.39,41.97 C19.1584409,41.4775499 18.6641704,41.1623064 18.12,41.16 C17.4419924,41.1337628 16.7647354,41.2285787 16.12,41.44 C15.83,41.54 15.52,41.58 15.22,41.66 C14.8724189,41.7367545 14.5637994,41.9354061 14.35,42.22 C14.3302467,42.2610822 14.3302467,42.3089178 14.35,42.35 C14.35,42.35 14.4,42.43 14.43,42.43 C14.5530238,42.4685915 14.6810708,42.4888094 14.81,42.49 C15.17,42.49 15.52,42.4 15.76,42.37 C16,42.34 16.15,42.36 16.29,42.34 Z M5.91,55.76 C6.4383648,55.7948682 6.96901234,55.7646414 7.49,55.67 C8.01259023,55.5428937 8.54414272,55.4559732 9.08,55.41 C9.22,55.41 9.26,55.24 9.16,55.12 C8.89,54.81 8.64,54.5 8.36,54.21 C8.14962155,53.9602383 7.80181463,53.8753087 7.5,54 C7.20656082,54.1069552 6.91943195,54.2304874 6.64,54.37 C6.01,54.71 5.4,55.07 4.78,55.37 C4.52,55.52 4.42,55.67 4.49,55.76 C4.56,55.85 4.82,55.82 4.99,55.83 C5.12176726,55.8239608 5.25251076,55.8038464 5.38,55.77 C5.55,55.81 5.73,55.77 5.91,55.76 Z M16.91,14.12 C17.5422946,13.7792632 18.213969,13.5173101 18.91,13.34 C19.5155461,13.1740877 20.0080329,12.7334417 20.24,12.15 C20.2746566,12.0737534 20.2746566,11.9862466 20.24,11.91 C20.1690493,11.8614266 20.0859046,11.8337118 20,11.83 C19.9138849,11.8161727 19.8261151,11.8161727 19.74,11.83 C18.7252189,12.1292069 17.7512034,12.5523999 16.84,13.09 C16.3330287,13.3643004 15.9110424,13.7724511 15.62,14.27 C15.62,14.27 15.62,14.42 15.62,14.49 C15.62,14.56 15.7,14.55 15.73,14.49 L16.1,14.36 C16.3,14.36 16.59,14.26 16.86,14.12 L16.91,14.12 Z M18.22,19.64 C18.7927636,19.6097927 19.3670688,19.6500948 19.93,19.76 C20.0419245,19.7694872 20.1516017,19.7246795 20.2248654,19.6395353 C20.298129,19.5543911 20.3260758,19.4392572 20.3,19.33 C20.2812995,19.2007476 20.2407191,19.0756248 20.18,18.96 C20.1308172,18.8913249 20.0541359,18.847507 19.97,18.84 C19.7032326,19.0041641 19.3667674,19.0041641 19.1,18.84 C18.9569366,18.7349414 18.7870518,18.6725347 18.61,18.66 C18.0338518,18.5961188 17.4513903,18.6966628 16.93,18.95 C16.35,19.27 15.75,19.54 15.16,19.85 C15.0061573,19.936766 14.8676403,20.0482553 14.75,20.18 C14.75,20.18 14.75,20.32 14.75,20.39 C14.7884852,20.405568 14.8315148,20.405568 14.87,20.39 L16,20 C16.7053341,19.7893005 17.4344139,19.6683472 18.17,19.64 L18.22,19.64 Z M27.4,57.15 C27.3489144,57.0809766 27.2842573,57.0231255 27.21,56.98 L24.51,55.28 C23.9825872,54.951559 23.4049412,54.7117176 22.8,54.57 C22.7116837,54.5552192 22.6217846,54.5851855 22.56,54.65 C22.529444,54.7236221 22.529444,54.8063779 22.56,54.88 C22.5857443,54.9632999 22.6264042,55.0412313 22.68,55.11 C23.4598843,56.0645364 24.5373104,56.7300055 25.74,57 C26.2382257,57.181934 26.7604589,57.2897499 27.29,57.32 C27.29,57.32 27.35,57.32 27.39,57.24 C27.43,57.16 27.38,57.18 27.35,57.15 L27.4,57.15 Z M23.4,32.57 C23.3424955,32.6275589 23.3196799,32.7112162 23.34,32.79 C23.393208,32.9095901 23.4846734,33.0080914 23.6,33.07 C23.8830024,33.1959719 24.1827966,33.2801837 24.49,33.32 C25.2802462,33.4316331 26.0335471,33.7261052 26.69,34.18 C26.9172334,34.3177621 27.1545796,34.4381066 27.4,34.54 C27.46,34.54 27.57,34.54 27.64,34.49 C27.71,34.44 27.77,34.37 27.71,34.27 C27.6370317,34.1093179 27.5500277,33.9553877 27.45,33.81 C26.5012504,32.6976469 25.0212108,32.1915194 23.59,32.49 C23.65,32.45 23.48,32.49 23.33,32.57 L23.4,32.57 Z M5.54,21 C5.54,21 5.54,21.15 5.54,21.23 C5.54,21.31 5.54,21.31 5.62,21.32 L6.39,21.52 C7.44268096,21.7214717 8.39710737,22.2708832 9.1,23.08 C9.19655066,23.165167 9.32126292,23.2114887 9.45,23.21 C9.53813968,23.2068803 9.61965812,23.1624157 9.67,23.09 C9.7029414,23.0168718 9.7029414,22.9331282 9.67,22.86 C9.24348363,22.1830535 8.68588067,21.5982504 8.03,21.14 C7.72666415,20.9238101 7.37106177,20.792617 7,20.76 C6.80013918,20.7494478 6.59986082,20.7494478 6.4,20.76 C6,20.81 5.75,20.78 5.54,21 Z M19.22,10.31 C18.5499366,10.7456326 17.8479418,11.1300583 17.12,11.46 C16.3950723,11.806201 15.7742137,12.33738 15.32,13 C15.32,13 15.32,13.15 15.39,13.22 C15.46,13.29 15.47,13.22 15.49,13.22 C15.68,13.09 15.85,12.96 16.03,12.82 C16.9041514,12.1381806 17.8882887,11.6106019 18.94,11.26 L20.06,10.84 C20.2321233,10.7744899 20.3207956,10.5838445 20.26,10.41 C20.19,10.25 20.02,10.13 19.7,10.15 C19.5295097,10.1641933 19.3649082,10.2190605 19.22,10.31 Z M26.22,34.66 C25.8092026,34.3229174 25.3213669,34.0927413 24.8,33.99 C24.59,33.99 24.37,33.88 24.16,33.85 C24.0785986,33.8246234 23.9914014,33.8246234 23.91,33.85 C23.6223868,34.0431287 23.3660771,34.2792035 23.15,34.55 C23.1302467,34.5910822 23.1302467,34.6389178 23.15,34.68 C23.1783109,34.7144134 23.216835,34.7389287 23.26,34.75 C23.8799989,34.7916436 24.4790147,34.9913155 25,35.33 C25.228909,35.4752273 25.521091,35.4752273 25.75,35.33 C25.94,35.22 26.11,35.09 26.29,34.97 C26.29,34.97 26.29,34.89 26.29,34.85 C26.29,34.81 26.24,34.7 26.18,34.66 L26.22,34.66 Z M22.49,13.44 C22.66,13.8 22.82,14.17 22.99,14.53 C22.99,14.63 23.13,14.64 23.22,14.53 C23.2538816,14.5072859 23.2814149,14.476311 23.3,14.44 C23.3371352,14.3611622 23.3607962,14.2766586 23.37,14.19 C23.4241184,13.2955137 23.2771882,12.4002642 22.94,11.57 C22.8262488,11.278969 22.6601779,11.011222 22.45,10.78 C22.3880904,10.7220173 22.3045288,10.6929524 22.22,10.7 C22.1577939,10.7521888 22.1213069,10.8288115 22.12,10.91 C22.12,11.22 22.12,11.54 22.12,11.56 C22.1050341,12.2061269 22.2313073,12.8477315 22.49,13.44 Z M21.49,25.71 C21.2016906,25.4968838 20.9514965,25.2365468 20.75,24.94 C20.2391831,24.2547286 19.4688537,23.8098906 18.62,23.71 L17.7,23.55 C17.7,23.55 17.62,23.55 17.58,23.55 C17.54,23.55 17.58,23.71 17.67,23.74 C17.9419361,23.8926044 18.2223961,24.0294956 18.51,24.15 C18.75,24.26 19,24.34 19.25,24.45 C20.0325785,24.7854455 20.6950546,25.3502935 21.15,26.07 C21.3036544,26.3906777 21.5295702,26.671361 21.81,26.89 C21.8635268,26.9414644 21.9287167,26.9792059 22,27 C22,27 22,26.93 22.07,26.86 C22.0308823,26.4165896 21.8233145,26.0050329 21.49,25.71 Z M23,57.33 C22.9686825,56.9101583 22.7281239,56.5342855 22.36,56.33 L21.66,55.98 C21.58,55.98 21.38,56.1 21.39,56.21 C21.3756296,56.3388469 21.3927887,56.469256 21.44,56.59 C21.5537749,56.8297041 21.6911181,57.0574928 21.85,57.27 C22.2335233,57.7522091 22.5312008,58.2968237 22.73,58.88 C22.73,59.02 22.99,59.14 23.03,59.07 C23.0877996,59.0092871 23.1261094,58.9326674 23.14,58.85 C23.14,58.63 23.14,58.42 23.14,58.2 C23,57.94 23,57.63 23,57.33 Z M14,12 C14,12 14.09,12 14.1,12 C14.3259888,11.789108 14.5396743,11.565406 14.74,11.33 C15.7262094,9.99807487 17.0574289,8.96076099 18.59,8.33 C18.64,8.33 18.67,8.21 18.71,8.15 C18.75,8.09 18.53,8.06 18.46,8.08 C17.7221899,8.2464549 17.03585,8.58962489 16.46,9.08 C15.87,9.62 15.27,10.15 14.67,10.67 C14.2870996,10.9776733 14.0308135,11.4154954 13.95,11.9 C13.9620223,11.93546 13.9788453,11.9691061 14,12 Z M15.42,16.7 C15.42,16.77 15.56,16.8 15.63,16.84 C15.6719853,16.8552857 15.7180147,16.8552857 15.76,16.84 C16.3033469,16.6349726 16.8717548,16.5038016 17.45,16.45 C17.5827279,16.4390039 17.7119222,16.4016055 17.83,16.34 C17.93,16.28 18.05,16.13 18.04,16.04 C17.9972033,15.9148579 17.8966675,15.8180456 17.77,15.78 C17.2,15.7 16.63,15.65 16.23,15.6 C15.9513462,15.5718337 15.6779134,15.6896173 15.5069528,15.9114591 C15.3359922,16.1333008 15.2917645,16.4277195 15.39,16.69 L15.42,16.7 Z M13.16,10 C13.1986701,10.014587 13.2413299,10.014587 13.28,10 C13.7442308,9.23407215 14.3943184,8.59774299 15.17,8.15 L16.03,7.53 C16.1216718,7.42750776 16.1216718,7.27249224 16.03,7.17 C15.96,7.17 15.86,7.07 15.79,7.09 C15.6172737,7.11470908 15.4509157,7.17242509 15.3,7.26 C14.9544048,7.47530725 14.6205931,7.70897546 14.3,7.96 C13.6905019,8.40920484 13.2557731,9.05599641 13.07,9.79 C13,9.83 13.06,9.92 13.16,10 Z M33.68,34.52 C33.6637229,34.5548602 33.6637229,34.5951398 33.68,34.63 C33.6877014,34.6721469 33.708734,34.7107066 33.74,34.74 C33.852609,34.8038079 33.9738685,34.8509644 34.1,34.88 C34.3648514,34.9011166 34.6313758,34.8808742 34.89,34.82 C35.7801225,34.564181 36.6955755,34.4065755 37.62,34.35 C37.62,34.35 37.7,34.35 37.73,34.29 C37.76,34.23 37.62,34.18 37.56,34.18 C36.8998569,34.0628856 36.2304391,34.0059851 35.56,34.01 C34.9028157,33.9978242 34.2541387,34.1599934 33.68,34.48 L33.68,34.52 Z M26.17,4.17 C26.7131096,3.99160317 27.2333505,3.74994288 27.72,3.45 C28.0814829,3.23160362 28.3297826,2.86645693 28.4,2.45 C28.4298692,2.27795345 28.4298692,2.10204655 28.4,1.93 C28.4,1.87 28.27,1.83 28.2,1.8 C28.1617424,1.78330303 28.1182576,1.78330303 28.08,1.8 C28.0153105,1.85426851 27.9639847,1.9227029 27.93,2 C27.7070525,2.78444597 27.1353389,3.42255207 26.38,3.73 C26.2949774,3.77837982 26.2202406,3.84292528 26.16,3.92 C26,4.19 26.05,4.21 26.17,4.17 Z M22.8,35.62 C22.6948172,35.701439 22.6332489,35.8269747 22.6332489,35.96 C22.6332489,36.0930253 22.6948172,36.218561 22.8,36.3 C22.9515968,36.38662 23.1085847,36.4634439 23.27,36.53 C23.4235088,36.6236586 23.6164912,36.6236586 23.77,36.53 C23.9498173,36.4088777 24.1233737,36.2787104 24.29,36.14 C24.42,36.04 24.36,35.78 24.21,35.7 C23.8799491,35.521815 23.5,35.4584902 23.13,35.52 L22.8,35.62 Z M16.25,4.62 C16.25,4.62 16.16,4.62 16.15,4.7 C16.14,4.78 16.15,4.91 16.23,4.91 C16.861456,4.94337385 17.4399341,5.27340304 17.79,5.8 C17.79,5.8 17.86,5.87 17.9,5.86 C17.94,5.85 18.09,5.86 18.12,5.79 C18.270466,5.46123053 18.1752664,5.0721541 17.89,4.85 C17.4749878,4.57472247 16.9722036,4.46418126 16.48,4.54 C16.4022679,4.54624365 16.325276,4.55963354 16.25,4.58 L16.25,4.62 Z M37.82,24.21 C38.16,23.87 38.5,23.53 38.82,23.21 C38.88,23.15 38.82,23.07 38.73,23.02 C38.2918903,22.8213464 37.8071132,22.7486298 37.33,22.81 C37.33,22.81 37.25,22.88 37.25,22.91 C37.3030103,23.3472228 37.4174728,23.7747739 37.59,24.18 C37.59,24.18 37.65,24.24 37.68,24.27 C37.729457,24.2572671 37.7766714,24.2370324 37.82,24.21 Z M29,2.73 C28.7666558,3.08065872 28.5093772,3.41478669 28.23,3.73 C27.9152839,3.97994031 27.5808593,4.20400479 27.23,4.4 C27.23,4.4 27.23,4.53 27.23,4.6 C27.23,4.67 27.31,4.6 27.34,4.6 C27.4702386,4.59468696 27.598674,4.56764795 27.72,4.52 C27.95,4.39 28.15,4.23 28.37,4.08 C28.59,3.93 28.73,3.84 28.92,3.73 C29.36,3.48 29.44,3.18 29.21,2.64 C29.21,2.64 29.15,2.64 29.12,2.64 C29.09,2.64 29,2.7 29,2.73 Z M40.51,24 C40.5477912,23.9761977 40.570718,23.9346623 40.570718,23.89 C40.570718,23.8453377 40.5477912,23.8038023 40.51,23.78 C40.3215815,23.6646791 40.0963495,23.6253529 39.88,23.67 C39.3995027,23.7589876 38.9805359,24.0504428 38.73,24.47 C38.65,24.6 38.62,24.79 38.73,24.82 C38.8132615,24.8248947 38.8967385,24.8248947 38.98,24.82 C39.5403351,24.6532616 40.0608914,24.3742707 40.51,24 Z M26.83,1.55 C26.573104,2.00213262 26.3875837,2.49123168 26.28,3 C26.28,3.09 26.28,3.11 26.39,3.08 C26.9918922,2.86357627 27.3705711,2.26674527 27.31,1.63 C27.31,1.63 27.31,1.53 27.31,1.51 L27.1,1.4 C27,1.45 26.87,1.48 26.83,1.55 Z M16.12,3.55 C16.12,3.55 16.12,3.62 16.12,3.66 C16.12,3.7 16.12,3.76 16.12,3.76 C16.46,3.82 16.81,3.69 17.12,3.83 C17.4467295,3.95908502 17.7806144,4.06926704 18.12,4.16 C18.21,4.16 18.27,4.16 18.29,4.03 C18.3052857,3.98801467 18.3052857,3.94198533 18.29,3.9 C18.2516945,3.82234347 18.2010355,3.75142088 18.14,3.69 C17.9329561,3.51789217 17.678234,3.41321189 17.41,3.39 L16.72,3.39 L16.12,3.55 Z M25.12,3.02 C25.2516398,3.02916428 25.3832288,3.00146133 25.5,2.94 C25.8054238,2.74953997 25.9849252,2.40963308 25.97,2.05 C25.9653848,1.96227687 25.9212558,1.8813737 25.85,1.83 C25.7775019,1.79424597 25.6924981,1.79424597 25.62,1.83 C25.2590391,2.01718177 25.0044873,2.36027334 24.93,2.76 C24.9249532,2.80318639 24.9249532,2.84681361 24.93,2.89 C25,2.89 25,3 25.09,3 L25.12,3.02 Z M23.16,26.9 C23.04,26.47 22.9,26.05 22.76,25.62 C22.7389183,25.5796067 22.7079572,25.5452054 22.67,25.52 L22.56,25.46 C22.47,25.46 22.41,25.46 22.4,25.6 C22.3848632,25.6860057 22.3848632,25.7739943 22.4,25.86 C22.55,26.38 22.71,26.86 22.87,27.39 C22.87,27.39 22.95,27.39 22.99,27.39 C23.1421219,27.2772274 23.2095919,27.0827549 23.16,26.9 Z M18.69,2.65 C18.8,2.65 18.84,2.56 18.81,2.47 C18.7925292,2.43292502 18.7688556,2.39910564 18.74,2.37 C18.710466,2.33469757 18.6726847,2.30722025 18.63,2.29 C18.1641299,2.12529004 17.6558701,2.12529004 17.19,2.29 C17.19,2.29 17.11,2.35 17.12,2.37 C17.13,2.39 17.18,2.55 17.24,2.58 C17.4542854,2.68489723 17.6990138,2.70972475 17.93,2.65 L18.69,2.65 Z M19.51,54.06 C19.51,54.06 19.45,54.14 19.46,54.16 C19.6842091,54.6075205 20.0310229,54.9820795 20.46,55.24 C20.4865452,55.273717 20.5270875,55.2933975 20.57,55.2933975 C20.6129125,55.2933975 20.6534548,55.273717 20.68,55.24 C20.6886722,55.20047 20.6886722,55.15953 20.68,55.12 C20.6721934,54.9898629 20.6345563,54.8632655 20.57,54.75 C20.3057352,54.4571359 19.9863074,54.2192641 19.63,54.05 C19.58,54 19.54,54 19.51,54.06 Z M22.35,28.06 C22.35,27.96 22.16,27.9 22.05,27.84 C22.0104196,27.8144949 21.9595804,27.8144949 21.92,27.84 C21.87,27.9 21.79,28.01 21.81,28.05 C21.94,28.33 22.09,28.6 22.24,28.86 C22.2971056,28.9270385 22.3646373,28.9844404 22.44,29.03 C22.44,28.96 22.44,28.89 22.51,28.81 C22.58,28.73 22.51,28.72 22.51,28.57 C22.4782899,28.3745836 22.4246166,28.1833724 22.35,28 L22.35,28.06 Z M21.19,53.34 C21.2144748,53.3735277 21.2534895,53.3933515 21.295,53.3933515 C21.3365105,53.3933515 21.3755252,53.3735277 21.4,53.34 C21.5055349,53.2156376 21.5992721,53.0817273 21.68,52.94 C21.68,52.94 21.68,52.83 21.68,52.82 C21.6085158,52.7856649 21.5350528,52.7556118 21.46,52.73 C21.3287449,52.7419592 21.2137607,52.8228363 21.1581377,52.9423227 C21.1025147,53.0618091 21.1146516,53.2018634 21.19,53.31 L21.19,53.34 Z M34.3,14.75 C34.3,14.75 34.3,14.83 34.36,14.85 C34.4300861,14.8898048 34.5094008,14.9104956 34.59,14.91 C34.6705319,14.8955565 34.7461654,14.8611776 34.81,14.81 C34.76,14.75 34.72,14.66 34.66,14.62 C34.5825568,14.5928159 34.5018558,14.5760032 34.42,14.57 C34.3765782,14.6276469 34.3365119,14.6877464 34.3,14.75 Z M22.14,37.1 C22.08,37.23 22.14,37.43 22.24,37.42 C22.3200588,37.417846 22.3972575,37.3897738 22.46,37.34 C22.5120524,37.2792035 22.5496597,37.2074077 22.57,37.13 C22.5886916,37.044507 22.5352295,36.9598587 22.45,36.94 C22.3209108,36.9058085 22.1869104,36.9749701 22.14,37.1 Z M33.86,33.45 L33.96,33.45 C33.96,33.45 33.96,33.45 33.96,33.38 L33.86,33.38 L33.86,33.45 Z M35.66,32.01 L35.76,32.01 C35.76,32.01 35.76,31.94 35.76,31.94 L35.66,31.94 C35.66,31.94 35.65,32 35.66,32 L35.66,32.01 Z M37.03,35.31 L36.92,35.31 L37.04,35.31 L37.03,35.31 Z" id="Shape"></path>
                </g>
            </g>
        </g>
    </g>
</svg>