<?xml version="1.0" encoding="UTF-8"?>
<svg width="32px" height="75px" viewBox="0 0 32 75" version="1.1" xmlns="http://www.w3.org/2000/svg" xmlns:xlink="http://www.w3.org/1999/xlink">
    <!-- Generator: Sketch 52.3 (67297) - http://www.bohemiancoding.com/sketch -->
    <title>images/rocket/rocket</title>
    <desc>Created with Sketch.</desc>
    <g id="Page-1" stroke="none" stroke-width="1" fill="none" fill-rule="evenodd">
        <g id="Desktop" transform="translate(-133.000000, -164.000000)">
            <g id="sean1">
                <g id="images/rocket/rocket" transform="translate(133.000000, 164.000000)">
                    <path d="M9.93,13.74 C9.93,13.74 10.04,13.69 10.03,13.68 C10.02,13.67 9.98,13.68 9.95,13.75 C9.7842089,13.806035 9.64982083,13.9295268 9.58,14.09 C9.36,14.59 9.16,15.09 8.95,15.62 C8.84,15.88 8.84,15.95 9.14,16.1 C9.32881991,16.1945153 9.49837927,16.3233805 9.64,16.48 C9.72853901,16.5705594 9.82955915,16.6480082 9.94,16.71 C10.2173693,16.8430881 10.5495422,16.7733728 10.75,16.54 C10.88,16.38 11.01,16.21 11.15,16.05 C11.29,15.89 11.43,15.9 11.48,15.98 C11.5213286,16.0499929 11.5453288,16.1288505 11.55,16.21 C11.55,16.38 11.45,16.54 11.43,16.7 C11.4265099,16.7819613 11.4689123,16.8590565 11.54,16.9 C11.8052854,17.0578223 12.1470297,16.9886082 12.33,16.74 C12.48,16.53 12.63,16.32 12.79,16.12 C12.8495951,16.0640502 12.9215411,16.0229381 13,16 C13.09,16 13.15,16.1 13.15,16.29 C13.1349993,16.4162225 13.1349993,16.5437775 13.15,16.67 C13.1663919,16.7508677 13.2176176,16.8203884 13.29,16.86 C13.45,16.91 13.62,16.93 13.78,16.97 C14.33,17.09 14.64,16.97 14.78,16.33 C14.8017517,16.1160166 14.9057213,15.9188328 15.07,15.78 C15.0983857,15.7493821 15.1382483,15.7319804 15.18,15.7319804 C15.2217517,15.7319804 15.2616143,15.7493821 15.29,15.78 C15.42,15.91 15.38,16.1 15.41,16.26 C15.4383272,16.4332931 15.5845543,16.5628085 15.76,16.57 C16.01,16.57 16.26,16.57 16.51,16.5 C16.6863077,16.4722745 16.8326752,16.3490177 16.89,16.18 C17,15.86 17.1,15.54 17.22,15.18 C17.2721888,15.1177939 17.3488115,15.0813069 17.43,15.08 C17.5111668,15.097047 17.5785958,15.1532378 17.61,15.23 C17.67,15.39 17.68,15.56 17.73,15.72 C17.78,15.88 17.83,15.89 17.89,15.9 C18.1784834,15.995972 18.4949598,15.9554924 18.75,15.79 C18.8578681,15.7228084 18.9391396,15.6203357 18.98,15.5 C19.05,15.26 19.07,15 19.13,14.75 C19.1583175,14.6282901 19.2091959,14.5129658 19.28,14.41 C19.3271676,14.3391303 19.4049964,14.2946567 19.49,14.29 C19.5609466,14.3074012 19.617753,14.3604206 19.64,14.43 C19.64,14.64 19.64,14.86 19.64,15.07 C19.6689511,15.2413776 19.8162108,15.3676002 19.99,15.37 C20.5338781,15.2675559 21.0470258,15.0417709 21.49,14.71 C21.5530478,14.6555255 21.5833304,14.5722484 21.57,14.49 C21.5152076,14.3253055 21.4413744,14.1675711 21.35,14.02 C20.821905,13.1970071 20.2371582,12.4117757 19.6,11.67 C19.1522168,11.2137909 18.6672062,10.7956784 18.15,10.42 C18.0743968,10.3824903 17.9856032,10.3824903 17.91,10.42 C17.6218763,10.5478956 17.2837616,10.4351907 17.13,10.16 C16.8419452,9.78427065 16.5057293,9.44805476 16.13,9.16 C15.29,8.45 15.18,8.59 14.68,9.37 C14.68,9.37 14.54,9.37 14.47,9.43 C14.4,9.49 14.41,9.37 14.4,9.33 C14.39,9.29 14.4,9.16 14.4,9.08 L14.37,9 C14.3011036,8.88802745 14.1594621,8.84510579 14.04,8.9 C13.86753,9.02124189 13.7097967,9.16219506 13.57,9.32 C13.21,9.79 12.87,10.32 12.52,10.77 C11.74,11.84 11,13 10.33,14.17 C10.25,14.31 10.08,14.39 9.96,14.5 L9.93,13.74 Z" id="Path" fill="#F3EFD9" fill-rule="evenodd"></path>
                    <path d="M7.72,25.08 C7.79713876,25.2797493 7.8638946,25.4833546 7.92,25.69 C7.938066,25.7512935 7.92858945,25.8174135 7.89403476,25.8711652 C7.85948006,25.924917 7.80326195,25.9609887 7.74,25.97 C7.53,26.05 7.5,26.13 7.59,26.23 C7.75051223,26.3694481 7.83267354,26.578586 7.81,26.79 C7.71,27.37 7.69,27.97 7.58,28.56 C7.47,29.15 7.58,29.75 7.39,30.33 C7.33787773,30.5831292 7.32105133,30.8422558 7.34,31.1 C7.36418316,31.4360062 7.3337897,31.7737113 7.25,32.1 C7.16498248,32.3871731 7.16498248,32.6928269 7.25,32.98 C7.30069382,33.0998226 7.31797273,33.2311423 7.3,33.36 C7.26360251,33.9534603 7.34517371,34.5482503 7.54,35.11 C7.59366418,35.3189801 7.69267366,35.5135849 7.83,35.68 C7.92431964,35.8176343 8.05622757,35.9252434 8.21,35.99 C8.53064902,36.1259936 8.86634282,36.2233448 9.21,36.28 C9.89,36.38 10.57,36.44 11.21,36.51 C11.4245232,36.5141522 11.6384431,36.5342072 11.85,36.57 C12.3530702,36.6728243 12.8678257,36.7064684 13.38,36.67 L14.78,36.61 C14.9925675,36.6355641 15.2074325,36.6355641 15.42,36.61 C16.1267558,36.4386974 16.8530192,36.3613638 17.58,36.38 C18.005243,36.3733348 18.4281957,36.3162697 18.84,36.21 C19.0026108,36.1607045 19.1704062,36.1305013 19.34,36.12 C20.1103777,36.0684445 20.8622506,35.8609139 21.55,35.51 C21.9701479,35.302576 22.4045889,35.1254577 22.85,34.98 C23.2185735,34.8503295 23.5582677,34.6499099 23.85,34.39 C23.9902888,34.2841025 24.0689502,34.1155423 24.06,33.94 C24.01,32.49 24.24,31.05 24.23,29.6 C24.23,27.68 24.15,25.76 24.1,23.84 C24.1,23.37 24.03,22.9 24.03,22.43 C23.9904516,21.4514297 23.8497014,20.4795827 23.61,19.53 C23.42,18.66 23.13,17.81 22.86,16.95 C22.7579141,16.6706705 22.6410833,16.3969526 22.51,16.13 C22.4339433,15.9749117 22.2724663,15.8803885 22.1,15.89 L20.1,16.41 C19.9399415,16.4725534 19.8280973,16.6191078 19.81,16.79 C19.76,17 19.74,17.21 19.7,17.41 C19.7,17.41 19.64,17.5 19.62,17.5 C19.6,17.5 19.43,17.5 19.39,17.43 C19.35,17.36 19.18,17.06 19.06,16.89 C19.0152952,16.816547 18.9359789,16.7712234 18.85,16.77 C18.4961764,16.748878 18.1451104,16.8436659 17.85,17.04 C17.7823041,17.0900598 17.7387597,17.1662624 17.73,17.25 C17.7593557,17.4157577 17.7994399,17.5794352 17.85,17.74 C17.85,17.87 17.85,18 17.75,18.07 C17.6017148,18.1686097 17.4042204,18.1475997 17.28,18.02 C17.23,17.96 17.17,17.9 17.12,17.83 C17.07,17.76 16.95,17.4 16.73,17.35 C16.5599897,17.347944 16.3908816,17.3750013 16.23,17.43 L15.86,17.53 C15.6055423,17.6030039 15.4520845,17.8616899 15.51,18.12 C15.51,18.21 15.51,18.29 15.51,18.37 C15.4905613,18.4522351 15.4449394,18.525932 15.38,18.58 C15.2754213,18.6551069 15.1345787,18.6551069 15.03,18.58 C14.9252958,18.4479234 14.831646,18.3074487 14.75,18.16 C14.6244381,17.9272486 14.3737126,17.7901331 14.11,17.81 L13.22,17.86 C12.98,17.86 12.89,18.02 12.94,18.3 C12.94,18.38 13,18.46 12.94,18.54 C12.88,18.62 12.94,18.73 12.83,18.75 C12.7166994,18.7896334 12.5933006,18.7896334 12.48,18.75 C12.23,18.65 12.13,18.4 12.02,18.16 C11.8755528,17.8939877 11.6106796,17.7149185 11.31,17.68 C11.1836037,17.6600868 11.0545521,17.692568 10.9526425,17.7699438 C10.8507329,17.8473196 10.7847757,17.9629006 10.77,18.09 C10.7632967,18.3030269 10.8042963,18.5148583 10.89,18.71 C10.89,18.85 10.89,19.05 10.79,19.04 C10.6646047,19.0386303 10.5412875,19.007801 10.43,18.95 C10.1815548,18.7718588 10.0479102,18.4740223 10.08,18.17 C10.08,18 10.08,17.83 10.08,17.66 C10.0636081,17.5791323 10.0123824,17.5096116 9.94,17.47 C9.65900053,17.3735265 9.37164321,17.2966752 9.08,17.24 C8.93183642,17.2013622 8.77420275,17.2286908 8.64769192,17.3149482 C8.52118109,17.4012055 8.43815717,17.5379617 8.42,17.69 C8.2,18.69 7.95,19.69 7.77,20.69 C7.64346154,21.4038129 7.56661027,22.1255466 7.54,22.85 C7.54,23.53 7.54,24.21 7.54,24.85 C7.56,24.92 7.57,25 7.72,25.08 Z" id="Path" fill="#F3EFD9" fill-rule="evenodd"></path>
                    <path d="M23.81,47.26 C23.81,46.76 23.62,46.26 23.89,45.75 C23.94,45.29 23.99,44.82 24.03,44.35 C24.0694704,44.1015579 24.0694704,43.8484421 24.03,43.6 C23.9347494,43.229355 23.9347494,42.840645 24.03,42.47 C24.1902551,41.7178764 24.2507753,40.9479251 24.21,40.18 C24.14,38.9 24.14,37.62 24.1,36.34 C24.1,36.13 24.1,35.92 24.04,35.71 C24.0056662,35.5834681 23.8996846,35.4892623 23.77,35.47 C22.7702592,35.6668507 21.7873067,35.9410075 20.83,36.29 C20.4245359,36.4225902 20.0101579,36.5261848 19.59,36.6 C18.7143628,36.7760991 17.8231635,36.8632088 16.93,36.86 C16.6727591,36.8608089 16.4169137,36.8978392 16.17,36.97 C15.4720555,37.1706612 14.7408069,37.2284808 14.02,37.14 C13.6884049,37.0918575 13.3515951,37.0918575 13.02,37.14 C12.5615226,37.2348663 12.0884774,37.2348663 11.63,37.14 C11.3382184,37.0722466 11.0395418,37.0386874 10.74,37.04 C10.098623,37.0439611 9.46068349,36.9460762 8.85,36.75 L8.73,36.75 C7.2,36.39 7.25,36.2 7.27,37.84 C7.27,38.53 7.27,39.21 7.27,39.84 C7.27,40.14 7.21,40.43 7.19,40.73 C7.16550192,40.8957664 7.16550192,41.0642336 7.19,41.23 C7.28481518,41.6040856 7.28481518,41.9959144 7.19,42.37 C7.07416493,42.8389686 7.22375132,43.3337544 7.58,43.66 C7.82380762,43.8442076 7.90338348,44.1750756 7.77,44.45 C7.77,45.56 7.48,46.65 7.55,47.76 C7.58006041,48.1441411 7.53938708,48.5305376 7.43,48.9 C7.31,49.26 7.56,49.67 7.26,50 C7.27632328,50.4743891 7.49023913,50.9203493 7.85,51.23 C8.23,51.52 8.5,51.49 8.85,51.1 C8.92451797,50.9989244 9.00464368,50.9021059 9.09,50.81 C9.14140036,50.7755855 9.20583251,50.7668918 9.26451572,50.7864528 C9.32319893,50.8060139 9.3695284,50.8516282 9.39,50.91 C9.44,51.12 9.46,51.33 9.51,51.53 C9.55339415,51.7001734 9.69591266,51.8268565 9.87,51.85 L10.63,51.85 C10.804137,51.8314497 10.9459608,51.7017822 10.98,51.53 C10.98,51.4 10.98,51.28 10.98,51.15 C10.9894453,51.0218907 11.0095143,50.8947871 11.04,50.77 C11.0707757,50.6448258 11.1661285,50.5456589 11.29,50.51 C11.4169878,50.5042605 11.5365709,50.5698383 11.6,50.68 C11.637575,50.7581659 11.6709557,50.8382796 11.7,50.92 C11.7,51.08 11.75,51.25 11.79,51.42 C11.7946563,51.704116 11.9594769,51.9612021 12.2157145,52.0840267 C12.471952,52.2068513 12.7755978,52.1743193 13,52 C13.1121494,51.9432413 13.2032413,51.8521494 13.26,51.74 C13.37,51.52 13.34,51.23 13.56,51.05 C13.5883857,51.0193821 13.6282483,51.0019804 13.67,51.0019804 C13.7117517,51.0019804 13.7516143,51.0193821 13.78,51.05 C13.833284,51.1152658 13.8739748,51.1898657 13.9,51.27 C14.14,52.05 14.14,52.06 14.84,51.88 C15.0090897,51.8512183 15.1737745,51.8008046 15.33,51.73 C15.4367027,51.6678437 15.5207823,51.5732541 15.57,51.46 C15.66,51.27 15.57,51.02 15.79,50.88 C16.01,50.74 15.99,50.88 16.01,50.88 C16.092239,51.0248243 16.1560664,51.1793539 16.2,51.34 C16.2506694,51.6054706 16.5031203,51.7826291 16.77,51.74 C16.9849357,51.7448143 17.1997044,51.7246797 17.41,51.68 C17.86,51.59 18.19,51.37 18.2,50.84 C18.234634,50.6746431 18.3026929,50.5181077 18.4,50.38 C18.4,50.38 18.47,50.38 18.51,50.33 C18.5479554,50.3098938 18.5933922,50.3098332 18.6314011,50.3298379 C18.6694101,50.3498426 18.6950846,50.3873302 18.7,50.43 C18.75,50.64 18.76,50.85 18.79,51.06 C18.797175,51.1437202 18.8391321,51.2205939 18.9056633,51.271918 C18.9721944,51.323242 19.0572006,51.3443114 19.14,51.33 C19.31,51.33 19.47,51.21 19.63,51.17 C19.9716777,51.0920156 20.2370116,50.8227797 20.31,50.48 C20.38,50.23 20.43,49.98 20.52,49.74 C20.5874592,49.5848653 20.6712662,49.437365 20.77,49.3 C20.8133109,49.2554009 20.8728316,49.2302342 20.935,49.2302342 C20.9971684,49.2302342 21.0566891,49.2554009 21.1,49.3 C21.16,49.36 21.23,49.45 21.22,49.51 C21.17,49.76 21.09,50 21.04,50.24 C21.0307648,50.3037412 21.0544497,50.3678213 21.1029207,50.4102334 C21.1513918,50.4526456 21.2180488,50.4676147 21.28,50.45 C21.9325582,50.2161882 22.6009086,50.0290501 23.28,49.89 C23.3623843,49.8945454 23.4372203,49.939447 23.48,50.01 C23.509174,50.0873402 23.509174,50.1726598 23.48,50.25 C23.4427073,50.3257188 23.383466,50.3884448 23.31,50.43 C23.11,50.51 22.9,50.56 22.71,50.64 C22.23,50.82 21.71,50.99 21.27,51.19 C21.0718846,51.2797367 20.940623,51.4727685 20.93,51.69 C20.93,51.94 20.93,52.2 20.86,52.45 C20.86,52.51 20.74,52.58 20.67,52.59 C20.5923388,52.5858881 20.5198862,52.5496619 20.47,52.49 C20.37,52.3 20.32,52.09 20.22,51.91 C20.1785587,51.8381172 20.1029278,51.7927386 20.02,51.79 C19.69,51.87 19.36,51.97 19.02,52.08 C18.9446934,52.1184389 18.8899121,52.1878286 18.87,52.27 C18.81,52.61 18.78,52.94 18.73,53.27 C18.6928134,53.3423323 18.6278523,53.3964666 18.55,53.42 C18.4759828,53.4485042 18.3940172,53.4485042 18.32,53.42 C18.2533782,53.3655797 18.2046104,53.292428 18.18,53.21 C18.136157,53.0897502 18.1027013,52.9659638 18.08,52.84 C18.0612982,52.7587213 18.0379261,52.6785883 18.01,52.6 C17.9591643,52.4821106 17.8478655,52.4015149 17.72,52.39 C17.2942242,52.4078806 16.8761952,52.5098389 16.49,52.69 C16.4,52.69 16.33,52.89 16.3,53 C16.2878343,53.2563428 16.1931254,53.5018845 16.03,53.7 C15.95,53.77 15.87,53.79 15.8,53.7 C15.7156523,53.6108513 15.6448931,53.5097669 15.59,53.4 C15.5539562,53.2338167 15.5071918,53.0701411 15.45,52.91 C15.3837017,52.8074933 15.2793757,52.7355444 15.16,52.71 C14.9039305,52.6852384 14.6460695,52.6852384 14.39,52.71 C14.2167557,52.7109501 14.0618713,52.8181778 14,52.98 L13.73,53.7 C13.7076006,53.7380236 13.6720131,53.7664935 13.63,53.78 C13.5567267,53.758476 13.4909213,53.7169147 13.44,53.66 C13.3645091,53.5547928 13.3101697,53.4359254 13.28,53.31 C13.15,52.7 12.81,52.7 12.19,52.81 C12.09,52.81 12,52.97 11.93,53.07 C11.86,53.17 11.75,53.45 11.64,53.63 C11.53,53.81 11.49,53.7 11.42,53.69 C11.3430822,53.665325 11.2763528,53.616156 11.23,53.55 C11.2034409,53.5148792 11.1862364,53.4735886 11.18,53.43 C11.12,53.23 11.18,53 10.97,52.84 C10.7361627,52.6496094 10.4413831,52.5501657 10.14,52.56 C10.02,52.56 9.89,52.56 9.76,52.56 C9.58799128,52.56934 9.44016479,52.685204 9.39,52.85 C9.34,53.02 9.32,53.18 9.27,53.35 C9.22,53.52 9.27,53.45 9.21,53.45 C9.12613173,53.4513132 9.04338345,53.4306261 8.97,53.39 C8.67,53.18 8.66,52.8 8.48,52.52 C8.42116551,52.463605 8.34131664,52.4345691 8.26,52.44 C8.2,52.44 8.14,52.53 8.09,52.59 C8.04,52.65 8.09,52.67 8.09,52.71 C8.07999629,52.796378 8.07999629,52.883622 8.09,52.97 C8.18716842,53.6560324 8.10446796,54.3555404 7.85,55 C7.76425509,55.7301612 7.95709154,56.4657965 8.39,57.06 C8.43917898,57.1281772 8.50444811,57.1831407 8.58,57.22 L9.29,57.5 C9.53,57.58 9.79,57.63 10.02,57.72 C10.7675513,58.0370365 11.568244,58.2100676 12.38,58.23 C12.9789908,58.2375865 13.5717439,58.3527499 14.13,58.57 C14.7285795,58.8011589 15.3692058,58.9033865 16.01,58.87 C16.6,58.87 17.21,58.87 17.79,58.79 C18.37,58.71 18.72,58.63 19.17,58.54 L20.8,58.22 C21.6418121,58.1017931 22.4179951,57.6995892 23,57.08 C23.2475001,56.8388895 23.397094,56.5147694 23.42,56.17 C23.5174287,55.5070133 23.5808451,54.8394727 23.61,54.17 C23.5896699,54.0879066 23.5896699,54.0020934 23.61,53.92 C23.8432046,53.0537011 23.9077082,52.1506498 23.8,51.26 C23.8,50.75 23.8,50.26 23.8,49.72 C23.8,48.88 23.75,48.07 23.81,47.26 Z" id="Path" fill="#F3EFD9" fill-rule="evenodd"></path>
                    <path d="M22.73,59.06 C22.6953334,58.9387865 22.6413034,58.8239727 22.57,58.72 C22.4576436,58.5843186 22.2652068,58.5466679 22.11,58.63 C21.98,58.73 21.86,58.85 21.72,58.96 C21.58,59.07 21.5,59.16 21.41,59.15 C20.85,59.04 20.41,59.46 19.96,59.54 C19.2138964,59.7191 18.4549073,59.8394683 17.69,59.9 C17.18,59.9 16.69,59.9 16.16,59.9 C15.7718391,59.8871679 15.3846302,59.8537878 15,59.8 C14.1520996,59.7125149 13.318756,59.51762 12.52,59.22 C12.1233926,59.0604257 11.7056895,58.9593685 11.28,58.92 C10.6470858,58.8411435 10.0216721,58.7107096 9.41,58.53 C9.19462237,58.4849413 8.97618904,58.5920973 8.88,58.79 C8.79448584,58.9338 8.73998621,59.0938926 8.72,59.26 C8.67435103,59.6441931 8.71535518,60.0337326 8.84,60.4 C9.00466275,60.7914741 9.10593095,61.2066737 9.14,61.63 C9.17840317,61.7514439 9.25571519,61.8568693 9.36,61.93 C9.49296309,62.032901 9.64149813,62.1139201 9.8,62.17 C10.5271758,62.4174447 11.2835897,62.5687275 12.05,62.62 C12.86,62.62 13.65,62.84 14.47,62.84 C14.9331789,62.8878956 15.3914783,62.9748721 15.84,63.1 C16.2113314,63.2147881 16.6086686,63.2147881 16.98,63.1 C17.0620934,63.0796699 17.1479066,63.0796699 17.23,63.1 C18.0412454,63.0943877 18.8421211,62.9171727 19.58,62.58 C19.8479616,62.4361095 20.1648223,62.414257 20.45,62.52 C20.7972715,62.7118511 21.2295952,62.6506733 21.51,62.37 C21.6351133,62.2538048 21.7809883,62.1622089 21.94,62.1 C22.4469383,61.848126 22.7625987,61.3259224 22.75,60.76 C22.7699926,60.4603331 22.7699926,60.1596669 22.75,59.86 L22.8,59.86 C22.78,59.57 22.77,59.31 22.73,59.06 Z" id="Path" fill="#F3EFD9" fill-rule="evenodd"></path>
                    <path d="M16.78,66.57 C16.78,66.23 16.78,65.89 16.78,65.57 C16.78,65.25 16.73,64.63 16.7,64.16 C16.7,64.01 16.51,63.86 16.36,63.84 C15.807826,63.8398378 15.256387,63.7997331 14.71,63.72 C14.35,63.61 14.16,63.82 14.23,64.22 C14.2502144,64.4295135 14.2502144,64.6404865 14.23,64.85 C14.2066757,65.8301135 14.0826911,66.8052355 13.86,67.76 C13.7899977,68.0491569 13.7899977,68.3508431 13.86,68.64 C13.9156312,68.7563182 13.96243,68.876658 14,69 C13.961175,69.3895688 13.6583774,69.7006622 13.27,69.75 C13.0986092,69.7331145 12.9283291,69.7064039 12.76,69.67 C12.35,69.57 11.94,69.44 11.52,69.36 C10.81,69.23 10.1,69.13 9.38,69.02 C9.33703135,69.0147351 9.29768982,68.9932761 9.27,68.96 C9.20601227,68.9090862 9.15467327,68.8440568 9.12,68.77 C9.11735517,68.6860857 9.14585106,68.60416 9.2,68.54 C9.25744086,68.476796 9.32956519,68.4287131 9.41,68.4 C9.52,68.34 9.66,68.33 9.74,68.25 C9.82,68.17 9.74,67.94 9.69,67.78 C9.64,67.62 9.69,67.27 9.69,67.02 C9.69,66.12 9.69,65.23 9.69,64.33 C9.64,62.78 9.69,63.22 8.47,62.33 C8.30908963,62.2623779 8.12291134,62.3068988 8.01,62.44 C7.88,62.61 7.76,62.78 7.64,62.96 C7.4,63.31 7.2,63.7 6.93,64.02 C6.29,64.76 5.61,65.47 4.93,66.2 L4.15,67.04 C3.96610208,67.2245842 3.85587541,67.4699274 3.84,67.73 C3.80212549,68.2861134 3.60029453,68.8185295 3.26,69.26 C2.88278415,69.729109 2.66864803,70.3083296 2.65,70.91 C2.61620337,71.28834 2.44972614,71.6425469 2.18,71.91 C2.00256227,72.1039427 1.71124853,72.1419401 1.49,72 C1.29598232,71.900601 1.19331182,71.6829395 1.24,71.47 C1.33,71.14 1.43,70.81 1.53,70.47 C1.65254561,70.0586671 1.61687724,69.6163794 1.43,69.23 C1.37,69.11 1.32,68.99 1.26,68.88 C1.1559295,68.6902732 1.1342413,68.4661618 1.2,68.26 C1.34267811,67.8148057 1.39702892,67.3460299 1.36,66.88 C1.22,65.94 1.24,65 1.19,64.07 C1.19004376,63.038852 1.08618584,62.0103235 0.88,61 C0.860228824,60.8305749 0.860228824,60.6594251 0.88,60.49 C0.905244365,60.3242893 0.905244365,60.1557107 0.88,59.99 C0.753123661,59.3345444 0.696138136,58.6674785 0.71,58 C0.762442999,57.1883305 0.677929717,56.3736225 0.46,55.59 C0.430135782,55.5093423 0.430135782,55.4206577 0.46,55.34 C0.539664597,55.0520756 0.539664597,54.7479244 0.46,54.46 C0.408821813,54.0810676 0.328585364,53.7066308 0.22,53.34 C0.08,52.97 0.36,52.6 0.32,52.21 C0.32,52.08 0.32,51.95 0.32,51.83 C0.351288058,51.320967 0.487471211,50.8238985 0.72,50.37 C0.766814028,50.2474512 0.850716467,50.1425732 0.96,50.07 C1.15,49.9 1.35,49.75 1.55,49.59 C1.94806697,49.2759964 2.2867371,48.8932992 2.55,48.46 C3.04537904,47.6601028 3.60381925,46.9010254 4.22,46.19 C4.71615235,45.648918 5.06105257,44.9867096 5.22,44.27 C5.29766752,43.9825192 5.39798114,43.701641 5.52,43.43 C5.60870775,43.2362629 5.66931854,43.0308596 5.7,42.82 C5.74313534,42.2808346 5.84370517,41.7478145 6,41.23 C6.06164952,41.028553 6.098587,40.8203599 6.11,40.61 C6.11,39.84 6.32,39.09 6.31,38.32 C6.31333,38.064692 6.35721053,37.8115351 6.44,37.57 C6.62618042,36.8685246 6.75329122,36.15269 6.82,35.43 C6.87,35.13 6.73,34.83 6.82,34.55 C6.91820824,33.7874447 6.94165301,33.0171163 6.89,32.25 C6.86160466,31.6544303 6.89849103,31.0575419 7,30.47 C6.95318132,29.9811184 6.95318132,29.4888816 7,29 C7,28.14 7,27.29 7,26.43 C6.90936156,25.6192318 6.94647948,24.7992631 7.11,24 C7.12513678,23.9139943 7.12513678,23.8260057 7.11,23.74 C7.15287773,22.890354 7.25647541,22.0448632 7.42,21.21 C7.52,20.21 7.75,19.28 7.78,18.29 C7.76571408,18.1637361 7.76571408,18.0362639 7.78,17.91 C7.92796423,16.9830172 8.20393292,16.0810707 8.6,15.23 C8.77386808,14.935508 8.90834893,14.619478 9,14.29 C9.15382737,13.8025021 9.37965552,13.3407341 9.67,12.92 C9.95536947,12.4923234 10.2029706,12.0406186 10.41,11.57 C10.5071029,11.3342521 10.6348711,11.112339 10.79,10.91 C11.5433333,9.99 12.28,9.09 13,8.21 C13.2323695,7.90115975 13.5249257,7.64262167 13.86,7.45 C14.007048,7.36171122 14.1171654,7.22317643 14.17,7.06 C14.5227824,6.18492079 14.616506,5.22685743 14.44,4.3 C14.44,4.09 14.34,3.88 14.32,3.67 C14.26,3.21 14.21,2.74 14.17,2.27 C14.1602649,2.10109627 14.1805798,1.9318051 14.23,1.77 C14.36,1.32 14.51,0.87 14.68,0.44 C14.7599938,0.289738207 14.8770218,0.16238423 15.02,0.07 C15.128434,0.00224640193 15.2622691,-0.0110410734 15.3819085,0.0340688485 C15.5015478,0.0791787703 15.593293,0.177521113 15.63,0.3 C15.6978778,0.50451501 15.6978778,0.72548499 15.63,0.93 C15.509342,1.19810527 15.3724203,1.45859029 15.22,1.71 C15.129191,1.85613866 15.0937163,2.02996487 15.12,2.2 C15.26,3.05 15.4,3.89 15.53,4.73 C15.53,4.94 15.53,5.15 15.59,5.36 C15.65,5.57 15.59,5.88 15.65,6.13 C15.7456711,7.15883756 16.2281408,8.1130553 17,8.8 C17.4224592,9.1645991 17.8702496,9.4987711 18.34,9.8 C19.2657001,10.3868947 20.0813735,11.1314928 20.75,12 C21.43,12.88 21.98,13.85 22.67,14.72 C22.9295081,15.0588531 23.1259677,15.4416106 23.25,15.85 C23.7790551,17.2908817 24.2034897,18.7680477 24.52,20.27 C24.6579858,20.892572 24.7515548,21.5241628 24.8,22.16 C24.8,22.63 24.85,23.1 24.87,23.57 C24.95,25.23 24.87,26.9 25,28.57 C25.0419165,29.0472558 25.0217483,29.5279329 24.94,30 C24.8350643,30.5871643 24.7948239,31.1840641 24.82,31.78 C24.8531771,32.3357571 24.8162195,32.89348 24.71,33.44 C24.6350437,33.7285449 24.6350437,34.0314551 24.71,34.32 C24.8450263,34.903335 24.9055091,35.5014424 24.89,36.1 C24.89,36.57 24.89,37.04 24.94,37.51 C24.9436971,37.7663578 24.9772568,38.0214114 25.04,38.27 C25.42,39.62 25.65,41.01 26.04,42.37 C26.16,42.83 26.18,43.31 26.34,43.74 C26.531848,44.2129424 26.7522541,44.6737914 27,45.12 C27.08,45.27 27.14,45.43 27.22,45.58 C27.49,46.16 27.76,46.74 28.06,47.31 C28.36,47.88 28.7,48.51 29.06,49.1 C29.42,49.69 29.89,50.49 30.32,51.17 C30.4191958,51.309142 30.540858,51.4308042 30.68,51.53 C30.9042432,51.672427 31.0128313,51.9418863 30.95,52.2 C30.87,52.7 30.79,53.2 30.69,53.71 C30.6137974,54.0042507 30.6845807,54.3171875 30.88,54.55 C30.9982856,54.6448984 31.0671102,54.7883517 31.0671102,54.94 C31.0671102,55.0916483 30.9982856,55.2351016 30.88,55.33 C30.7732769,55.4599569 30.70105,55.6147289 30.67,55.78 C30.4403247,56.95519 30.3596892,58.1546429 30.43,59.35 C30.43,59.73 30.43,60.11 30.43,60.5 C30.4600857,60.7089224 30.4600857,60.9210776 30.43,61.13 C30.3186271,61.6759898 30.2916468,62.2358307 30.35,62.79 C30.3947782,63.4599317 30.3476746,64.13284 30.21,64.79 C30.1598803,64.9960342 30.1396732,65.208209 30.15,65.42 C30.1798824,65.7808806 30.0687717,66.1393022 29.84,66.42 C29.6752362,66.6249904 29.6060803,66.8906947 29.65,67.15 C29.6750538,68.2588468 29.7752838,69.3647178 29.95,70.46 C29.9604577,70.5430052 29.9604577,70.6269948 29.95,70.71 C29.95,71.82 30.02,72.93 30.05,74.04 C30.0504233,74.2084874 30.0302743,74.3763963 29.99,74.54 C29.9401426,74.6556337 29.8688939,74.7608104 29.78,74.85 C29.7364171,74.8978254 29.674705,74.9250807 29.61,74.9250807 C29.545295,74.9250807 29.4835829,74.8978254 29.44,74.85 C29.3791628,74.7921949 29.3284585,74.7245892 29.29,74.65 C28.96,73.82 28.47,73.06 28.19,72.21 C28.0995941,71.9707512 27.9821669,71.7426071 27.84,71.53 C27.7666121,71.3759266 27.6567754,71.2420631 27.52,71.14 C26.9088233,70.7391343 26.4316678,70.1644579 26.15,69.49 C25.87,69.01 25.61,68.49 25.36,68.02 C25.158981,67.5953337 24.9034981,67.1986629 24.6,66.84 C24.0764444,66.2660801 23.6870483,65.5829291 23.46,64.84 C23.2390982,64.1963151 22.9473053,63.5791898 22.59,63 C22.513937,62.9003591 22.4267007,62.8097675 22.33,62.73 C22.2236705,62.6605448 22.0863295,62.6605448 21.98,62.73 C21.87,62.8 21.78,62.9 21.67,62.96 C21.437048,63.0564924 21.2183616,63.1843398 21.02,63.34 C20.8,63.56 20.9,63.9 20.86,64.19 C20.82,64.48 20.86,64.62 20.8,64.83 C20.5989223,65.9187916 20.4918611,67.0228601 20.48,68.13 C20.48,68.26 20.48,68.39 20.43,68.51 C20.2969646,69.3827797 19.5886637,70.0540183 18.71,70.14 C18.41,70.14 18.09,70.23 17.84,70.04 C17.5515902,69.8278331 17.1971731,69.7250521 16.84,69.75 C16.4544363,69.7674074 16.0703311,69.6919582 15.72,69.53 C15.6632003,69.4747983 15.6158983,69.4106027 15.58,69.34 C15.58,69.34 15.65,69.28 15.69,69.28 C15.94,69.28 16.2,69.28 16.45,69.22 C16.6284191,69.2200819 16.7745934,69.0783372 16.78,68.9 L16.72,66.6 L16.78,66.57 Z M10.51,12.9 L10.44,12.97 L10.35,12.97 L10.42,12.9 L10.51,12.9 Z M5.75,63.9 C5.54363668,63.9579238 5.36134485,64.0806202 5.23,64.25 C4.34,65.25 3.36,66.25 2.53,67.25 C2.41904375,67.3747532 2.31869531,67.5085511 2.23,67.65 C2.01958077,67.9797279 1.98950306,68.3932964 2.15,68.75 C2.15,68.86 2.26,68.97 2.32,69.09 C2.38,69.21 2.22,69.09 2.22,69.09 C2.22,69.09 2.22,69.09 2.3,69.02 C2.82000749,68.3829908 3.29133844,67.7077507 3.71,67 C4.02613419,66.4484382 4.40901828,65.9379261 4.85,65.48 C5.05,65.26 5.24,65.02 5.45,64.82 C5.69140178,64.5712883 5.79596144,64.2202667 5.73,63.88 L5.99,63.61 C6.16936697,63.527387 6.31184032,63.3813518 6.39,63.2 C6.40964961,63.1659659 6.40964961,63.1240341 6.39,63.09 C6.34,63.01 6.27,63.01 6.2,63.09 C6.0647569,63.2360048 5.99597975,63.4314767 6.01,63.63 C5.88994091,63.6638199 5.79330119,63.7530258 5.75,63.87 L5.75,63.9 Z M1.75,51.75 C1.75,51.82 1.75,51.8 1.83,51.68 C2.12952972,51.6750077 2.40694166,51.5213065 2.57,51.27 C2.92155663,50.7515174 3.22609997,50.2026701 3.48,49.63 C3.48,49.63 3.48,49.55 3.42,49.53 C3.38825455,49.5154495 3.35174545,49.5154495 3.32,49.53 C3.21548015,49.5998878 3.12123603,49.6840343 3.04,49.78 L1.82,51.67 L1.75,51.75 Z M29,50.15 C28.63,49.52 28.26,48.9 27.9,48.27 C27.7470905,47.9654772 27.5404407,47.6910734 27.29,47.46 C26.9816724,47.1607234 26.7663735,46.7787416 26.67,46.36 C26.338563,45.3945555 25.9580681,44.4466559 25.53,43.52 C25.4776373,43.4592035 25.4001373,43.4259892 25.32,43.43 C25.2477348,43.4652788 25.1908384,43.5257312 25.16,43.6 C25.1396699,43.6820934 25.1396699,43.7679066 25.16,43.85 C25.1805117,43.9754498 25.2105996,44.0991447 25.25,44.22 C25.37,44.54 25.52,44.85 25.61,45.22 C25.6865507,45.68282 25.856684,46.1251666 26.11,46.52 C26.2074398,46.7091326 26.2620649,46.9173908 26.27,47.13 C26.2949695,47.3839007 26.4082102,47.6209985 26.59,47.8 C27.1197263,48.2923378 27.5926715,48.84243 28,49.44 C28.3625954,49.9613159 28.7855283,50.4379546 29.26,50.86 C29.26,50.86 29.26,50.97 29.31,50.96 C29.36,50.95 29.31,50.96 29.24,50.88 C29.2335698,50.6183528 29.1500845,50.3644185 29,50.15 Z M2.71,54.77 L1.64,56.21 C1.37568356,56.5498859 1.23464723,56.969469 1.24,57.4 C1.24,57.78 1.24,58.17 1.3,58.55 C1.31971684,58.6287751 1.38122489,58.6902832 1.46,58.71 C1.5404766,58.7257874 1.62344313,58.6993889 1.68,58.64 C1.75492059,58.5406532 1.81864017,58.433336 1.87,58.32 C1.9071352,58.2411622 1.93079621,58.1566586 1.94,58.07 C1.96666195,57.2499308 2.3280463,56.4765683 2.94,55.93 C3.44,55.35 3.94,54.8 4.5,54.24 C5.0290852,53.6857232 5.52972785,53.1049777 6,52.5 C6.30106423,52.1365311 6.47024325,51.6818624 6.48,51.21 C6.48,51.05 6.61,50.89 6.48,50.72 C6.48,50.72 6.41,50.72 6.39,50.72 C6.31196302,50.7439222 6.24022869,50.7849133 6.18,50.84 C5.54567509,51.4573875 4.96367799,52.1263497 4.44,52.84 C4.26784857,53.087146 4.05874174,53.3063709 3.82,53.49 C3.67675307,53.5754276 3.52177871,53.6394388 3.36,53.68 C3.7635585,52.982507 4.24315067,52.3318714 4.79,51.74 C5.36,51.11 5.87,50.43 6.4,49.74 C6.5187224,49.6142077 6.57390223,49.4413108 6.55,49.27 C6.51956323,49.1987448 6.47538911,49.1341826 6.42,49.08 C6.38105029,49.0670368 6.33894971,49.0670368 6.3,49.08 C6.19880595,49.1579326 6.10199194,49.241393 6.01,49.33 L2.56,53.11 C2.27192796,53.4230216 2.00784733,53.7573009 1.77,54.11 C1.51345677,54.499035 1.33356807,54.9334831 1.24,55.39 C1.24,55.46 1.24,55.54 1.32,55.61 C1.35882251,55.6237258 1.40117749,55.6237258 1.44,55.61 L2.33,54.7 C2.52,54.52 2.72,54.37 2.91,54.2 C2.90368604,54.4060742 2.83383139,54.60516 2.71,54.77 Z M9.93,13.77 C9.93,13.77 10.04,13.72 10.03,13.71 C10.02,13.7 9.98,13.71 9.95,13.78 C9.7842089,13.836035 9.64982083,13.9595268 9.58,14.12 C9.36,14.62 9.16,15.12 8.95,15.65 C8.84,15.91 8.84,15.98 9.14,16.13 C9.32881991,16.2245153 9.49837927,16.3533805 9.64,16.51 C9.72853901,16.6005594 9.82955915,16.6780082 9.94,16.74 C10.2173693,16.8730881 10.5495422,16.8033728 10.75,16.57 C10.88,16.41 11.01,16.24 11.15,16.08 C11.29,15.92 11.43,15.93 11.48,16.01 C11.5213286,16.0799929 11.5453288,16.1588505 11.55,16.24 C11.55,16.41 11.45,16.57 11.43,16.73 C11.4265099,16.8119613 11.4689123,16.8890565 11.54,16.93 C11.8052854,17.0878223 12.1470297,17.0186082 12.33,16.77 C12.48,16.56 12.63,16.35 12.79,16.15 C12.8462836,16.0831483 12.9185078,16.0315596 13,16 C13.09,16 13.15,16.1 13.15,16.29 C13.1349993,16.4162225 13.1349993,16.5437775 13.15,16.67 C13.1663919,16.7508677 13.2176176,16.8203884 13.29,16.86 C13.45,16.91 13.62,16.93 13.78,16.97 C14.33,17.09 14.64,16.97 14.78,16.33 C14.8017517,16.1160166 14.9057213,15.9188328 15.07,15.78 C15.0983857,15.7493821 15.1382483,15.7319804 15.18,15.7319804 C15.2217517,15.7319804 15.2616143,15.7493821 15.29,15.78 C15.42,15.91 15.38,16.1 15.41,16.26 C15.4383272,16.4332931 15.5845543,16.5628085 15.76,16.57 C16.01,16.57 16.26,16.57 16.51,16.5 C16.6863077,16.4722745 16.8326752,16.3490177 16.89,16.18 C17,15.86 17.1,15.54 17.22,15.18 C17.2721888,15.1177939 17.3488115,15.0813069 17.43,15.08 C17.5111668,15.097047 17.5785958,15.1532378 17.61,15.23 C17.67,15.39 17.68,15.56 17.73,15.72 C17.78,15.88 17.83,15.89 17.89,15.9 C18.1784834,15.995972 18.4949598,15.9554924 18.75,15.79 C18.8578681,15.7228084 18.9391396,15.6203357 18.98,15.5 C19.05,15.26 19.07,15 19.13,14.75 C19.1583175,14.6282901 19.2091959,14.5129658 19.28,14.41 C19.3271676,14.3391303 19.4049964,14.2946567 19.49,14.29 C19.5609466,14.3074012 19.617753,14.3604206 19.64,14.43 C19.64,14.64 19.64,14.86 19.64,15.07 C19.6689511,15.2413776 19.8162108,15.3676002 19.99,15.37 C20.5338781,15.2675559 21.0470258,15.0417709 21.49,14.71 C21.5530478,14.6555255 21.5833304,14.5722484 21.57,14.49 C21.5152076,14.3253055 21.4413744,14.1675711 21.35,14.02 C20.821905,13.1970071 20.2371582,12.4117757 19.6,11.67 C19.1522168,11.2137909 18.6672062,10.7956784 18.15,10.42 C18.0743968,10.3824903 17.9856032,10.3824903 17.91,10.42 C17.6218763,10.5478956 17.2837616,10.4351907 17.13,10.16 C16.8419452,9.78427065 16.5057293,9.44805476 16.13,9.16 C15.29,8.45 15.18,8.59 14.68,9.37 C14.68,9.37 14.54,9.37 14.47,9.43 C14.4,9.49 14.41,9.37 14.4,9.33 C14.39,9.29 14.4,9.16 14.4,9.08 L14.37,9 C14.3011036,8.88802745 14.1594621,8.84510579 14.04,8.9 C13.86753,9.02124189 13.7097967,9.16219506 13.57,9.32 C13.21,9.79 12.87,10.32 12.52,10.77 C11.74,11.84 11,13 10.33,14.17 C10.25,14.31 10.08,14.39 9.96,14.5 L9.93,13.77 Z M7.72,25.08 C7.79713876,25.2797493 7.8638946,25.4833546 7.92,25.69 C7.938066,25.7512935 7.92858945,25.8174135 7.89403476,25.8711652 C7.85948006,25.924917 7.80326195,25.9609887 7.74,25.97 C7.53,26.05 7.5,26.13 7.59,26.23 C7.75051223,26.3694481 7.83267354,26.578586 7.81,26.79 C7.71,27.37 7.69,27.97 7.58,28.56 C7.47,29.15 7.58,29.75 7.39,30.33 C7.33787773,30.5831292 7.32105133,30.8422558 7.34,31.1 C7.36418316,31.4360062 7.3337897,31.7737113 7.25,32.1 C7.16498248,32.3871731 7.16498248,32.6928269 7.25,32.98 C7.30069382,33.0998226 7.31797273,33.2311423 7.3,33.36 C7.26360251,33.9534603 7.34517371,34.5482503 7.54,35.11 C7.59366418,35.3189801 7.69267366,35.5135849 7.83,35.68 C7.92431964,35.8176343 8.05622757,35.9252434 8.21,35.99 C8.53064902,36.1259936 8.86634282,36.2233448 9.21,36.28 C9.89,36.38 10.57,36.44 11.21,36.51 C11.4245232,36.5141522 11.6384431,36.5342072 11.85,36.57 C12.3530702,36.6728243 12.8678257,36.7064684 13.38,36.67 L14.78,36.61 C14.9925675,36.6355641 15.2074325,36.6355641 15.42,36.61 C16.1267558,36.4386974 16.8530192,36.3613638 17.58,36.38 C18.005243,36.3733348 18.4281957,36.3162697 18.84,36.21 C19.0026108,36.1607045 19.1704062,36.1305013 19.34,36.12 C20.1103777,36.0684445 20.8622506,35.8609139 21.55,35.51 C21.9701479,35.302576 22.4045889,35.1254577 22.85,34.98 C23.2185735,34.8503295 23.5582677,34.6499099 23.85,34.39 C23.9902888,34.2841025 24.0689502,34.1155423 24.06,33.94 C24.01,32.49 24.24,31.05 24.23,29.6 C24.23,27.68 24.15,25.76 24.1,23.84 C24.1,23.37 24.03,22.9 24.03,22.43 C23.9904516,21.4514297 23.8497014,20.4795827 23.61,19.53 C23.42,18.66 23.13,17.81 22.86,16.95 C22.7579141,16.6706705 22.6410833,16.3969526 22.51,16.13 C22.4339433,15.9749117 22.2724663,15.8803885 22.1,15.89 L20.1,16.41 C19.9399415,16.4725534 19.8280973,16.6191078 19.81,16.79 C19.76,17 19.74,17.21 19.7,17.41 C19.7,17.41 19.64,17.5 19.62,17.5 C19.6,17.5 19.43,17.5 19.39,17.43 C19.35,17.36 19.18,17.06 19.06,16.89 C19.0152952,16.816547 18.9359789,16.7712234 18.85,16.77 C18.4961764,16.748878 18.1451104,16.8436659 17.85,17.04 C17.7823041,17.0900598 17.7387597,17.1662624 17.73,17.25 C17.7593557,17.4157577 17.7994399,17.5794352 17.85,17.74 C17.85,17.87 17.85,18 17.75,18.07 C17.6017148,18.1686097 17.4042204,18.1475997 17.28,18.02 C17.23,17.96 17.17,17.9 17.12,17.83 C17.07,17.76 16.95,17.4 16.73,17.35 C16.5599897,17.347944 16.3908816,17.3750013 16.23,17.43 L15.86,17.53 C15.6055423,17.6030039 15.4520845,17.8616899 15.51,18.12 C15.51,18.21 15.51,18.29 15.51,18.37 C15.4905613,18.4522351 15.4449394,18.525932 15.38,18.58 C15.2754213,18.6551069 15.1345787,18.6551069 15.03,18.58 C14.9252958,18.4479234 14.831646,18.3074487 14.75,18.16 C14.6244381,17.9272486 14.3737126,17.7901331 14.11,17.81 L13.22,17.86 C12.98,17.86 12.89,18.02 12.94,18.3 C12.94,18.38 13,18.46 12.94,18.54 C12.88,18.62 12.94,18.73 12.83,18.75 C12.7166994,18.7896334 12.5933006,18.7896334 12.48,18.75 C12.23,18.65 12.13,18.4 12.02,18.16 C11.8755528,17.8939877 11.6106796,17.7149185 11.31,17.68 C11.1836037,17.6600868 11.0545521,17.692568 10.9526425,17.7699438 C10.8507329,17.8473196 10.7847757,17.9629006 10.77,18.09 C10.7632967,18.3030269 10.8042963,18.5148583 10.89,18.71 C10.89,18.85 10.89,19.05 10.79,19.04 C10.6646047,19.0386303 10.5412875,19.007801 10.43,18.95 C10.1815548,18.7718588 10.0479102,18.4740223 10.08,18.17 C10.08,18 10.08,17.83 10.08,17.66 C10.0636081,17.5791323 10.0123824,17.5096116 9.94,17.47 C9.65900053,17.3735265 9.37164321,17.2966752 9.08,17.24 C8.93183642,17.2013622 8.77420275,17.2286908 8.64769192,17.3149482 C8.52118109,17.4012055 8.43815717,17.5379617 8.42,17.69 C8.2,18.69 7.95,19.69 7.77,20.69 C7.64346154,21.4038129 7.56661027,22.1255466 7.54,22.85 C7.54,23.53 7.54,24.21 7.54,24.85 C7.56,24.92 7.57,25 7.72,25.08 Z M23.81,47.26 C23.81,46.76 23.62,46.26 23.89,45.75 C23.94,45.29 23.99,44.82 24.03,44.35 C24.0694704,44.1015579 24.0694704,43.8484421 24.03,43.6 C23.9347494,43.229355 23.9347494,42.840645 24.03,42.47 C24.1902551,41.7178764 24.2507753,40.9479251 24.21,40.18 C24.14,38.9 24.14,37.62 24.1,36.34 C24.1,36.13 24.1,35.92 24.04,35.71 C24.0056662,35.5834681 23.8996846,35.4892623 23.77,35.47 C22.7702592,35.6668507 21.7873067,35.9410075 20.83,36.29 C20.4245359,36.4225902 20.0101579,36.5261848 19.59,36.6 C18.7143628,36.7760991 17.8231635,36.8632088 16.93,36.86 C16.6727591,36.8608089 16.4169137,36.8978392 16.17,36.97 C15.4720555,37.1706612 14.7408069,37.2284808 14.02,37.14 C13.6884049,37.0918575 13.3515951,37.0918575 13.02,37.14 C12.5615226,37.2348663 12.0884774,37.2348663 11.63,37.14 C11.3382184,37.0722466 11.0395418,37.0386874 10.74,37.04 C10.098623,37.0439611 9.46068349,36.9460762 8.85,36.75 L8.73,36.75 C7.2,36.39 7.25,36.2 7.27,37.84 C7.27,38.53 7.27,39.21 7.27,39.84 C7.27,40.14 7.21,40.43 7.19,40.73 C7.16550192,40.8957664 7.16550192,41.0642336 7.19,41.23 C7.28481518,41.6040856 7.28481518,41.9959144 7.19,42.37 C7.07416493,42.8389686 7.22375132,43.3337544 7.58,43.66 C7.82380762,43.8442076 7.90338348,44.1750756 7.77,44.45 C7.77,45.56 7.48,46.65 7.55,47.76 C7.58006041,48.1441411 7.53938708,48.5305376 7.43,48.9 C7.31,49.26 7.56,49.67 7.26,50 C7.27632328,50.4743891 7.49023913,50.9203493 7.85,51.23 C8.23,51.52 8.5,51.49 8.85,51.1 C8.92451797,50.9989244 9.00464368,50.9021059 9.09,50.81 C9.14140036,50.7755855 9.20583251,50.7668918 9.26451572,50.7864528 C9.32319893,50.8060139 9.3695284,50.8516282 9.39,50.91 C9.44,51.12 9.46,51.33 9.51,51.53 C9.55339415,51.7001734 9.69591266,51.8268565 9.87,51.85 L10.63,51.85 C10.804137,51.8314497 10.9459608,51.7017822 10.98,51.53 C10.98,51.4 10.98,51.28 10.98,51.15 C10.9894453,51.0218907 11.0095143,50.8947871 11.04,50.77 C11.0707757,50.6448258 11.1661285,50.5456589 11.29,50.51 C11.4169878,50.5042605 11.5365709,50.5698383 11.6,50.68 C11.637575,50.7581659 11.6709557,50.8382796 11.7,50.92 C11.7,51.08 11.75,51.25 11.79,51.42 C11.7946563,51.704116 11.9594769,51.9612021 12.2157145,52.0840267 C12.471952,52.2068513 12.7755978,52.1743193 13,52 C13.1121494,51.9432413 13.2032413,51.8521494 13.26,51.74 C13.37,51.52 13.34,51.23 13.56,51.05 C13.5883857,51.0193821 13.6282483,51.0019804 13.67,51.0019804 C13.7117517,51.0019804 13.7516143,51.0193821 13.78,51.05 C13.833284,51.1152658 13.8739748,51.1898657 13.9,51.27 C14.14,52.05 14.14,52.06 14.84,51.88 C15.0090897,51.8512183 15.1737745,51.8008046 15.33,51.73 C15.4367027,51.6678437 15.5207823,51.5732541 15.57,51.46 C15.66,51.27 15.57,51.02 15.79,50.88 C16.01,50.74 15.99,50.88 16.01,50.88 C16.092239,51.0248243 16.1560664,51.1793539 16.2,51.34 C16.2506694,51.6054706 16.5031203,51.7826291 16.77,51.74 C16.9849357,51.7448143 17.1997044,51.7246797 17.41,51.68 C17.86,51.59 18.19,51.37 18.2,50.84 C18.234634,50.6746431 18.3026929,50.5181077 18.4,50.38 C18.4,50.38 18.47,50.38 18.51,50.33 C18.5479554,50.3098938 18.5933922,50.3098332 18.6314011,50.3298379 C18.6694101,50.3498426 18.6950846,50.3873302 18.7,50.43 C18.75,50.64 18.76,50.85 18.79,51.06 C18.797175,51.1437202 18.8391321,51.2205939 18.9056633,51.271918 C18.9721944,51.323242 19.0572006,51.3443114 19.14,51.33 C19.31,51.33 19.47,51.21 19.63,51.17 C19.9716777,51.0920156 20.2370116,50.8227797 20.31,50.48 C20.38,50.23 20.43,49.98 20.52,49.74 C20.5874592,49.5848653 20.6712662,49.437365 20.77,49.3 C20.8133109,49.2554009 20.8728316,49.2302342 20.935,49.2302342 C20.9971684,49.2302342 21.0566891,49.2554009 21.1,49.3 C21.16,49.36 21.23,49.45 21.22,49.51 C21.17,49.76 21.09,50 21.04,50.24 C21.0307648,50.3037412 21.0544497,50.3678213 21.1029207,50.4102334 C21.1513918,50.4526456 21.2180488,50.4676147 21.28,50.45 C21.9325582,50.2161882 22.6009086,50.0290501 23.28,49.89 C23.3623843,49.8945454 23.4372203,49.939447 23.48,50.01 C23.509174,50.0873402 23.509174,50.1726598 23.48,50.25 C23.4427073,50.3257188 23.383466,50.3884448 23.31,50.43 C23.11,50.51 22.9,50.56 22.71,50.64 C22.23,50.82 21.71,50.99 21.27,51.19 C21.0718846,51.2797367 20.940623,51.4727685 20.93,51.69 C20.93,51.94 20.93,52.2 20.86,52.45 C20.86,52.51 20.74,52.58 20.67,52.59 C20.5923388,52.5858881 20.5198862,52.5496619 20.47,52.49 C20.37,52.3 20.32,52.09 20.22,51.91 C20.1785587,51.8381172 20.1029278,51.7927386 20.02,51.79 C19.69,51.87 19.36,51.97 19.02,52.08 C18.9446934,52.1184389 18.8899121,52.1878286 18.87,52.27 C18.81,52.61 18.78,52.94 18.73,53.27 C18.6928134,53.3423323 18.6278523,53.3964666 18.55,53.42 C18.4759828,53.4485042 18.3940172,53.4485042 18.32,53.42 C18.2533782,53.3655797 18.2046104,53.292428 18.18,53.21 C18.136157,53.0897502 18.1027013,52.9659638 18.08,52.84 C18.0612982,52.7587213 18.0379261,52.6785883 18.01,52.6 C17.9591643,52.4821106 17.8478655,52.4015149 17.72,52.39 C17.2942242,52.4078806 16.8761952,52.5098389 16.49,52.69 C16.4,52.69 16.33,52.89 16.3,53 C16.2878343,53.2563428 16.1931254,53.5018845 16.03,53.7 C15.95,53.77 15.87,53.79 15.8,53.7 C15.7156523,53.6108513 15.6448931,53.5097669 15.59,53.4 C15.5539562,53.2338167 15.5071918,53.0701411 15.45,52.91 C15.3837017,52.8074933 15.2793757,52.7355444 15.16,52.71 C14.9039305,52.6852384 14.6460695,52.6852384 14.39,52.71 C14.2167557,52.7109501 14.0618713,52.8181778 14,52.98 L13.73,53.7 C13.7076006,53.7380236 13.6720131,53.7664935 13.63,53.78 C13.5567267,53.758476 13.4909213,53.7169147 13.44,53.66 C13.3645091,53.5547928 13.3101697,53.4359254 13.28,53.31 C13.15,52.7 12.81,52.7 12.19,52.81 C12.09,52.81 12,52.97 11.93,53.07 C11.86,53.17 11.75,53.45 11.64,53.63 C11.53,53.81 11.49,53.7 11.42,53.69 C11.3430822,53.665325 11.2763528,53.616156 11.23,53.55 C11.2034409,53.5148792 11.1862364,53.4735886 11.18,53.43 C11.12,53.23 11.18,53 10.97,52.84 C10.7361627,52.6496094 10.4413831,52.5501657 10.14,52.56 C10.02,52.56 9.89,52.56 9.76,52.56 C9.58799128,52.56934 9.44016479,52.685204 9.39,52.85 C9.34,53.02 9.32,53.18 9.27,53.35 C9.22,53.52 9.27,53.45 9.21,53.45 C9.12613173,53.4513132 9.04338345,53.4306261 8.97,53.39 C8.67,53.18 8.66,52.8 8.48,52.52 C8.42116551,52.463605 8.34131664,52.4345691 8.26,52.44 C8.2,52.44 8.14,52.53 8.09,52.59 C8.04,52.65 8.09,52.67 8.09,52.71 C8.07999629,52.796378 8.07999629,52.883622 8.09,52.97 C8.18716842,53.6560324 8.10446796,54.3555404 7.85,55 C7.76425509,55.7301612 7.95709154,56.4657965 8.39,57.06 C8.43917898,57.1281772 8.50444811,57.1831407 8.58,57.22 L9.29,57.5 C9.53,57.58 9.79,57.63 10.02,57.72 C10.7675513,58.0370365 11.568244,58.2100676 12.38,58.23 C12.9789908,58.2375865 13.5717439,58.3527499 14.13,58.57 C14.7285795,58.8011589 15.3692058,58.9033865 16.01,58.87 C16.6,58.87 17.21,58.87 17.79,58.79 C18.37,58.71 18.72,58.63 19.17,58.54 L20.8,58.22 C21.6418121,58.1017931 22.4179951,57.6995892 23,57.08 C23.2475001,56.8388895 23.397094,56.5147694 23.42,56.17 C23.5174287,55.5070133 23.5808451,54.8394727 23.61,54.17 C23.5896699,54.0879066 23.5896699,54.0020934 23.61,53.92 C23.8432046,53.0537011 23.9077082,52.1506498 23.8,51.26 C23.8,50.75 23.8,50.26 23.8,49.72 C23.8,48.88 23.75,48.07 23.81,47.26 Z M22.73,59.06 C22.6953334,58.9387865 22.6413034,58.8239727 22.57,58.72 C22.4576436,58.5843186 22.2652068,58.5466679 22.11,58.63 C21.98,58.73 21.86,58.85 21.72,58.96 C21.58,59.07 21.5,59.16 21.41,59.15 C20.85,59.04 20.41,59.46 19.96,59.54 C19.2138964,59.7191 18.4549073,59.8394683 17.69,59.9 C17.18,59.9 16.69,59.9 16.16,59.9 C15.7718391,59.8871679 15.3846302,59.8537878 15,59.8 C14.1520996,59.7125149 13.318756,59.51762 12.52,59.22 C12.1233926,59.0604257 11.7056895,58.9593685 11.28,58.92 C10.6470858,58.8411435 10.0216721,58.7107096 9.41,58.53 C9.19462237,58.4849413 8.97618904,58.5920973 8.88,58.79 C8.79448584,58.9338 8.73998621,59.0938926 8.72,59.26 C8.67435103,59.6441931 8.71535518,60.0337326 8.84,60.4 C9.00466275,60.7914741 9.10593095,61.2066737 9.14,61.63 C9.17840317,61.7514439 9.25571519,61.8568693 9.36,61.93 C9.49296309,62.032901 9.64149813,62.1139201 9.8,62.17 C10.5271758,62.4174447 11.2835897,62.5687275 12.05,62.62 C12.86,62.62 13.65,62.84 14.47,62.84 C14.9331789,62.8878956 15.3914783,62.9748721 15.84,63.1 C16.2113314,63.2147881 16.6086686,63.2147881 16.98,63.1 C17.0620934,63.0796699 17.1479066,63.0796699 17.23,63.1 C18.0412454,63.0943877 18.8421211,62.9171727 19.58,62.58 C19.8479616,62.4361095 20.1648223,62.414257 20.45,62.52 C20.7972715,62.7118511 21.2295952,62.6506733 21.51,62.37 C21.6351133,62.2538048 21.7809883,62.1622089 21.94,62.1 C22.4469383,61.848126 22.7625987,61.3259224 22.75,60.76 C22.7699926,60.4603331 22.7699926,60.1596669 22.75,59.86 L22.8,59.86 C22.78,59.57 22.77,59.31 22.73,59.06 Z M28.81,66.06 C28.2155934,65.3510144 27.5741439,64.6828378 26.89,64.06 C26.7,63.9 26.54,63.69 26.35,63.52 C25.95,63.14 25.72,62.62 25.22,62.31 C24.7709183,62.0020377 24.3401865,61.668137 23.93,61.31 C23.8425039,61.2117627 23.7061881,61.1728153 23.58,61.21 C23.32,61.29 23.16,61.77 23.33,61.94 C23.73,62.33 24.15,62.7 24.53,63.09 C25.1827254,63.7193213 25.7971596,64.3871845 26.37,65.09 C26.4549318,65.1849294 26.5450706,65.2750682 26.64,65.36 C27.3893615,66.0544884 28.0972492,66.792428 28.76,67.57 C28.84,67.67 28.97,67.78 29.08,67.72 C29.19,67.66 29.16,67.49 29.2,67.37 C29.2068377,67.3403896 29.2068377,67.3096104 29.2,67.28 C29.2729017,66.8403773 29.1274279,66.3927656 28.81,66.08 L28.81,66.06 Z M29.81,62.9 C29.8116022,62.6422464 29.6933624,62.3983768 29.49,62.24 C29.2660088,62.0450787 29.032382,61.8615148 28.79,61.69 C28.3938912,61.4363571 28.0339541,61.1302424 27.72,60.78 C27.0376469,60.0853362 26.3933722,59.354268 25.79,58.59 C25.3992673,58.0892157 24.9377693,57.6479293 24.42,57.28 C24.3462712,57.2358432 24.2554855,57.2309721 24.1774551,57.2669861 C24.0994247,57.3030001 24.0442316,57.3752461 24.03,57.46 C23.9137115,57.7880973 24.0041858,58.1539281 24.26,58.39 C24.4497679,58.5564313 24.630051,58.7333759 24.8,58.92 C25.2071646,59.4104393 25.6518374,59.8684858 26.13,60.29 C26.4915671,60.640705 26.8258692,61.0184664 27.13,61.42 C27.48,61.78 27.91,62.07 28.29,62.42 C28.47,62.59 28.61,62.81 28.79,62.99 C28.97,63.17 29.27,63.47 29.52,63.7 C29.5576074,63.7195658 29.6023926,63.7195658 29.64,63.7 C29.7020293,63.6579596 29.750634,63.5989395 29.78,63.53 C29.790874,63.4604223 29.790874,63.3895777 29.78,63.32 C29.83,63.09 29.83,63 29.83,62.92 L29.81,62.9 Z M6.45,54.68 C6.13,54.95 5.8,55.23 5.5,55.53 C4.95,56.11 4.4,56.71 3.86,57.31 C3.07483158,58.2153409 2.41861755,59.224901 1.91,60.31 C1.87951966,60.4314501 1.87951966,60.5585499 1.91,60.68 C1.91,60.78 2.14,60.89 2.21,60.82 C2.37649161,60.694984 2.52754917,60.5506401 2.66,60.39 C2.91348571,60.040874 3.1872921,59.7069638 3.48,59.39 C3.73,59.05 4.01,58.73 4.28,58.39 C4.94,57.61 5.66,56.89 6.38,56.17 C6.73422969,55.7978349 6.91253443,55.2920316 6.87,54.78 C6.87,54.72 6.77,54.67 6.71,54.62 C6.65,54.57 6.5,54.63 6.45,54.68 Z M24.59,54.37 C24.5950084,54.4944956 24.640671,54.6139211 24.72,54.71 C25.35,55.35 25.99,55.98 26.64,56.59 C26.99,56.91 27.26,57.3 27.64,57.59 C28.02,57.88 28.38,58.17 28.74,58.47 C29.1,58.77 29.18,58.86 29.41,59.06 C29.64,59.26 29.72,59.12 29.78,58.9 C29.84,58.68 29.85,58.66 29.87,58.53 C29.94,58.21 29.87,58.01 29.63,57.87 C29.1758192,57.6227039 28.7470852,57.3312988 28.35,57 C27.9340144,56.6406934 27.5368211,56.2601888 27.16,55.86 C26.38,55.07 25.74,54.16 25.02,53.33 C24.97,53.28 24.86,53.33 24.78,53.28 C24.7,53.23 24.72,53.35 24.71,53.38 C24.6885364,53.4623017 24.671842,53.5457739 24.66,53.63 C24.66,53.72 24.66,53.8 24.66,53.97 C24.6276591,54.1015993 24.6042722,54.2352387 24.59,54.37 Z M25.79,49 C26.4613631,49.979916 27.2357826,50.8850816 28.1,51.7 C28.68,52.26 29.27,52.81 29.87,53.35 C29.95,53.43 30.09,53.43 30.21,53.47 C30.2528947,53.3535968 30.2830703,53.2328945 30.3,53.11 C30.294401,52.8990099 30.2573254,52.6900387 30.19,52.49 C30.08,52.15 29.88,51.87 29.47,51.89 C29.1675546,51.8831636 28.8844616,51.7397788 28.7,51.5 C28.5090628,51.2743287 28.3320675,51.0372218 28.17,50.79 C27.5819569,49.853111 26.9127158,48.9697127 26.17,48.15 C25.9355792,47.9026902 25.7851114,47.5877577 25.74,47.25 C25.6903978,47.0469244 25.6058,46.8540414 25.49,46.68 C25.49,46.63 25.36,46.62 25.29,46.61 C25.22,46.6 25.23,46.67 25.23,46.71 C25.23,46.75 25.23,47.05 25.23,47.22 C25.2227009,47.8577771 25.4188599,48.4812824 25.79,49 Z M28.85,68.6 C27.55,67.31 26.31,66 25,64.68 C24.55,64.24 24.13,63.76 23.69,63.3 C23.6559659,63.2803504 23.6140341,63.2803504 23.58,63.3 C23.546283,63.3265452 23.5266025,63.3670875 23.5266025,63.41 C23.5266025,63.4529125 23.546283,63.4934548 23.58,63.52 C23.7127058,63.7864533 23.8736275,64.0378934 24.06,64.27 C24.4456727,64.6751099 24.7814003,65.1249849 25.06,65.61 C25.4580099,66.2680141 25.9460679,66.8671473 26.51,67.39 C26.9033333,67.77 27.2833333,68.17 27.65,68.59 C28.073677,69.0498631 28.5244821,69.4839717 29,69.89 C29,69.89 29.15,69.89 29.22,69.89 C29.29,69.89 29.22,69.83 29.28,69.79 C29.2849577,69.7468085 29.2849577,69.7031915 29.28,69.66 C29.2980908,69.260869 29.141043,68.8737277 28.85,68.6 Z M29.45,55.41 C29.3093843,55.2633759 29.1590434,55.1263986 29,55 C28.2681753,54.5109395 27.5968348,53.9369434 27,53.29 C26.2812184,52.728512 25.6120838,52.1062168 25,51.43 C24.9319318,51.3907008 24.8480682,51.3907008 24.78,51.43 C24.7201842,51.4824199 24.6902229,51.5610685 24.7,51.64 C24.7361548,51.8031988 24.8004482,51.9588565 24.89,52.1 C25.1346961,52.4966389 25.4087983,52.8743651 25.71,53.23 C26.03,53.57 26.31,53.95 26.64,54.23 C27.4,54.97 28.08,55.78 28.87,56.48 L29.16,56.73 C29.36,56.9 29.67,56.99 29.73,56.89 C29.7875818,56.7780012 29.8344566,56.6608142 29.87,56.54 C29.9272427,56.1168573 29.7697156,55.6930343 29.45,55.41 Z M29.17,59.74 C28.9869819,59.5639185 28.7896349,59.403365 28.58,59.26 C27.7022109,58.5903145 26.8795712,57.8512764 26.12,57.05 C25.6905112,56.5800601 25.2147764,56.154579 24.7,55.78 C24.7,55.78 24.62,55.78 24.59,55.78 C24.56,55.78 24.52,55.84 24.52,55.87 C24.4745127,56.0399877 24.5198699,56.2214167 24.64,56.35 C25.16,56.85 25.58,57.43 26.1,57.94 C26.7487115,58.4902783 27.3234845,59.1221924 27.81,59.82 C27.8622939,59.8906723 27.9266063,59.9515998 28,60 C28.4898409,60.4727781 28.9443906,60.9808042 29.36,61.52 C29.45,61.63 29.67,61.71 29.7,61.66 C29.73,61.61 29.78,61.43 29.82,61.32 C29.8249577,61.2768085 29.8249577,61.2331915 29.82,61.19 L29.82,61.09 C29.8166737,60.565311 29.5780946,60.0698006 29.17,59.74 Z M23.62,59.26 C23.5182798,59.5467789 23.5837248,59.8663045 23.79,60.09 C23.91,60.22 24.03,60.33 24.16,60.45 L27.5,63.6 C27.9,63.97 28.18,64.48 28.68,64.75 C28.7456642,64.800334 28.8203342,64.837669 28.9,64.86 C28.9815266,64.8702721 29.0638805,64.8487885 29.13,64.8 C29.2688142,64.6278283 29.2688142,64.3821717 29.13,64.21 L28.93,64.05 C28.7443535,63.949814 28.572851,63.8253906 28.42,63.68 C27.52,62.6 26.42,61.76 25.48,60.68 C25.0878427,60.1766637 24.6600779,59.7021121 24.2,59.26 C24.0985182,59.1829049 23.9876249,59.1190572 23.87,59.07 C23.87,59.07 23.79,59.07 23.76,59.07 C23.73,59.07 23.64,59.19 23.62,59.26 Z M2,65 C2.03634256,65.0796094 2.12990121,65.1152508 2.21,65.08 C2.25174939,65.0718978 2.28809715,65.0464544 2.31,65.01 C2.65,64.37 3.24,63.9 3.57,63.26 C3.9,62.62 4.47,62.26 4.74,61.59 C4.76097435,61.5524863 4.78800536,61.5186975 4.82,61.49 C5.47973182,60.823614 6.0449943,60.0699306 6.5,59.25 C6.73608087,58.9039002 6.98974701,58.570129 7.26,58.25 C7.26724485,58.1660792 7.21194298,58.0895074 7.13,58.07 C6.9725906,58.1270921 6.82173387,58.2008443 6.68,58.29 C6.25446779,58.6471116 5.88382741,59.0649244 5.58,59.53 C5.02720427,60.4483771 4.35463223,61.2890921 3.58,62.03 C3.18,62.59 2.72,63.08 2.29,63.61 C2.00128747,63.9333999 1.85054537,64.3569135 1.87,64.79 C1.90775159,64.8633051 1.95121939,64.9335223 2,65 Z M25,50 C25.1074264,50.2782371 25.2520769,50.5406265 25.43,50.78 C25.9098174,51.4830153 26.4815586,52.118657 27.13,52.67 C27.7905056,53.15829 28.415418,53.6929743 29,54.27 C29.229468,54.5233603 29.5131925,54.7216256 29.83,54.85 C29.8676074,54.8695658 29.9123926,54.8695658 29.95,54.85 C29.9931107,54.8353846 30.0272522,54.8019833 30.0428086,54.7592031 C30.058365,54.716423 30.0536531,54.6688931 30.03,54.63 C29.948354,54.4825513 29.8547042,54.3420766 29.75,54.21 C29.23,53.71 28.7,53.21 28.17,52.73 C27.7983041,52.385445 27.4631925,52.0034177 27.17,51.59 C26.8165721,51.0598577 26.4220239,50.5583134 25.99,50.09 C25.7475126,49.7942589 25.5237432,49.4836536 25.32,49.16 C25.2506077,49.1259993 25.1693923,49.1259993 25.1,49.16 C25.0285073,49.2006213 24.9776198,49.2696828 24.96,49.35 C24.9453443,49.4561633 24.9453443,49.5638367 24.96,49.67 C24.9661418,49.7807529 24.9795035,49.8909871 25,50 Z M6,47.63 C5.61133988,47.9422714 5.27392688,48.3134257 5,48.73 C4.69,49.13 4.4,49.55 4.13,49.98 C3.99169543,50.2459291 3.78882467,50.4728692 3.54,50.64 C3.32575175,50.7809718 3.15037794,50.9735391 3.03,51.2 C2.78808173,51.6136845 2.44368453,51.9580817 2.03,52.2 C1.59161898,52.4769452 1.27380576,52.9090284 1.14,53.41 C1.12499849,53.4926582 1.12499849,53.5773418 1.14,53.66 C1.15637482,53.7434716 1.20258764,53.8181231 1.27,53.87 C1.34000814,53.9012313 1.41999186,53.9012313 1.49,53.87 C2,53 2.84,52.39 3.38,51.56 C3.46091955,51.4608571 3.55514291,51.373364 3.66,51.3 C4.0203221,51.0110423 4.33988788,50.6746572 4.61,50.3 C4.91260766,49.9863302 5.19327068,49.6522076 5.45,49.3 C5.65671546,49.0293334 5.88050415,48.7721434 6.12,48.53 C6.31302261,48.2940699 6.35924128,47.9705392 6.24,47.69 C6.21906472,47.6550507 6.19567248,47.6216332 6.17,47.59 C6.12,47.62 6.07,47.61 6,47.63 Z M6.31,61.7 C6.57,61.32 6.85,60.95 7.1,60.55 C7.17582895,60.4006223 7.22008146,60.2372284 7.23,60.07 C7.23,60.07 7.16,59.93 7.1,59.88 C7.07149977,59.8459679 7.02938974,59.8263068 6.985,59.8263068 C6.94061026,59.8263068 6.89850023,59.8459679 6.87,59.88 C6.72,60.08 6.58,60.29 6.42,60.49 C6.21982831,60.7658472 5.9919768,61.0205048 5.74,61.25 C5.38075699,61.5369908 5.06424229,61.8737085 4.8,62.25 C4.22,63.03 3.58,63.77 3.07,64.61 C2.92707963,64.8678821 2.80984954,65.1391861 2.72,65.42 C2.6870586,65.4931282 2.6870586,65.5768718 2.72,65.65 C2.72,65.72 2.83,65.65 2.91,65.65 L3.91,64.5 C4.81959441,63.6551262 5.63745959,62.7165923 6.35,61.7 L6.31,61.7 Z M2,62.73 C2,62.73 2,62.8 2.08,62.82 C2.11403412,62.8396496 2.15596588,62.8396496 2.19,62.82 C2.48872054,62.4537633 2.82376328,62.1187205 3.19,61.82 C3.33950522,61.6706173 3.46438794,61.4984817 3.56,61.31 C4.28067214,60.267741 5.05853061,59.2662065 5.89,58.31 C6.11,58.05 6.36,57.83 6.59,57.57 C6.77522334,57.3897744 6.89787734,57.1549796 6.94,56.9 C6.93165143,56.8609319 6.91054309,56.8257514 6.88,56.8 C6.848,56.7866667 6.812,56.7866667 6.78,56.8 C6.63424048,56.8792679 6.49687439,56.9730789 6.37,57.08 C5.86,57.6 5.37,58.08 4.88,58.66 L3.57,60 C3.12688588,60.5150753 2.71928052,61.0596628 2.35,61.63 C2.19113767,61.8412439 2.10044055,62.0958935 2.09,62.36 C2.0453784,62.479311 2.01516449,62.6035238 2,62.73 Z M2.62,57.86 C2.65174545,57.8745505 2.68825455,57.8745505 2.72,57.86 C2.82451985,57.7901122 2.91876397,57.7059657 3,57.61 C3.59645163,56.7757171 4.26574184,55.995994 5,55.28 C5.18355982,55.103097 5.35716011,54.9161429 5.52,54.72 C5.78783126,54.3435674 6.12773581,54.0240571 6.52,53.78 C6.74199391,53.6362126 6.83020563,53.3547753 6.73,53.11 C6.72203679,53.0667765 6.6942379,53.0298014 6.65492702,53.010146 C6.61561613,52.9904905 6.56935671,52.9904365 6.53,53.01 C6.45198996,53.0388112 6.38057318,53.0830216 6.32,53.14 C5.42,54.14 4.53,55.06 3.64,56.03 C3.22299905,56.465092 2.88464812,56.9692349 2.64,57.52 C2.61073841,57.5981505 2.58734031,57.6783725 2.57,57.76 C2.57,57.76 2.6,57.84 2.63,57.86 L2.62,57.86 Z M6.2,45.1 C5.7347559,45.7453556 5.36120198,46.4520793 5.09,47.2 C5.0603333,47.3619862 5.0603333,47.5280138 5.09,47.69 C5.09,47.69 5.14,47.76 5.17,47.76 C5.20712813,47.7814359 5.25287187,47.7814359 5.29,47.76 C5.59,47.36 5.89,46.96 6.18,46.55 C6.25,46.1 6.31,45.64 6.37,45.19 C6.37,45.19 6.37,45.12 6.31,45.08 C6.25,45.04 6.22,45.07 6.2,45.1 Z M29,72.21 C29.0351309,72.2250081 29.0748691,72.2250081 29.11,72.21 C29.17,72.21 29.24,72.11 29.24,72.05 C29.261724,71.7591389 29.1471982,71.4746717 28.93,71.28 C28.8797165,71.2232332 28.8055617,71.1935712 28.73,71.2 C28.64,71.2 28.62,71.31 28.63,71.41 C28.79,71.71 28.91,72 29,72.21 Z M2,66.21 C1.9359787,66.3145033 1.95715126,66.4500077 2.05,66.53 C2.11238652,66.5637842 2.18761348,66.5637842 2.25,66.53 C2.36465917,66.468153 2.40904183,66.3261285 2.35,66.21 C2.31026537,66.148912 2.24285908,66.111464 2.17,66.11 C2.09608016,66.1242714 2.03314052,66.1724018 2,66.24 L2,66.21 Z M11,68.13 L10.89,68.13 L11,68.13 Z" id="Shape" fill="#572A29" fill-rule="nonzero"></path>
                    <path d="M10.5,39.6 C10.5,39.44 10.42,39.18 10.34,38.95 C10.2182519,38.5727955 9.89966203,38.29259 9.51,38.22 C9.11907634,38.1569808 8.73807496,38.3788827 8.6,38.75 C8.51192286,38.9896771 8.48779746,39.2481635 8.53,39.5 C8.55029074,39.6687697 8.48681175,39.8368023 8.36,39.95 C8.31481092,39.9950324 8.28941074,40.0562036 8.28941074,40.12 C8.28941074,40.1837964 8.31481092,40.2449676 8.36,40.29 C8.63108697,40.5578623 8.9822046,40.72991 9.36,40.78 C9.88919748,40.840435 10.3728914,40.4754659 10.46,39.95 C10.49,39.86 10.49,39.78 10.5,39.6 Z" id="Path" fill="#572A29" fill-rule="evenodd"></path>
                    <path d="M19.94,39.41 C19.94,39.19 19.88,38.9 19.82,38.61 C19.7780531,38.4879927 19.7173224,38.3732791 19.64,38.27 C19.4789979,38.0593028 19.183395,38.0071376 18.96,38.15 C18.6183571,38.3679421 18.4111059,38.7447625 18.41,39.15 C18.3718447,39.6216503 18.5148863,40.0901113 18.81,40.46 C18.929211,40.5833777 19.099956,40.6427672 19.27,40.62 L19.5,40.51 C19.7467426,40.4167679 19.9126786,40.1836675 19.92,39.92 C19.93,39.75 19.93,39.62 19.94,39.41 Z" id="Path" fill="#572A29" fill-rule="evenodd"></path>
                    <path d="M15.52,39.86 C15.58,40.18 15.64,40.51 15.71,40.86 C15.7331428,40.9637341 15.8111776,41.0464975 15.9133726,41.075696 C16.0155675,41.1048946 16.1255475,41.0758498 16.2,41 C16.3622198,40.8704135 16.498017,40.7108518 16.6,40.53 C16.8396091,40.0579845 16.9135711,39.5191187 16.81,39 C16.7554891,38.8173745 16.6278686,38.665429 16.4574021,38.5801958 C16.2869356,38.4949626 16.088807,38.4840334 15.91,38.55 C15.7512531,38.6165783 15.6379181,38.7601359 15.61,38.93 C15.56,39.25 15.55,39.55 15.52,39.86 Z" id="Path" fill="#572A29" fill-rule="evenodd"></path>
                    <path d="M13.53,39.86 C13.5520616,39.4700514 13.3450763,39.1029454 13,38.92 C12.8709342,38.8463685 12.7158053,38.8339572 12.5766743,38.8861314 C12.4375432,38.9383055 12.3288261,39.049659 12.28,39.19 C12.2470522,39.3113189 12.2236474,39.4350297 12.21,39.56 C12.21,39.77 12.21,39.99 12.21,40.2 C12.2274674,40.4531083 12.1407693,40.7023654 11.97,40.89 C11.84,41.05 11.97,41.32 12.22,41.33 C12.2627332,41.3401988 12.3072668,41.3401988 12.35,41.33 C13.0426912,41.1826853 13.5359857,40.5681574 13.53,39.86 Z" id="Path" fill="#572A29" fill-rule="evenodd"></path>
                    <path d="M21.44,38.91 C21.4613353,39.3855344 21.6613228,39.8355064 22,40.17 C22.1467463,40.2607887 22.3377658,40.2310746 22.45,40.1 C22.7936025,39.4502093 22.833835,38.6821327 22.56,38 C22.5077978,37.8859226 22.4476499,37.7756514 22.38,37.67 C22.2498768,37.5607935 22.0601232,37.5607935 21.93,37.67 C21.6156954,38.0064712 21.4406017,38.4495655 21.44,38.91 Z" id="Path" fill="#572A29" fill-rule="evenodd"></path>
                    <path d="M11.39,26.16 C11.5072146,25.7667308 11.6440527,25.3795792 11.8,25 C11.9939923,24.5274192 12.2717894,24.0937848 12.62,23.72 C13.69,22.52 13.79,22.61 15.28,22.56 C15.4899201,22.5708918 15.6963386,22.6182665 15.89,22.7 C16.21,22.82 16.52,22.97 16.84,23.08 C17.321646,23.2602991 17.7657848,23.5281385 18.15,23.87 C19.0390895,24.486181 19.6357305,25.4408065 19.8,26.51 C19.9725193,27.0816226 20.0700027,27.6732459 20.09,28.27 C20.1323123,29.9351657 19.1979733,31.4715474 17.7,32.2 C16.7399519,32.7928507 15.5741662,32.9526469 14.49,32.64 C14.0663686,32.5785444 13.6700355,32.3942843 13.35,32.11 C12.81,31.63 12.28,31.11 11.77,30.62 C11.4022966,30.2526901 11.1878344,29.7594269 11.17,29.24 L11.17,28.34 C11.0467165,27.6067462 11.1226981,26.8538369 11.39,26.16 Z M18.39,30.67 C18.9756478,30.3633177 19.3558481,29.7702053 19.39,29.11 C19.4555749,28.4015574 19.3946258,27.6870984 19.21,27 C19.13,26.67 19.04,26.35 18.95,26 C18.7758406,25.3327446 18.3538536,24.7569826 17.77,24.39 C17.45,24.18 17.11,24 16.77,23.79 C16.1087728,23.3858542 15.316805,23.2532623 14.56,23.42 C14.43,23.42 14.3,23.54 14.19,23.52 C13.7989244,23.4555291 13.4066798,23.6281167 13.19,23.96 C12.8563863,24.34839 12.5863763,24.7871562 12.39,25.26 C11.9439087,26.1937277 11.7508038,27.2282186 11.83,28.26 C11.97,29.91 11.83,29.77 13.06,30.91 C13.31,31.14 13.56,31.37 13.82,31.59 C14.2116841,31.9316374 14.7209789,32.10738 15.24,32.08 L16.51,32 L16.57,31.94 C16.57,31.94 16.5,31.88 16.46,31.88 L15.57,31.88 C15.1361222,31.8879578 14.7114271,31.7545824 14.36,31.5 C13.7789526,31.1401581 13.3326194,30.5989351 13.09,29.96 C12.8573444,29.3189521 12.6636577,28.6644248 12.51,28 C12.4598927,27.7491444 12.4598927,27.4908556 12.51,27.24 C12.6052576,26.6530196 12.7872467,26.0834611 13.05,25.55 C13.3530568,25.0300033 13.7876051,24.5989039 14.31,24.3 C14.6120106,24.1243132 14.9697345,24.0706546 15.31,24.15 C15.56,24.2 15.8,24.3 16.04,24.37 C16.2872509,24.4392616 16.5093965,24.5781026 16.68,24.77 C17.3515418,25.4867224 17.9081277,26.3030484 18.33,27.19 C18.4872872,27.5408622 18.582046,27.9165132 18.61,28.3 C18.6703159,29.1060928 18.5993937,29.9166318 18.4,30.7 C18.2777595,30.744053 18.1845336,30.844737 18.15,30.97 L17.9,31.24 C17.702475,31.2461524 17.5184767,31.3418316 17.4,31.5 L17.32,31.55 L17.38,31.48 C17.577525,31.4738476 17.7615233,31.3781684 17.88,31.22 C18.0022405,31.175947 18.0954664,31.075263 18.13,30.95 C18.2611446,30.9167825 18.3572307,30.8046821 18.37,30.67 L18.39,30.67 Z M13.33,28.39 C13.43,28.72 13.58,29.03 13.67,29.39 C13.8018155,29.8389524 14.0584404,30.2412292 14.41,30.55 C14.6617385,30.7754365 14.9534197,30.9518019 15.27,31.07 C15.8813301,31.2643382 16.5479571,31.1686051 17.0798923,30.8100848 C17.6118274,30.4515644 17.9507253,29.869581 18,29.23 C18.0861162,28.5364199 17.9420693,27.833752 17.59,27.23 C17.34,26.84 17.15,26.4 16.9,26.01 C16.5843059,25.523618 16.1057154,25.1655614 15.55,25 C15.2674956,24.8920967 14.9513357,24.9178306 14.69,25.07 C14.4721788,25.2051373 14.2618682,25.3520209 14.06,25.51 C13.9544165,25.5788737 13.8628075,25.6670898 13.79,25.77 C13.3652674,26.3744841 13.1509407,27.1017898 13.18,27.84 C13.2,27.9 13.24,28.15 13.31,28.39 L13.33,28.39 Z" id="Shape" fill="#572A29" fill-rule="nonzero"></path>
                    <path d="M7.69,24.82 L7.69,25.1 C7.84,25 7.84,25 7.69,24.82 Z" id="Path" fill="#572A29" fill-rule="evenodd"></path>
                    <path d="M9.74,15 C9.66443704,15.0937745 9.59749843,15.1941824 9.54,15.3 C9.54,15.35 9.54,15.44 9.6,15.51 C9.66,15.58 9.69,15.41 9.7,15.36 C9.71,15.31 9.7,15.11 9.7,14.99 L9.74,15 Z" id="Path" fill="#572A29" fill-rule="evenodd"></path>
                    <path d="M10,14.51 C9.80984701,14.6125288 9.71161642,14.8294547 9.76,15.04 C9.99,14.93 10,14.72 10,14.51 Z" id="Path" fill="#572A29" fill-rule="evenodd"></path>
                    <path d="M3.41,53.65 C3.1712992,53.75812 2.9845756,53.9556161 2.89,54.2 C3.18431584,54.1891463 3.41565406,53.9444616 3.41,53.65 Z" id="Path" fill="#572A29" fill-rule="evenodd"></path>
                    <path d="M13.31,28.39 C13.41,28.72 13.56,29.03 13.65,29.39 C13.7818155,29.8389524 14.0384404,30.2412292 14.39,30.55 C14.6417385,30.7754365 14.9334197,30.9518019 15.25,31.07 C15.8638778,31.271773 16.5364671,31.1796926 17.073526,30.8203514 C17.6105849,30.4610102 17.9523055,29.874425 18,29.23 C18.0861162,28.5364199 17.9420693,27.833752 17.59,27.23 C17.34,26.84 17.15,26.4 16.9,26.01 C16.5843059,25.523618 16.1057154,25.1655614 15.55,25 C15.2674956,24.8920967 14.9513357,24.9178306 14.69,25.07 C14.4721788,25.2051373 14.2618682,25.3520209 14.06,25.51 C13.9544165,25.5788737 13.8628075,25.6670898 13.79,25.77 C13.3652674,26.3744841 13.1509407,27.1017898 13.18,27.84 C13.2,27.9 13.24,28.15 13.31,28.39 Z" id="Path" fill="#E94F4A" fill-rule="evenodd"></path>
                </g>
            </g>
        </g>
    </g>
</svg>